<?xml version="1.0" encoding="UTF-8"?>
<svg enable-background="new 0 0 100 100" version="1.1" viewBox="0 0 100 100" xml:space="preserve" xmlns="http://www.w3.org/2000/svg" xmlns:xlink="http://www.w3.org/1999/xlink">
<style type="text/css">
	.st0{fill:#F48156;}
	.st1{clip-path:url(#SVGID_00000016787730823165507020000006803325397244777351_);}
	.st2{clip-path:url(#SVGID_00000107548403686650589170000012599630102561887889_);}
	.st3{clip-path:url(#SVGID_00000181787279450829225270000010915112950071478670_);}
	.st4{clip-path:url(#SVGID_00000085241439270213270140000000729555187350971565_);}
	.st5{clip-path:url(#SVGID_00000155854338081985861520000009950903422330800778_);}
	.st6{fill:none;stroke:#FFFFFF;stroke-width:2.4167;stroke-linecap:round;stroke-linejoin:round;stroke-miterlimit:10;}
	.st7{clip-path:url(#SVGID_00000117638895821275058850000007671248905582556549_);}
	.st8{clip-path:url(#SVGID_00000036210891082991953090000013620156707685697959_);}
	.st9{fill:none;stroke:#FFFFFF;stroke-width:2.8808;stroke-linecap:round;stroke-linejoin:round;stroke-miterlimit:10;}
	.st10{fill:none;stroke:#F48156;stroke-miterlimit:10;}
	.st11{clip-path:url(#SVGID_00000023982780602465331260000014849656390627046800_);}
	.st12{fill:none;stroke:#FFFFFF;stroke-width:2.0613;stroke-linecap:round;stroke-linejoin:round;stroke-miterlimit:10;}
	.st13{clip-path:url(#SVGID_00000000930299024387634810000002186691738477590157_);}
	.st14{clip-path:url(#SVGID_00000050636825797093315020000005859185853291099018_);}
	.st15{fill:none;stroke:#FFFFFF;stroke-width:2.4572;stroke-linecap:round;stroke-linejoin:round;stroke-miterlimit:10;}
	.st16{clip-path:url(#SVGID_00000141434963484976115140000003855934423263223479_);}
	.st17{clip-path:url(#SVGID_00000176032251468042350760000003012422744565756591_);}
	.st18{clip-path:url(#SVGID_00000158736891709745716780000006432171460114435465_);}
	.st19{clip-path:url(#SVGID_00000130634257889862783630000010317257498368674719_);}
	.st20{clip-path:url(#SVGID_00000099639526835768885720000000334201990857534854_);}
	.st21{clip-path:url(#SVGID_00000045617942128583345480000006800312534442440602_);}
	.st22{clip-path:url(#SVGID_00000112629358998919670990000010971168245485349024_);}
	.st23{clip-path:url(#SVGID_00000170960967335521119490000015088975999238067374_);}
	.st24{clip-path:url(#SVGID_00000008145148158797778170000016459120958595921030_);}
	.st25{clip-path:url(#SVGID_00000024713549713052281540000001193260807554029987_);}
	.st26{clip-path:url(#SVGID_00000082360021345191822620000017857021180115402669_);}
	.st27{clip-path:url(#SVGID_00000166654328008844082250000006982575138900092069_);}
	.st28{clip-path:url(#SVGID_00000155825359016330943890000013997680470615623601_);}
	.st29{clip-path:url(#SVGID_00000057115739473143463440000001794082334648481971_);}
</style>
	<path class="st0" d="m108-74.4c0.9 0 1.6-0.7 1.6-1.6v-9.4c0-2.6 2.1-4.7 4.7-4.7s4.7 2.1 4.7 4.7v17.2c0 0.9 0.7 1.6 1.6 1.6s1.6-0.7 1.6-1.6v-25c0-2.6 2.1-4.7 4.7-4.7s4.7 2.1 4.7 4.7v10.9c0 0.9 0.7 1.6 1.6 1.6s1.6-0.7 1.6-1.6v-14c0-3-2-5.6-4.9-6.3l-0.8-0.2-0.3-0.8c-0.8-2.2-2.9-3.7-5.2-3.7h-5.6c-2.3 0-4.4 1.5-5.2 3.7l-0.3 0.8-0.8 0.2c-2.9 0.7-4.9 3.4-4.9 6.3v20.3c-0.4 0.9 0.3 1.6 1.2 1.6"/>
	<path class="st0" d="m114.2-86.9c-0.9 0-1.6 0.7-1.6 1.6v9.4c0 1.6-0.8 3-2 3.8l-1 11.8h21.6l-1.5-18.5c-0.9-0.9-1.4-2.1-1.4-3.4v-10.9c0-0.9-0.7-1.6-1.6-1.6s-1.6 0.7-1.6 1.6v25c0 2.6-2.1 4.7-4.7 4.7s-4.7-2.1-4.7-4.7v-17.2c0.1-0.9-0.6-1.6-1.5-1.6"/>
	<path class="st0" d="m120.5-110.3c1.7 0 3.1-1.4 3.1-3.1s-1.4-3.1-3.1-3.1-3.1 1.4-3.1 3.1 1.3 3.1 3.1 3.1"/>
	<path class="st0" d="m134.4-60.3h13.4l-4.4-27.5c-0.4-3.2-2.7-5.7-5.7-6.6v12.2c0 2.6-2.1 4.7-4.7 4.7l1.4 17.2"/>
	<path class="st0" d="m107.5-71.3c-2.3-0.3-4.2-2.2-4.2-4.6v-18.5c-3 0.8-5.3 3.4-5.7 6.6l-3.4 27.5h12.4l0.9-11"/>
			<defs>
				<rect id="g" x="101.8" y="-29.5" width="37.3" height="3.5"/>
			</defs>
			<clipPath>
				<use xlink:href="#g"/>
			</clipPath>
			<defs>
				<rect id="a" x="101.8" y="-29.5" width="37.3" height="3.5"/>
			</defs>
			<use fill="#F48156" xlink:href="#a"/>
			<clipPath id="at">
				<use xlink:href="#a"/>
			</clipPath>
			<g clip-path="url(#at)">
				<path class="st0" d="m134.5-29.1h-28.1c-2 0-3.8 1.3-4.4 3.1h36.9c-0.6-1.8-2.4-3.1-4.4-3.1"/>
			</g>
			<defs>
				<rect id="bd" x="101.8" y="-29.5" width="37.3" height="3.5"/>
			</defs>
			<clipPath>
				<use xlink:href="#bd"/>
			</clipPath>
			<defs>
				<rect id="an" x="90.9" y="-57.2" width="60.1" height="9.4"/>
			</defs>
			<clipPath>
				<use xlink:href="#an"/>
			</clipPath>
			<defs>
				<rect id="b" x="90.9" y="-57.2" width="60.1" height="9.4"/>
			</defs>
			<use fill="#F48156" xlink:href="#b"/>
			<clipPath id="ag">
				<use xlink:href="#b"/>
			</clipPath>
			<g clip-path="url(#ag)">
				<path class="st0" d="m150-54.1c0.5-1 0.8-2 1-3.1h-60.1c0.2 1.1 0.5 2.2 1 3.1h11.4v3.1h-9.2c2 1.9 4.7 3.1 7.6 3.1h37.4c3 0 6.7-1.2 8.6-3.1h-41.4v-3.1h43.7"/>
			</g>
			<defs>
				<rect id="v" x="90.9" y="-57.2" width="60.1" height="9.4"/>
			</defs>
			<clipPath>
				<use xlink:href="#v"/>
			</clipPath>
	<path class="st0" d="m117.3-44.7v12.5h6.2v-12.5h-6.2"/>
	<defs>
		<rect id="ab" x="188.7" y="-12.5" width="71.4" height="49.9"/>
	</defs>
	<clipPath id="ap">
		<use xlink:href="#ab"/>
	</clipPath>
	<g clip-path="url(#ap)">
		<path class="st0" d="m259.6-11.7c-0.3-0.5-0.9-0.7-1.4-0.7h-17.8c-1 0-1.8 0.8-1.8 1.8 0 6.9-5.6 12.5-12.5 12.5h-3.6c-6.9 0-12.5-5.6-12.5-12.5 0-1-0.8-1.8-1.8-1.8h-17.8c-0.6 0-1.1 0.3-1.4 0.7-0.3 0.5-0.4 1-0.3 1.6l12.7 41.2c1.2 3.8 4.6 6.3 8.5 6.3h28.6c3.9 0 7.3-2.5 8.5-6.3l12.7-41.2c0.4-0.5 0.3-1.1-0.1-1.6z"/>
	</g>
<path class="st0" d="m249.3-8.8h-0.3c-1-0.1-1.6-1-1.5-2l1.6-10.9-3.6-0.9-1.5 12.2c-0.1 1-1 1.6-2 1.5s-1.7-1-1.5-2l1.8-14.2c0.1-0.5 0.3-1 0.8-1.2 0.4-0.3 0.9-0.4 1.4-0.3l7.1 1.8c0.9 0.2 1.5 1.1 1.3 2l-1.8 12.5c-0.2 0.8-0.9 1.5-1.8 1.5z"/>
<path class="st0" d="m227.9 3.6c-1.1-0.1-1.8-0.9-1.8-1.9l1.8-33.8c0.1-0.9 0.8-1.7 1.8-1.7h7.1c0.5 0 1 0.2 1.3 0.6s0.5 0.8 0.5 1.3l-1.8 32c-0.1 1-0.9 1.7-1.9 1.7-1-0.1-1.7-0.9-1.7-1.9l1.7-30.2h-3.5l-1.7 32.1c0 1.1-0.8 1.8-1.8 1.8z"/>
<path class="st0" d="m192.3-8.8c-0.9 0-1.6-0.6-1.8-1.5l-3.5-21.4c-0.2-0.9 0.5-1.8 1.4-2l8.9-1.8c0.5-0.1 1 0 1.4 0.3s0.7 0.7 0.7 1.2l1.8 10.7c0.2 1-0.5 1.9-1.5 2-1 0.2-1.9-0.5-2-1.5l-1.5-8.9-5.4 1.1 3.3 19.7c0.2 1-0.5 1.9-1.5 2-0.1 0-0.2 0.1-0.3 0.1z"/>
<path class="st0" d="m201.2-8.8c-0.9 0-1.6-0.6-1.8-1.5l-1.8-12.5c-0.1-0.9 0.4-1.8 1.3-2l5.7-1.4-1.5-12.4-3.8 1v3.9c0 1-0.8 1.8-1.8 1.8s-1.8-0.8-1.8-1.8v-5.3c0-0.8 0.6-1.5 1.3-1.7l7.1-1.8c0.5-0.1 1 0 1.4 0.3s0.7 0.7 0.8 1.3l3.6 30.3c0.1 1-0.6 1.9-1.6 2s-1.9-0.6-2-1.5l-1.5-12.2-3.6 0.9 1.6 10.9c0.1 1-0.5 1.9-1.5 2 0.1-0.3 0-0.3-0.1-0.3z"/>
<path class="st0" d="m215.5-30.2c-0.8 0-1.5-0.5-1.7-1.3l-3-10.4-5.2 2.6c-0.9 0.4-1.9 0.1-2.4-0.8 1.3-3.5 0.8-3.3 0.8-2.4l7.1-3.6c0.5-0.2 1-0.3 1.5 0 0.5 0.2 0.9 0.6 1 1.1l3.6 12.5c0.3 0.9-0.3 1.9-1.2 2.2-0.2 0.1-0.4 0.1-0.5 0.1z"/>
	<defs>
		<rect id="z" x="211.7" y="-48" width="16.5" height="53.5"/>
	</defs>
	<clipPath id="aq">
		<use xlink:href="#z"/>
	</clipPath>
	<g clip-path="url(#aq)">
			<path class="st0" d="m222.6 5.4c-1 0-1.7-0.8-1.8-1.7l-1.7-33.9h-1.8-0.1-1.7l1.7 31.9c0.1 1-0.7 1.8-1.7 1.9-1 0-1.8-0.7-1.9-1.7l-1.8-33.8c0-0.5 0.2-1 0.5-1.3 0.3-0.4 0.8-0.6 1.3-0.6h2l1.6-12.7c0.1-0.9 0.9-1.6 1.8-1.6h7.1c0.5 0 1 0.2 1.3 0.6s0.5 0.8 0.5 1.3l-3.6 49.8c0 1.1-0.8 1.8-1.7 1.8zm-3.3-39.2h1.5c1 0 1.7 0.7 1.8 1.7l0.3 6.3 1.3-18.7h-3.6l-1.3 10.7z"/>
	</g>
<path class="st0" d="m233.3-30.2c-1 0-1.8-0.8-1.8-1.8v-8.9h-5.3c-1 0-1.8-0.8-1.8-1.8s0.8-1.8 1.8-1.8h7.1c1 0 1.8 0.8 1.8 1.8v10.7c0 1-0.8 1.8-1.8 1.8z"/>
<path class="st0" d="m240.4-8.8h-0.3c-1-0.1-1.6-1-1.5-2l3.3-23.2-9-1.5c-1-0.2-1.6-1.1-1.5-2s1.1-1.6 2-1.5l10.7 1.8c1 0.2 1.6 1 1.5 2l-3.6 24.9c0 0.8-0.7 1.5-1.6 1.5z"/>
<path class="st0" d="m254.6-8.8c-0.2 0-0.4 0-0.6-0.1-0.9-0.3-1.4-1.3-1.1-2.2l6.6-19.9-4.1-2.1-4.5 9.1c-0.4 0.9-1.5 1.2-2.4 0.8s-1.2-1.5-0.8-2.4l5.3-10.7c0.4-0.9 1.5-1.2 2.4-0.8l7.1 3.6c0.8 0.4 1.2 1.3 0.9 2.2l-7.1 21.4c-0.2 0.6-0.9 1.1-1.7 1.1z"/>
<path class="st0" d="m251.1-26.6c-1 0-1.8-0.8-1.8-1.8v-12.5h-3.6v5.3c0 1-0.8 1.8-1.8 1.8s-1.8-0.8-1.8-1.8v-7.1c0-1 0.8-1.8 1.8-1.8h7.1c1 0 1.8 0.8 1.8 1.8v14.2c0.1 1.1-0.7 1.9-1.7 1.9z"/>
<path class="st0" d="m194.2 98.5v-50.7h-28.3v51 0.1c0 1.6 6.4 2.9 14.2 2.9 7.9 0 14.2-1.3 14.2-2.9 0-0.1 0-0.2-0.1-0.4"/>
	<defs>
		<rect id="ba" x="165.1" y="46.7" width="29.9" height="55.8"/>
	</defs>
	<clipPath id="o">
		<use xlink:href="#ba"/>
	</clipPath>
	<g clip-path="url(#o)">
		<path class="st6" d="m194.2 98.5v-50.7h-28.3v51 0.1c0 1.6 6.4 2.9 14.2 2.9 7.9 0 14.2-1.3 14.2-2.9 0-0.1 0-0.2-0.1-0.4z"/>
	</g>
<path class="st0" d="m176.4 56.6h0.6c0.6 0 1.2 0.1 1.7 0.4 0.4 0.3 0.6 0.7 0.8 1.2 0.5 1.3 0.6 2.8 1.5 4 0.8 1.2 2.7 1.8 3.6 0.7 0.4-0.5 0.6-1.2 0.7-1.8 0.3-1.2 0.6-2.4 1.1-3.5 0.4-0.9 1.4-2 2.2-1.4 0.3 0.2 0.4 0.6 0.6 0.9 0.8 1.2 2.9 1.3 4.1 0.5 1.1-0.8 1-2 1-3.2v-6.6h-28.3c0 2.1-0.4 4.7 0 6.8 0.5 3.1 7.4 2.1 10.4 2"/>
<path class="st6" d="m176.4 56.6h0.6c0.6 0 1.2 0.1 1.7 0.4 0.4 0.3 0.6 0.7 0.8 1.2 0.5 1.3 0.6 2.8 1.5 4 0.8 1.2 2.7 1.8 3.6 0.7 0.4-0.5 0.6-1.2 0.7-1.8 0.3-1.2 0.6-2.4 1.1-3.5 0.4-0.9 1.4-2 2.2-1.4 0.3 0.2 0.4 0.6 0.6 0.9 0.8 1.2 2.9 1.3 4.1 0.5 1.1-0.8 1-2 1-3.2v-6.6h-28.3c0 2.1-0.4 4.7 0 6.8 0.5 3.1 7.4 2.1 10.4 2z"/>
<path class="st0" d="m194.3 47.8c0 1.6-6.4 2.9-14.2 2.9-7.9 0-14.2-1.3-14.2-2.9s6.4-2.9 14.2-2.9c7.9 0 14.2 1.3 14.2 2.9"/>
	<defs>
		<rect id="av" x="165.1" y="44" width="29.9" height="7.6"/>
	</defs>
	<clipPath id="m">
		<use xlink:href="#av"/>
	</clipPath>
	<g clip-path="url(#m)">
		<path class="st6" d="m194.3 47.8c0 1.6-6.4 2.9-14.2 2.9-7.9 0-14.2-1.3-14.2-2.9s6.4-2.9 14.2-2.9c7.9 0 14.2 1.3 14.2 2.9z"/>
	</g>
<path class="st0" d="m186.6 37.4c0 3.6-2.9 6.6-6.6 6.6-3.6 0-6.6-2.9-6.6-6.6s6.6-15.2 6.6-15.2 6.6 11.6 6.6 15.2"/>
	<defs>
		<rect id="af" x="172.2" y="21.4" width="15.2" height="23.7"/>
	</defs>
	<clipPath id="r">
		<use xlink:href="#af"/>
	</clipPath>
	<g clip-path="url(#r)">
		<path class="st9" d="m186.6 37.4c0 3.6-2.9 6.6-6.6 6.6s-6.6-2.9-6.6-6.6 6.6-15.2 6.6-15.2 6.6 11.6 6.6 15.2z"/>
	</g>
<path class="st10" d="m183.3 39c0 1.8-1.5 3.3-3.3 3.3s-3.3-1.5-3.3-3.3 3.3-7.6 3.3-7.6 3.3 5.8 3.3 7.6"/>
<path class="st10" d="M180.1,47.6V36.8"/>
<path class="st0" d="m165.7 98.2v-43.3h-24.1v43.5 0.1c0 1.4 5.4 2.5 12.1 2.5s12.1-1.1 12.1-2.5c0-0.1 0-0.2-0.1-0.3"/>
	<defs>
		<rect id="aw" x="140.8" y="54.4" width="25.9" height="47.3"/>
	</defs>
	<clipPath id="ao">
		<use xlink:href="#aw"/>
	</clipPath>
	<g clip-path="url(#ao)">
		<path class="st12" d="m165.7 98.2v-43.3h-24.1v43.5 0.1c0 1.4 5.4 2.5 12.1 2.5s12.1-1.1 12.1-2.5c0-0.1 0-0.2-0.1-0.3z"/>
	</g>
<path class="st0" d="m150.5 62.4h0.5c0.5 0 1 0.1 1.4 0.4 0.3 0.3 0.5 0.6 0.6 1 0.4 1.1 0.6 2.4 1.2 3.4 0.7 1 2.3 1.5 3.1 0.6 0.4-0.4 0.5-1 0.6-1.5 0.2-1 0.5-2 0.9-3 0.3-0.8 1.2-1.7 1.9-1.2 0.3 0.2 0.4 0.5 0.6 0.8 0.7 1 2.5 1.1 3.5 0.4 0.9-0.6 0.8-1.7 0.8-2.7v-5.7h-24.1c0 1.8-0.4 4 0 5.8 0.6 2.6 6.4 1.8 9 1.7"/>
	<defs>
		<rect id="ad" x="140.8" y="54.4" width="25.9" height="14.7"/>
	</defs>
	<clipPath id="al">
		<use xlink:href="#ad"/>
	</clipPath>
	<g clip-path="url(#al)">
		<path class="st12" d="m150.5 62.4h0.5c0.5 0 1 0.1 1.4 0.4 0.3 0.3 0.5 0.6 0.6 1 0.4 1.1 0.6 2.4 1.2 3.4 0.7 1 2.3 1.5 3.1 0.6 0.4-0.4 0.5-1 0.6-1.5 0.2-1 0.5-2 0.9-3 0.3-0.8 1.2-1.7 1.9-1.2 0.3 0.2 0.4 0.5 0.6 0.8 0.7 1 2.5 1.1 3.5 0.4 0.9-0.6 0.8-1.7 0.8-2.7v-5.7h-24.1c0 1.8-0.4 4 0 5.8 0.6 2.6 6.4 1.8 9 1.7z"/>
	</g>
<path class="st0" d="m165.8 54.9c0 1.4-5.4 2.5-12.1 2.5s-12.1-1.1-12.1-2.5 5.4-2.5 12.1-2.5 12.1 1.1 12.1 2.5"/>
	<defs>
		<rect id="ae" x="140.8" y="51.6" width="25.9" height="6.5"/>
	</defs>
	<clipPath id="ah">
		<use xlink:href="#ae"/>
	</clipPath>
	<g clip-path="url(#ah)">
		<path class="st12" d="m165.8 54.9c0 1.4-5.4 2.5-12.1 2.5s-12.1-1.1-12.1-2.5 5.4-2.5 12.1-2.5 12.1 1.1 12.1 2.5z"/>
	</g>
<path class="st0" d="m159.2 46.1c0 3.1-2.5 5.6-5.6 5.6s-5.6-2.5-5.6-5.6 5.6-12.9 5.6-12.9 5.6 9.8 5.6 12.9"/>
<path class="st15" d="m159.2 46.1c0 3.1-2.5 5.6-5.6 5.6s-5.6-2.5-5.6-5.6 5.6-13 5.6-13 5.6 9.9 5.6 13z"/>
<path class="st0" d="m156.4 47.5c0 1.5-1.3 2.8-2.8 2.8s-2.8-1.3-2.8-2.8 2.8-6.5 2.8-6.5 2.8 4.9 2.8 6.5"/>
<path class="st10" d="m153.7 54.7v-9.2"/>
	<defs>
		<rect id="i" x="248.3" y="103.9" width="6.6" height="22"/>
	</defs>
	<clipPath id="az">
		<use xlink:href="#i"/>
	</clipPath>
	<g clip-path="url(#az)">
			<path class="st0" d="m254.5 108.8l-1.2-2.4c-0.2-0.4-0.2-1 0-1.4l0.4-0.9h-5.3v21.8h5.3l-0.4-0.9c-0.2-0.4-0.2-1 0-1.4l1.2-2.4-1.2-2.4c-0.2-0.4-0.2-1 0-1.4l1.2-2.4-1.2-2.4c-0.2-0.4-0.2-1 0-1.4l1.2-2.4"/>
	</g>
<path class="st0" d="m248.5 66.8h-21.8c-6 0-10.9 4.9-10.9 10.9v16.1l4-2c0.2-0.1 0.5-0.2 0.7-0.2h21.8c6 0 10.9-4.9 10.9-10.9v-16l-4 2c-0.2 0.1-0.5 0.1-0.7 0.1"/>
<path class="st0" d="m237.6 118.1c0 0.9-0.7 1.6-1.6 1.6h-37.3c-0.9 0-1.6-0.7-1.6-1.6v-6.2c0-0.9 0.7-1.6 1.6-1.6h37.3c0.9 0 1.6 0.7 1.6 1.6v6.2zm3.1-10.8h-46.6c-0.2 0-0.5-0.1-0.7-0.2l-4-2v19.9l4-2c0.2-0.1 0.5-0.2 0.7-0.2h46.6c0.2 0 0.5 0.1 0.7 0.2l4 2v-19.8l-4 2c-0.2 0-0.4 0.1-0.7 0.1"/>
<path class="st0" d="m256.3 80.8c0 7.7-6.3 14-14 14h-21.4l-5.9 2.9c-0.2 0.1-0.5 0.2-0.7 0.2-0.3 0-0.6-0.1-0.8-0.2-0.5-0.3-0.7-0.8-0.7-1.3v-18.7c0-7.7 6.3-14 14-14h21.4l5.9-2.9c0.5-0.2 1.1-0.2 1.5 0.1 0.5 0.3 0.7 0.8 0.7 1.3v18.6zm1.3 21c0.3 0.5 0.3 1 0.1 1.5l-1.2 2.4 1.2 2.4c0.2 0.4 0.2 1 0 1.4l-0.4 0.9h9.1l-5.2-11.8c-0.1-0.2-0.1-0.4-0.1-0.6v-40.5c0-0.3 0.1-0.5 0.2-0.8l4.9-8.6h-63.2l4.9 8.6c0.1 0.2 0.2 0.5 0.2 0.8v40.4c0 0.2 0 0.4-0.1 0.6l-2.5 5.6h34.9l5.9-2.9h0.1 0.1c0.2-0.1 0.3-0.1 0.5-0.1h0.1 9.3c0.4-0.1 0.9 0.2 1.2 0.7"/>
		<defs>
			<rect id="ar" x="201.5" y="39" width="65.6" height="6.5"/>
		</defs>
		<clipPath>
			<use xlink:href="#ar"/>
		</clipPath>
		<defs>
			<rect id="f" x="201.5" y="39" width="65.6" height="6.5"/>
		</defs>
		<use fill="#F48156" xlink:href="#f"/>
		<clipPath id="l">
			<use xlink:href="#f"/>
		</clipPath>
		<g clip-path="url(#l)">
			<path class="st0" d="m266.3 40.2c-0.4 0.2-1 0.2-1.4 0l-2.4-1.2-2.4 1.2c-0.4 0.2-1 0.2-1.4 0l-2.4-1.2-2.4 1.2c-0.4 0.2-1 0.2-1.4 0l-2.5-1.2-2.4 1.2c-0.4 0.2-1 0.2-1.4 0l-2.4-1.2-2.4 1.2c-0.4 0.2-1 0.2-1.4 0l-2.4-1.2-2.4 1.2c-0.4 0.2-1 0.2-1.4 0l-2.4-1.2-2.4 1.2c-0.4 0.2-1 0.2-1.4 0l-2.4-1.2-2.4 1.2c-0.4 0.2-1 0.2-1.4 0l-2.4-1.2-2.4 1.2c-0.4 0.2-1 0.2-1.4 0l-2.4-1.2-2.4 1.2c-0.4 0.2-1 0.2-1.4 0l-2.4-1.2-2.4 1.2c-0.4 0.2-1 0.2-1.4 0l-0.9-0.4v5.3h65.3v-5.3l-0.9 0.4"/>
		</g>
		<defs>
			<rect id="t" x="201.5" y="39" width="65.6" height="6.5"/>
		</defs>
		<clipPath>
			<use xlink:href="#t"/>
		</clipPath>
<path class="st0" d="m200.3 116.6h34.2v-3.1h-34.2v3.1"/>
		<defs>
			<rect id="s" x="256.4" y="113.1" width="10.7" height="6.6"/>
		</defs>
		<clipPath>
			<use xlink:href="#s"/>
		</clipPath>
		<defs>
			<rect id="c" x="256.4" y="113.1" width="10.7" height="6.6"/>
		</defs>
		<use fill="#F48156" xlink:href="#c"/>
		<clipPath id="ax">
			<use xlink:href="#c"/>
		</clipPath>
		<g clip-path="url(#ax)">
			<path class="st0" d="m257.7 114.3c0.2 0.4 0.2 1 0 1.4l-1.2 2.4 0.5 1 1.7-0.9c0.4-0.2 1-0.2 1.4 0l1.6 0.8 0.9 0.4 2.4-1.2c0.4-0.2 1-0.2 1.4 0l0.9 0.4v-5.3h-9.9l0.3 1"/>
		</g>
		<defs>
			<rect id="aj" x="256.4" y="113.1" width="10.7" height="6.6"/>
		</defs>
		<clipPath>
			<use xlink:href="#aj"/>
		</clipPath>
		<defs>
			<rect id="j" x="17.6" y="67.1" width="37.7" height="20.8"/>
		</defs>
		<clipPath id="am">
			<use xlink:href="#j"/>
		</clipPath>
		<g clip-path="url(#am)">
				<path class="st0" d="m17.8 67.2v18.4c4.4 1.3 10.7 2.3 18.5 2.3s14.2-0.9 18.5-2.3v-18.4c-5 1.5-11.7 2.3-18.5 2.3s-13.5-0.9-18.5-2.3zm26.8 8.1l3.2 2.4c0.4 0.3 0.5 0.7 0.5 1.1s-0.1 0.8-0.5 1.1l-3.2 2.4c-1.6 1-3.6 1.7-5.6 1.7s-4-0.7-5.6-1.9l-1.9-1.5c-1.2 2-3.4 3.3-5.8 3.3-0.4 0-0.8-0.3-1.1-0.5-0.3-0.4-0.3-0.8-0.1-1.2l1.2-3.6-1.3-3.6c-0.1-0.4-0.1-0.8 0.1-1.2 0.3-0.4 0.7-0.5 1.1-0.5 2.4 0 4.6 1.3 5.8 3.3l1.9-1.5c3.3-2.2 8.1-2.2 11.3 0.2z"/>
		</g>
		<defs>
			<rect id="y" x="11.2" y="56.3" width="50.4" height="28.8"/>
		</defs>
		<clipPath id="as">
			<use xlink:href="#y"/>
		</clipPath>
		<g clip-path="url(#as)">
				<path class="st0" d="m11.2 56.5v24.9c0 1.1 1.5 2.3 4 3.3v-19.2c0-0.4 0.3-0.8 0.5-1.1 0.4-0.3 0.8-0.4 1.2-0.3 4.9 1.7 11.9 2.6 19.5 2.6 7.4 0 14.6-0.9 19.5-2.6 0.4-0.1 0.9-0.1 1.2 0.1 0.4 0.3 0.5 0.7 0.5 1.1v19.2c2.5-1.1 4-2.3 4-3.3v-24.7c-4.6 3.3-15 5-25.2 5s-20.6-1.7-25.2-5z"/>
		</g>
	<path class="st0" d="M35,80c2.3,1.7,5.7,1.7,7.9,0l1.7-1.3L43,77.4c-2.3-1.7-5.7-1.7-7.9,0l-1.7,1.3L35,80z"/>
		<defs>
			<rect id="h" x="48.1" y="11.1" width="39.9" height="8.4"/>
		</defs>
		<clipPath id="q">
			<use xlink:href="#h"/>
		</clipPath>
		<g clip-path="url(#q)">
			<path class="st0" d="m68.1 19.1c12.8 0 19.9-2.8 19.9-4s-7-4-19.9-4-19.9 2.8-19.9 4c0.1 1.2 7.1 4 19.9 4z"/>
		</g>
		<defs>
			<rect id="ay" x="48.1" y="28.9" width="39.9" height="35.5"/>
		</defs>
		<clipPath id="w">
			<use xlink:href="#ay"/>
		</clipPath>
		<g clip-path="url(#w)">
				<path class="st0" d="m48.3 29v14.7c2.5 0.4 4.9 0.8 7 1.5 1.3-6 6.6-10.2 12.8-10.2 7.3 0 13.2 6 13.2 13.2s-6 13.2-13.2 13.2c-1.3 0-2.6-0.3-4-0.7v3.3c1.3 0 2.6 0.1 4 0.1 12.8 0 19.9-2.8 19.9-4v-31.1c-4.6 2.5-14.2 3.3-19.9 3.3-5.7 0.1-15.2-0.7-19.8-3.3z"/>
		</g>
		<defs>
			<rect id="bc" x="48.1" y="18.1" width="39.9" height="11.7"/>
		</defs>
		<clipPath id="x">
			<use xlink:href="#bc"/>
		</clipPath>
		<g clip-path="url(#x)">
				<path class="st0" d="m68.1 21.8c-5.7 0-15.2-0.8-19.9-3.3v7.3c0 1.2 7 4 19.9 4s19.9-2.8 19.9-4v-7.3c-4.6 2.5-14.2 3.3-19.9 3.3z"/>
		</g>
	<path class="st0" d="m64.2 58c1.3 0.5 2.6 0.8 4 0.8 5.4 0 9.9-4.1 10.5-9.4l-0.1 0.1c-1.3 0.9-2.8 1.3-4.4 1.3s-3-0.4-4.4-1.3l-0.7-0.4c-0.9-0.7-1.9-0.9-2.9-0.9h-1.3c-0.8 0-1.6 0.1-2.4 0.5 1.1 1.1 1.7 2.1 1.7 3.4v5.9z"/>
		<defs>
			<rect id="k" x="63.8" y="63.1" width="24.2" height="14.4"/>
		</defs>
		<clipPath id="ai">
			<use xlink:href="#k"/>
		</clipPath>
		<g clip-path="url(#ai)">
				<path class="st0" d="m64.2 66.7v10.6c1.3 0 2.6 0.1 4 0.1 12.8 0 19.9-2.8 19.9-4v-9.9c-4.6 2.5-14.2 3.3-19.9 3.3-1.4 0-2.7 0-4-0.1z"/>
		</g>
		<defs>
			<rect id="u" x="11.2" y="45.5" width="50.4" height="13.5"/>
		</defs>
		<clipPath id="au">
			<use xlink:href="#u"/>
		</clipPath>
		<g clip-path="url(#au)">
				<path class="st0" d="m36.3 45.6c-15.6 0-25.2 3.8-25.2 6.6s9.5 6.6 25.2 6.6 25.2-3.8 25.2-6.6-9.5-6.6-25.2-6.6zm-11.9 10.6c-3.8 0-6.6-1.7-6.6-4s2.8-4 6.6-4c3.7 0 6.6 1.7 6.6 4s-2.9 4-6.6 4z"/>
		</g>
	<path class="st0" d="m64.8 45.6h1.3c1.6 0 3 0.4 4.4 1.3l0.7 0.4c1.7 1.2 4.1 1.2 5.8 0l1.6-1.1c-0.9-4.9-5.3-8.6-10.5-8.6-5 0-9.4 3.6-10.3 8.5 0.8 0.3 1.6 0.7 2.4 1.1l0.4-0.3c1.2-0.9 2.6-1.3 4.2-1.3z"/>
	<defs>
		<rect id="aa" x="151.2" y="-46" width="79.5" height="79.9"/>
	</defs>
	<clipPath id="ac">
		<use xlink:href="#aa"/>
	</clipPath>
	<g clip-path="url(#ac)">
		<path class="st0" d="m164.3 14.1c-3.9 0-6.8-0.5-6.8-0.5v10.6c0 2 1.6 3.6 3.6 3.6h21.5c2 0 3.6-1.6 3.6-3.6v-10.5s-2.9 0.5-6.8 0.5c-2.3 0-4.9-0.7-7.5-0.7-2.8-0.1-5.4 0.6-7.6 0.6zm44.4-49.4l1.1-4.2 4.2-1.2-4.2-1.2-1.1-4.2-1.2 4.2-4.3 1.2 4.3 1.2 1.2 4.2zm-3.6 17.2l1.6-6.1 6.1-1.7-6.1-1.7-1.6-6.1-1.7 6.1-6.2 1.7 6.2 1.7 1.7 6.1zm11.5 37.8c-2.3 0-5.8-1.1-8.1-1.1-2.5 0-4.8 1.1-6.8 1.1-3.6 0-5.6-1.1-5.6-1.1s0 8.2 0 12.5c0 1.9 1 2.5 2.4 2.5h30.2c1.1 0 1.8-0.6 1.8-2.1v-11.8s-1.2-1.1-6.1-1.1c-1.8 0.1-5.7 1.1-7.8 1.1zm7.9-7.3c-1.9 0-5.7 1.1-7.9 1.1-2.3 0-5.8-1.1-8.1-1.1-2.5 0-4.8 1.1-6.8 1.1-3.6 0-5.6-1.1-5.6-1.1v3.7s2 1.1 5.6 1.1c2 0 4.3-1.1 6.8-1.1 2.2 0 5.8 1.1 8.1 1.1 2.1 0 6-1.1 7.9-1.1 4.9 0 6.1 1.1 6.1 1.1v-3.7s-1.2-1.1-6.1-1.1zm-36.4 12.1c0 2.9-2.4 5.3-5.3 5.3h-22.1c-2.9 0-5.3-2.4-5.3-5.3v-9.8c0-5.7 7-10.8 9-15.9 1.9-4.7 1.8-11.8 1.8-11.8 0-1.1 0.9-2.3 1.9-2.3h7.1c1.1 0 1.9 0.9 1.9 1.9 0 0 0.5 8.8 1.8 12.5 2 5.3 9 9.2 9 15.6v9.8zm-6.8-37.9c0-3.1-2.3-5.6-5.3-6 0.3-1.6 1-2.8 1.9-4.1 1 1.4 2.8 4.2 7.7 3.8 0 0 0.7 0 0.7-0.7s-0.7-0.7-0.7-0.7-3.5-0.3-4.8-5.1c1.3-0.8 3.4-1.4 5-1.6v-7.5h-18.6c-8.4 0-9.7 10.8-9.7 10.8s2.6 0 5.2 0h4.8v5.2c-3 0.4-5.3 2.9-5.3 6 0 0 0.5 5-1.2 9.6-1.5 4.3-9.7 11-9.7 18.5v9.8c0 5.2 4.2 9.4 9.4 9.4h22.1c5.2 0 9.4-4.2 9.4-9.4v-9.8c0-7.6-8.3-13.8-9.7-18.5-1.3-4.8-1.2-9.7-1.2-9.7zm25 19.2c-1.6 0-2.9-1.3-2.9-2.9s1.3-2.9 2.9-2.9 2.9 1.3 2.9 2.9-1.3 2.9-2.9 2.9zm0-7.6c-2.6 0-4.7 2.1-4.7 4.7s2.1 4.7 4.7 4.7 4.7-2.1 4.7-4.7c0.1-2.6-2-4.7-4.7-4.7zm-14.5-32.9h-4.4v6.2h4.4c0.6 0 1.1-0.4 1.1-1.2v-3.8c0-0.7-0.7-1.2-1.1-1.2zm25.2 3.4l1.2 4.2 1.2-4.2 4.2-1.2-4.2-1.2-1.2-4.2-1.2 4.2-4.3 1.2 4.3 1.2zm-6.5 17.5c-0.2 0-1 0.3-1.3 0.5-0.2 0.2-0.5 0.5-0.5 0.7-0.1 0.2-0.1 0.5-0.1 0.6 0.1 0.1 0.3 0.3 0.5 0.2s0.3-0.2 0.4-0.4c0-0.1 0-0.3 0.4-0.5 0.3-0.2 0.6-0.2 0.8-0.3 0.2 0 0.3-0.3 0.3-0.5-0.1-0.1-0.2-0.3-0.5-0.3zm16.3 11.5c0 2.8-2.2 5-5 5s-5-2.2-5-5c0-2.7 2.2-5 5-5 2.7 0 5 2.2 5 5zm-11.9 0c0 3.8 3.1 6.9 6.9 6.9s6.9-3.1 6.9-6.9-3.1-6.9-6.9-6.9-6.9 3.1-6.9 6.9zm6.4-3.2c-0.4 0-1.5 0.4-1.8 0.7s-0.7 0.7-0.8 1-0.2 0.7-0.1 0.9 0.4 0.4 0.7 0.3 0.5-0.3 0.5-0.5c0.1-0.2 0.1-0.4 0.5-0.7 0.5-0.3 0.8-0.3 1.2-0.4 0.3-0.1 0.5-0.4 0.4-0.7 0-0.4-0.2-0.6-0.6-0.6zm-14.9 6.6c-0.2 0-1 0.3-1.3 0.5-0.2 0.2-0.5 0.5-0.6 0.7s-0.1 0.5-0.1 0.6c0.1 0.1 0.3 0.3 0.5 0.2 0.2 0 0.3-0.2 0.4-0.4 0-0.1 0.1-0.3 0.4-0.5s0.6-0.2 0.8-0.2 0.3-0.3 0.3-0.5-0.2-0.4-0.4-0.4zm4.2-10.1c-1.6 0-2.9-1.3-2.9-2.9s1.3-2.9 2.9-2.9 2.9 1.3 2.9 2.9-1.3 2.9-2.9 2.9zm4.7-2.8c0-2.6-2.1-4.7-4.7-4.7s-4.7 2.1-4.7 4.7 2.1 4.7 4.7 4.7 4.7-2.1 4.7-4.7"/>
	</g>
<path class="st0" d="M233.8,61.8h19.8V50.5h-19.8V61.8"/>
<path class="st0" d="m238.5 16.6c-0.7 0-1.1 0.2-1.4 0.5-1.3 1.4 0 5.8 3.8 9.7 2.6 2.7 5.7 4.4 7.9 4.4 0.6 0 1.1-0.2 1.4-0.5 1.3-1.4 0-5.8-3.8-9.7-2.6-2.7-5.7-4.4-7.9-4.4"/>
<path class="st0" d="m238.9 28.7c-0.9-0.9-1.6-1.8-2.2-2.7v21.6h14.1v-14c-0.6 0.2-1.3 0.4-2 0.4-3 0-6.7-2-9.9-5.3"/>
	<defs>
		<rect id="e" x="231" y="64.6" width="25.5" height="31.2"/>
	</defs>
	<use fill="#F48156" xlink:href="#e"/>
	<clipPath id="ak">
		<use xlink:href="#e"/>
	</clipPath>
	<g clip-path="url(#ak)">
		<path class="st0" d="m231 95.7h25.4v-31h-25.4v31"/>
	</g>
	<defs>
		<rect id="d" x="267.3" y="64.6" width="11.7" height="31.2"/>
	</defs>
	<use fill="#F48156" xlink:href="#d"/>
	<clipPath id="n">
		<use xlink:href="#d"/>
	</clipPath>
	<g clip-path="url(#n)">
		<path class="st0" d="m267.7 95.7h11.3v-31h-11.3v31"/>
	</g>
	<defs>
		<rect id="p" x="267.3" y="13.7" width="11.7" height="48.6"/>
	</defs>
	<clipPath id="bb">
		<use xlink:href="#p"/>
	</clipPath>
	<g clip-path="url(#bb)">
		<path class="st0" d="m267.7 39.2v2.8h4.2v19.8h2.8v-19.8h4.2v-2.8h-4.2v-2.8h4.2v-2.8h-4.2v-2.8h4.2v-2.8h-4.2v-2.8h4.2v-2.8h-4.2v-2.8h2.8v-2.8h-2.8v-2.8h-2.7v2.8h-2.8v2.8h2.8v2.8h-4.2v2.8h4.2v2.8h-4.2v2.8h4.2v2.8h-4.2v2.8h4.2v2.8h-4.3"/>
	</g>
</svg>
