<?xml version="1.0" encoding="UTF-8"?>
<svg enable-background="new 0 0 100 100" version="1.1" viewBox="0 0 100 100" xml:space="preserve" xmlns="http://www.w3.org/2000/svg" xmlns:xlink="http://www.w3.org/1999/xlink">
<style type="text/css">
	.st0{fill:#F48156;}
	.st1{clip-path:url(#SVGID_00000147221720073473490090000016760390430923017880_);}
	.st2{clip-path:url(#SVGID_00000019644862091643457070000003318663848431899286_);}
	.st3{clip-path:url(#SVGID_00000140006765438516956940000017130905461269242251_);}
	.st4{clip-path:url(#SVGID_00000127043270714424759210000015245523910541316243_);}
	.st5{clip-path:url(#SVGID_00000154383414684098486540000001317915521725383092_);}
	.st6{fill:none;stroke:#FFFFFF;stroke-width:2.4167;stroke-linecap:round;stroke-linejoin:round;stroke-miterlimit:10;}
	.st7{clip-path:url(#SVGID_00000183233934057189618570000015830000509527714233_);}
	.st8{clip-path:url(#SVGID_00000114039048668384834300000011797592254146460825_);}
	.st9{fill:none;stroke:#FFFFFF;stroke-width:2.8808;stroke-linecap:round;stroke-linejoin:round;stroke-miterlimit:10;}
	.st10{fill:none;stroke:#F48156;stroke-miterlimit:10;}
	.st11{clip-path:url(#SVGID_00000008127418617512141040000003126998193177413009_);}
	.st12{fill:none;stroke:#FFFFFF;stroke-width:2.0613;stroke-linecap:round;stroke-linejoin:round;stroke-miterlimit:10;}
	.st13{clip-path:url(#SVGID_00000150785505251526882670000000347165349229413013_);}
	.st14{clip-path:url(#SVGID_00000066512932943896880480000017362959207786430633_);}
	.st15{fill:none;stroke:#FFFFFF;stroke-width:2.4572;stroke-linecap:round;stroke-linejoin:round;stroke-miterlimit:10;}
</style>
	<path class="st0" d="m125-31.4c0.9 0 1.6-0.7 1.6-1.6v-9.4c0-2.6 2.1-4.7 4.7-4.7s4.7 2.1 4.7 4.7v17.2c0 0.9 0.7 1.6 1.6 1.6s1.6-0.7 1.6-1.6v-25c0-2.6 2.1-4.7 4.7-4.7s4.7 2.1 4.7 4.7v10.9c0 0.9 0.7 1.6 1.6 1.6s1.6-0.7 1.6-1.6v-14c0-3-2-5.6-4.9-6.3l-0.8-0.2-0.3-0.8c-0.8-2.2-2.9-3.7-5.2-3.7h-5.6c-2.3 0-4.4 1.5-5.2 3.7l-0.3 0.8-0.8 0.2c-2.9 0.7-4.9 3.4-4.9 6.3v20.3c-0.4 0.9 0.3 1.6 1.2 1.6"/>
	<path class="st0" d="m131.2-43.9c-0.9 0-1.6 0.7-1.6 1.6v9.4c0 1.6-0.8 3-2 3.8l-1 11.8h21.6l-1.5-18.5c-0.9-0.9-1.4-2.1-1.4-3.4v-10.9c0-0.9-0.7-1.6-1.6-1.6s-1.6 0.7-1.6 1.6v25c0 2.6-2.1 4.7-4.7 4.7s-4.7-2.1-4.7-4.7v-17.2c0.1-0.9-0.6-1.6-1.5-1.6"/>
	<path class="st0" d="m137.5-67.3c1.7 0 3.1-1.4 3.1-3.1s-1.4-3.1-3.1-3.1-3.1 1.4-3.1 3.1 1.3 3.1 3.1 3.1"/>
	<path class="st0" d="m151.4-17.3h13.4l-4.4-27.5c-0.4-3.2-2.7-5.7-5.7-6.6v12.2c0 2.6-2.1 4.7-4.7 4.7l1.4 17.2"/>
	<path class="st0" d="m124.5-28.3c-2.3-0.3-4.2-2.2-4.2-4.6v-18.5c-3 0.8-5.3 3.4-5.7 6.6l-3.4 27.5h12.4l0.9-11"/>
			<defs>
				<rect id="c" x="118.8" y="13.5" width="37.3" height="3.5"/>
			</defs>
			<clipPath>
				<use xlink:href="#c"/>
			</clipPath>
			<defs>
				<rect id="a" x="118.8" y="13.5" width="37.3" height="3.5"/>
			</defs>
			<use fill="#F48156" xlink:href="#a"/>
			<clipPath id="w">
				<use xlink:href="#a"/>
			</clipPath>
			<g clip-path="url(#w)">
				<path class="st0" d="m151.5 13.9h-28.1c-2 0-3.8 1.3-4.4 3.1h36.9c-0.6-1.8-2.4-3.1-4.4-3.1"/>
			</g>
			<defs>
				<rect id="x" x="118.8" y="13.5" width="37.3" height="3.5"/>
			</defs>
			<clipPath>
				<use xlink:href="#x"/>
			</clipPath>
			<defs>
				<rect id="p" x="107.9" y="-14.2" width="60.1" height="9.4"/>
			</defs>
			<clipPath>
				<use xlink:href="#p"/>
			</clipPath>
			<defs>
				<rect id="b" x="107.9" y="-14.2" width="60.1" height="9.4"/>
			</defs>
			<use fill="#F48156" xlink:href="#b"/>
			<clipPath id="g">
				<use xlink:href="#b"/>
			</clipPath>
			<g clip-path="url(#g)">
				<path class="st0" d="m167-11.1c0.5-1 0.8-2 1-3.1h-60.1c0.2 1.1 0.5 2.2 1 3.1h11.4v3.1h-9.2c2 1.9 4.7 3.1 7.6 3.1h37.4c3 0 6.7-1.2 8.6-3.1h-41.4v-3.1h43.7"/>
			</g>
			<defs>
				<rect id="k" x="107.9" y="-14.2" width="60.1" height="9.4"/>
			</defs>
			<clipPath>
				<use xlink:href="#k"/>
			</clipPath>
	<path class="st0" d="m134.3-1.7v12.5h6.2v-12.5h-6.2"/>
	<defs>
		<rect id="n" x="200.7" y="28.5" width="71.4" height="49.9"/>
	</defs>
	<clipPath id="h">
		<use xlink:href="#n"/>
	</clipPath>
	<g clip-path="url(#h)">
		<path class="st0" d="m271.6 29.3c-0.3-0.5-0.9-0.7-1.4-0.7h-17.8c-1 0-1.8 0.8-1.8 1.8 0 6.9-5.6 12.5-12.5 12.5h-3.6c-6.9 0-12.5-5.6-12.5-12.5 0-1-0.8-1.8-1.8-1.8h-17.8c-0.6 0-1.1 0.3-1.4 0.7-0.3 0.5-0.4 1-0.3 1.6l12.7 41.2c1.2 3.8 4.6 6.3 8.5 6.3h28.6c3.9 0 7.3-2.5 8.5-6.3l12.7-41.2c0.4-0.5 0.3-1.1-0.1-1.6z"/>
	</g>
<path class="st0" d="m261.3 32.2h-0.3c-1-0.1-1.6-1-1.5-2l1.6-10.9-3.6-0.9-1.5 12.2c-0.1 1-1 1.6-2 1.5s-1.7-1-1.5-2l1.8-14.2c0.1-0.5 0.3-1 0.8-1.2 0.4-0.3 0.9-0.4 1.4-0.3l7.1 1.8c0.9 0.2 1.5 1.1 1.3 2l-1.8 12.5c-0.2 0.8-0.9 1.5-1.8 1.5z"/>
<path class="st0" d="m239.9 44.6c-1.1-0.1-1.8-0.9-1.8-1.9l1.8-33.8c0.1-0.9 0.8-1.7 1.8-1.7h7.1c0.5 0 1 0.2 1.3 0.6s0.5 0.8 0.5 1.3l-1.8 32c-0.1 1-0.9 1.7-1.9 1.7-1-0.1-1.7-0.9-1.7-1.9l1.7-30.2h-3.5l-1.7 32.1c0 1.1-0.8 1.8-1.8 1.8z"/>
<path class="st0" d="m204.3 32.2c-0.9 0-1.6-0.6-1.8-1.5l-3.5-21.4c-0.2-0.9 0.5-1.8 1.4-2l8.9-1.8c0.5-0.1 1 0 1.4 0.3s0.7 0.7 0.7 1.2l1.8 10.7c0.2 1-0.5 1.9-1.5 2-1 0.2-1.9-0.5-2-1.5l-1.5-8.9-5.4 1.1 3.3 19.7c0.2 1-0.5 1.9-1.5 2-0.1 0-0.2 0.1-0.3 0.1z"/>
<path class="st0" d="m213.2 32.2c-0.9 0-1.6-0.6-1.8-1.5l-1.8-12.5c-0.1-0.9 0.4-1.8 1.3-2l5.7-1.4-1.5-12.4-3.8 1v3.9c0 1-0.8 1.8-1.8 1.8s-1.8-0.8-1.8-1.8v-5.4c0-0.8 0.6-1.5 1.3-1.7l7.1-1.8c0.5-0.1 1 0 1.4 0.3s0.7 0.7 0.8 1.3l3.6 30.3c0.1 1-0.6 1.9-1.6 2s-1.9-0.6-2-1.5l-1.5-12.2-3.6 0.9 1.6 10.9c0.1 1-0.5 1.9-1.5 2 0.1-0.2 0-0.2-0.1-0.2z"/>
<path class="st0" d="m227.5 10.8c-0.8 0-1.5-0.5-1.7-1.3l-3-10.4-5.2 2.6c-0.9 0.4-1.9 0.1-2.4-0.8 1.3-3.5 0.8-3.3 0.8-2.4l7.1-3.6c0.5-0.2 1-0.3 1.5 0 0.5 0.2 0.9 0.6 1 1.1l3.6 12.5c0.3 0.9-0.3 1.9-1.2 2.2-0.2 0.1-0.4 0.1-0.5 0.1z"/>
	<defs>
		<rect id="s" x="223.7" y="-7" width="16.5" height="53.5"/>
	</defs>
	<clipPath id="t">
		<use xlink:href="#s"/>
	</clipPath>
	<g clip-path="url(#t)">
			<path class="st0" d="m234.6 46.4c-1 0-1.7-0.8-1.8-1.7l-1.7-33.9h-1.8-0.1-1.7l1.7 31.9c0.1 1-0.7 1.8-1.7 1.9-1 0-1.8-0.7-1.9-1.7l-1.8-33.8c0-0.5 0.2-1 0.5-1.3 0.3-0.4 0.8-0.6 1.3-0.6h2l1.6-12.7c0.1-0.9 0.9-1.6 1.8-1.6h7.1c0.5 0 1 0.2 1.3 0.6s0.5 0.8 0.5 1.3l-3.6 49.8c0 1.1-0.8 1.8-1.7 1.8zm-3.3-39.2h1.5c1 0 1.7 0.7 1.8 1.7l0.3 6.3 1.3-18.7h-3.6l-1.3 10.7z"/>
	</g>
<path class="st0" d="m245.3 10.8c-1 0-1.8-0.8-1.8-1.8v-8.9h-5.3c-1 0-1.8-0.8-1.8-1.8s0.8-1.8 1.8-1.8h7.1c1 0 1.8 0.8 1.8 1.8v10.7c0 1-0.8 1.8-1.8 1.8z"/>
<path class="st0" d="m252.4 32.2h-0.3c-1-0.1-1.6-1-1.5-2l3.4-23.3-9-1.5c-1-0.2-1.6-1.1-1.5-2s1.1-1.6 2-1.5l10.7 1.8c1 0.2 1.6 1 1.5 2l-3.6 24.9c-0.1 0.9-0.8 1.6-1.7 1.6z"/>
<path class="st0" d="m266.6 32.2c-0.2 0-0.4 0-0.6-0.1-0.9-0.3-1.4-1.3-1.1-2.2l6.6-19.9-4.1-2.1-4.5 9.1c-0.4 0.9-1.5 1.2-2.4 0.8s-1.2-1.5-0.8-2.4l5.3-10.7c0.4-0.9 1.5-1.2 2.4-0.8l7.1 3.6c0.8 0.4 1.2 1.3 0.9 2.2l-7.1 21.4c-0.2 0.6-0.9 1.1-1.7 1.1z"/>
<path class="st0" d="m263.1 14.4c-1 0-1.8-0.8-1.8-1.8v-12.5h-3.6v5.3c0 1-0.8 1.8-1.8 1.8s-1.8-0.8-1.8-1.8v-7.1c0-1 0.8-1.8 1.8-1.8h7.1c1 0 1.8 0.8 1.8 1.8v14.2c0.1 1.1-0.7 1.9-1.7 1.9z"/>
<path class="st0" d="m75.2 82.5v-50.7h-28.3v51 0.1c0 1.6 6.4 2.9 14.2 2.9 7.9 0 14.2-1.3 14.2-2.9 0-0.1 0-0.2-0.1-0.4"/>
	<defs>
		<rect id="i" x="46.1" y="30.7" width="29.9" height="55.8"/>
	</defs>
	<clipPath id="j">
		<use xlink:href="#i"/>
	</clipPath>
	<g clip-path="url(#j)">
		<path class="st6" d="m75.2 82.5v-50.7h-28.3v51 0.1c0 1.6 6.4 2.9 14.2 2.9 7.9 0 14.2-1.3 14.2-2.9 0-0.1 0-0.2-0.1-0.4z"/>
	</g>
<path class="st0" d="m57.4 40.6h0.6c0.6 0 1.2 0.1 1.7 0.4 0.4 0.3 0.6 0.7 0.8 1.2 0.5 1.3 0.6 2.8 1.5 4 0.8 1.2 2.7 1.8 3.6 0.7 0.4-0.5 0.6-1.2 0.7-1.8 0.3-1.2 0.6-2.4 1.1-3.5 0.4-0.9 1.4-2 2.2-1.4 0.3 0.2 0.4 0.6 0.6 0.9 0.8 1.2 2.9 1.3 4.1 0.5 1.1-0.8 1-2 1-3.2v-6.6h-28.4c0 2.1-0.4 4.7 0 6.8 0.6 3.1 7.5 2.1 10.5 2"/>
<path class="st6" d="m57.4 40.6h0.6c0.6 0 1.2 0.1 1.7 0.4 0.4 0.3 0.6 0.7 0.8 1.2 0.5 1.3 0.6 2.8 1.5 4 0.8 1.2 2.7 1.8 3.6 0.7 0.4-0.5 0.6-1.2 0.7-1.8 0.3-1.2 0.6-2.4 1.1-3.5 0.4-0.9 1.4-2 2.2-1.4 0.3 0.2 0.4 0.6 0.6 0.9 0.8 1.2 2.9 1.3 4.1 0.5 1.1-0.8 1-2 1-3.2v-6.6h-28.4c0 2.1-0.4 4.7 0 6.8 0.6 3.1 7.5 2.1 10.5 2z"/>
<path class="st0" d="m75.3 31.8c0 1.6-6.4 2.9-14.2 2.9-7.9 0-14.2-1.3-14.2-2.9s6.4-2.9 14.2-2.9c7.9 0 14.2 1.3 14.2 2.9"/>
	<defs>
		<rect id="r" x="46.1" y="28" width="29.9" height="7.6"/>
	</defs>
	<clipPath id="e">
		<use xlink:href="#r"/>
	</clipPath>
	<g clip-path="url(#e)">
		<path class="st6" d="m75.3 31.8c0 1.6-6.4 2.9-14.2 2.9-7.9 0-14.2-1.3-14.2-2.9s6.4-2.9 14.2-2.9c7.9 0 14.2 1.3 14.2 2.9z"/>
	</g>
<path class="st0" d="M67.6,21.4c0,3.6-2.9,6.6-6.6,6.6c-3.6,0-6.6-2.9-6.6-6.6S61,6.2,61,6.2S67.6,17.8,67.6,21.4"/>
	<defs>
		<rect id="m" x="53.2" y="5.4" width="15.2" height="23.7"/>
	</defs>
	<clipPath id="u">
		<use xlink:href="#m"/>
	</clipPath>
	<g clip-path="url(#u)">
		<path class="st9" d="M67.6,21.4c0,3.6-2.9,6.6-6.6,6.6c-3.6,0-6.6-2.9-6.6-6.6S61,6.2,61,6.2S67.6,17.8,67.6,21.4z"/>
	</g>
<path class="st10" d="m64.3 23c0 1.8-1.5 3.3-3.3 3.3s-3.3-1.5-3.3-3.3 3.3-7.6 3.3-7.6 3.3 5.8 3.3 7.6"/>
<path class="st10" d="M61.1,31.6V20.8"/>
<path class="st0" d="m46.7 82.2v-43.3h-24.2v43.5 0.1c0 1.4 5.4 2.5 12.1 2.5s12.1-1.1 12.1-2.5c0.1-0.1 0.1-0.2 0-0.3"/>
	<defs>
		<rect id="v" x="21.8" y="38.4" width="25.9" height="47.3"/>
	</defs>
	<clipPath id="f">
		<use xlink:href="#v"/>
	</clipPath>
	<g clip-path="url(#f)">
		<path class="st12" d="m46.7 82.2v-43.3h-24.2v43.5 0.1c0 1.4 5.4 2.5 12.1 2.5s12.1-1.1 12.1-2.5c0.1-0.1 0.1-0.2 0-0.3z"/>
	</g>
<path class="st0" d="m31.5 46.4h0.5c0.5 0 1 0.1 1.4 0.4 0.3 0.3 0.5 0.6 0.6 1 0.4 1.1 0.6 2.4 1.2 3.4 0.7 1 2.3 1.5 3.1 0.6 0.4-0.4 0.5-1 0.6-1.5 0.2-1 0.5-2 0.9-3 0.3-0.8 1.2-1.7 1.9-1.2 0.3 0.2 0.4 0.5 0.6 0.8 0.7 1 2.5 1.1 3.5 0.4 0.9-0.6 0.8-1.7 0.8-2.7v-5.7h-24.1c0 1.8-0.4 4 0 5.8 0.6 2.6 6.4 1.8 9 1.7"/>
	<defs>
		<rect id="q" x="21.8" y="38.4" width="25.9" height="14.7"/>
	</defs>
	<clipPath id="o">
		<use xlink:href="#q"/>
	</clipPath>
	<g clip-path="url(#o)">
		<path class="st12" d="m31.5 46.4h0.5c0.5 0 1 0.1 1.4 0.4 0.3 0.3 0.5 0.6 0.6 1 0.4 1.1 0.6 2.4 1.2 3.4 0.7 1 2.3 1.5 3.1 0.6 0.4-0.4 0.5-1 0.6-1.5 0.2-1 0.5-2 0.9-3 0.3-0.8 1.2-1.7 1.9-1.2 0.3 0.2 0.4 0.5 0.6 0.8 0.7 1 2.5 1.1 3.5 0.4 0.9-0.6 0.8-1.7 0.8-2.7v-5.7h-24.1c0 1.8-0.4 4 0 5.8 0.6 2.6 6.4 1.8 9 1.7z"/>
	</g>
<path class="st0" d="m46.8 38.9c0 1.4-5.4 2.5-12.1 2.5s-12.1-1.1-12.1-2.5 5.4-2.5 12.1-2.5 12.1 1.1 12.1 2.5"/>
	<defs>
		<rect id="l" x="21.8" y="35.6" width="25.9" height="6.5"/>
	</defs>
	<clipPath id="d">
		<use xlink:href="#l"/>
	</clipPath>
	<g clip-path="url(#d)">
		<path class="st12" d="m46.8 38.9c0 1.4-5.4 2.5-12.1 2.5s-12.1-1.1-12.1-2.5 5.4-2.5 12.1-2.5 12.1 1.1 12.1 2.5z"/>
	</g>
<path class="st0" d="m40.2 30.1c0 3.1-2.5 5.6-5.6 5.6s-5.6-2.5-5.6-5.6 5.6-12.9 5.6-12.9 5.6 9.8 5.6 12.9"/>
<path class="st15" d="m40.2 30.1c0 3.1-2.5 5.6-5.6 5.6s-5.6-2.5-5.6-5.6 5.6-13 5.6-13 5.6 9.9 5.6 13z"/>
<path class="st0" d="m37.4 31.5c0 1.5-1.3 2.8-2.8 2.8s-2.8-1.3-2.8-2.8 2.8-6.5 2.8-6.5 2.8 4.9 2.8 6.5"/>
<path class="st10" d="m34.7 38.7v-9.2"/>
</svg>
