<?xml version="1.0" encoding="UTF-8"?>
<svg enable-background="new 0 0 100 100" version="1.1" viewBox="0 0 100 100" xml:space="preserve" xmlns="http://www.w3.org/2000/svg" xmlns:xlink="http://www.w3.org/1999/xlink">
<style type="text/css">
	.st0{clip-path:url(#SVGID_00000004529851408574854240000003081975074056130741_);}
	.st1{fill:#F48156;}
</style>
	<defs>
		<rect id="a" x="72.9" y="17.2" width="14.2" height="66.6"/>
	</defs>
	<clipPath id="b">
		<use xlink:href="#a"/>
	</clipPath>
	<g clip-path="url(#b)">
			<path class="st1" d="m84.1 17.7c-7 5.9-11.1 14.6-11.1 23.8v16.1c0 0.5 0.2 0.9 0.5 1.2l3 3v16.8c0 2.9 2.4 5.2 5.2 5.2 2.9 0 5.2-2.4 5.2-5.2v-59.5c0.2-1-1.2-2.5-2.8-1.4z"/>
	</g>
<path class="st1" d="m48.6 43.5c-1 0-1.7-0.8-1.7-1.7 0-2.3-3.5-2.3-3.5 0 0.3 2.7-1.6 5.3-4.4 5.2-2.4 0-4.4-2-4.4-4.4v-4.4c0-2.3-3.5-2.3-3.5 0v22.8c0 2.3 3.5 2.3 3.5 0-0.3-2.7 1.6-5.3 4.4-5.2 2.4 0 4.4 2 4.4 4.4v4.4c0 2.3 3.5 2.3 3.5 0v-1.7c0-1 0.8-1.7 1.7-1.7 1.9 0 3.5-1.6 3.5-3.5v-10.7c0-1.9-1.6-3.5-3.5-3.5z"/>
<path class="st1" d="m62.6 20.8h-42c-10.5 0.2-11.9 15.1-1.7 17.3v40.4c0 1 0.8 1.7 1.7 1.7h41.9c1 0 1.7-0.8 1.7-1.7v-40.4c10.2-2.2 8.9-17.1-1.6-17.3zm-7 36.7c0 3.3-2.1 6-5.2 6.8 0.2 3-2.4 5.5-5.2 5.5-2.9 0-5.2-2.4-5.2-5.2v-4.4c0-1.1-1.7-1.1-1.7 0 0.7 7.5-10.1 8.4-10.5 0.9v-22.8c0.2-6.9 10.3-6.9 10.5 0v4.4c0 0.5 0.4 0.9 0.9 0.9 1 0 0.9-1 0.9-1.7 0-5.9 8.5-7.2 10.2-1.6 3.1 0.7 5.5 3.5 5.5 6.8v10.4z"/>
</svg>
