<?xml version="1.0" encoding="utf-8"?>
<!-- Generator: Adobe Illustrator 26.0.1, SVG Export Plug-In . SVG Version: 6.00 Build 0)  -->
<svg version="1.1" id="Capa_1" xmlns="http://www.w3.org/2000/svg" xmlns:xlink="http://www.w3.org/1999/xlink" x="0px" y="0px"
	 viewBox="0 0 100 100" style="enable-background:new 0 0 100 100;" xml:space="preserve">
<style type="text/css">
	.st0{fill:#F48156;}
	.st1{clip-path:url(#SVGID_00000033330932103655570370000003532918250238587530_);}
	.st2{clip-path:url(#SVGID_00000160169795917491730300000016603550837688109993_);}
</style>
<path class="st0" d="M38,47.6c0.9,0,1.6-0.7,1.6-1.6v-9.4c0-2.6,2.1-4.7,4.7-4.7c2.6,0,4.7,2.1,4.7,4.7v17.2c0,0.9,0.7,1.6,1.6,1.6
	c0.9,0,1.6-0.7,1.6-1.6v-25c0-2.6,2.1-4.7,4.7-4.7c2.6,0,4.7,2.1,4.7,4.7v10.9c0,0.9,0.7,1.6,1.6,1.6c0.9,0,1.6-0.7,1.6-1.6v-14
	c0-3-2-5.6-4.9-6.3l-0.8-0.2l-0.3-0.8c-0.8-2.2-2.9-3.7-5.2-3.7h-5.6c-2.3,0-4.4,1.5-5.2,3.7l-0.3,0.8l-0.8,0.2
	c-2.9,0.7-4.9,3.4-4.9,6.3v20.3C36.4,46.9,37.1,47.6,38,47.6"/>
<path class="st0" d="M44.2,35.1c-0.9,0-1.6,0.7-1.6,1.6v9.4c0,1.6-0.8,3-2,3.8l-1,11.8h21.6l-1.5-18.5c-0.9-0.9-1.4-2.1-1.4-3.4
	V28.9c0-0.9-0.7-1.6-1.6-1.6c-0.9,0-1.6,0.7-1.6,1.6v25c0,2.6-2.1,4.7-4.7,4.7c-2.6,0-4.7-2.1-4.7-4.7V36.7
	C45.8,35.8,45.1,35.1,44.2,35.1"/>
<path class="st0" d="M50.5,11.7c1.7,0,3.1-1.4,3.1-3.1s-1.4-3.1-3.1-3.1c-1.7,0-3.1,1.4-3.1,3.1S48.7,11.7,50.5,11.7"/>
<path class="st0" d="M64.4,61.7h12.4l-3.4-27.5c-0.4-3.2-2.7-5.7-5.7-6.6v12.2c0,2.6-2.1,4.7-4.7,4.7L64.4,61.7"/>
<path class="st0" d="M37.5,50.7c-2.3-0.3-4.2-2.2-4.2-4.6V27.6c-3,0.8-5.3,3.4-5.7,6.6l-3.4,27.5h12.4L37.5,50.7"/>
<g>
	<g>
		<defs>
			<rect id="SVGID_1_" x="31.8" y="92.5" width="37.3" height="3.5"/>
		</defs>
		<clipPath id="SVGID_00000075133975277012133960000010775900448331889301_">
			<use xlink:href="#SVGID_1_"  style="overflow:visible;"/>
		</clipPath>
	</g>
	<g>
		<defs>
			<rect id="SVGID_00000088130881478909241760000016429313378732147637_" x="31.8" y="92.5" width="37.3" height="3.5"/>
		</defs>
		<use xlink:href="#SVGID_00000088130881478909241760000016429313378732147637_"  style="overflow:visible;fill:#F48156;"/>
		<clipPath id="SVGID_00000011019340495189471790000017339189133357511820_">
			<use xlink:href="#SVGID_00000088130881478909241760000016429313378732147637_"  style="overflow:visible;"/>
		</clipPath>
		<g style="clip-path:url(#SVGID_00000011019340495189471790000017339189133357511820_);">
			<path class="st0" d="M64.5,92.9H36.4c-2,0-3.8,1.3-4.4,3.1h36.9C68.3,94.2,66.5,92.9,64.5,92.9"/>
		</g>
	</g>
	<g>
		<defs>
			<rect id="SVGID_00000030484626138872495620000007717685946291779510_" x="31.8" y="92.5" width="37.3" height="3.5"/>
		</defs>
		<clipPath id="SVGID_00000163784977062091051370000005834428850574905503_">
			<use xlink:href="#SVGID_00000030484626138872495620000007717685946291779510_"  style="overflow:visible;"/>
		</clipPath>
	</g>
</g>
<g>
	<g>
		<defs>
			<rect id="SVGID_00000132790415578685592230000008020649725840434330_" x="20.9" y="64.8" width="59.1" height="9.4"/>
		</defs>
		<clipPath id="SVGID_00000091712260556873294210000008674636945568261511_">
			<use xlink:href="#SVGID_00000132790415578685592230000008020649725840434330_"  style="overflow:visible;"/>
		</clipPath>
	</g>
	<g>
		<defs>
			<rect id="SVGID_00000147931048783924911270000008948370006541234069_" x="20.9" y="64.8" width="59.1" height="9.4"/>
		</defs>
		<use xlink:href="#SVGID_00000147931048783924911270000008948370006541234069_"  style="overflow:visible;fill:#F48156;"/>
		<clipPath id="SVGID_00000077300131344119108500000012525082659464694404_">
			<use xlink:href="#SVGID_00000147931048783924911270000008948370006541234069_"  style="overflow:visible;"/>
		</clipPath>
		<g style="clip-path:url(#SVGID_00000077300131344119108500000012525082659464694404_);">
			<path class="st0" d="M79,67.9c0.5-1,0.8-2,1-3.1H20.9c0.2,1.1,0.5,2.2,1,3.1h11.4v3.1h-9.2c2,1.9,4.7,3.1,7.6,3.1h37.4
				c3,0,5.7-1.2,7.6-3.1H36.4v-3.1H79"/>
		</g>
	</g>
	<g>
		<defs>
			<rect id="SVGID_00000180349906324668947550000007395199513416166016_" x="20.9" y="64.8" width="59.1" height="9.4"/>
		</defs>
		<clipPath id="SVGID_00000070080990658594101670000008165405482406080439_">
			<use xlink:href="#SVGID_00000180349906324668947550000007395199513416166016_"  style="overflow:visible;"/>
		</clipPath>
	</g>
</g>
<path class="st0" d="M47.3,77.3v12.5h6.2V77.3H47.3"/>
</svg>
