<?xml version="1.0" encoding="utf-8"?>
<!-- Generator: Adobe Illustrator 26.0.1, SVG Export Plug-In . SVG Version: 6.00 Build 0)  -->
<svg version="1.1" id="Capa_1" xmlns="http://www.w3.org/2000/svg" xmlns:xlink="http://www.w3.org/1999/xlink" x="0px" y="0px"
	 viewBox="0 0 1000 1000" style="enable-background:new 0 0 1000 1000;" xml:space="preserve">
<style type="text/css">
	.st0{display:none;}
	.st1{display:inline;fill:#457520;}
	.st2{display:inline;fill:#76A145;}
	.st3{display:inline;fill:#B7C986;}
	.st4{display:inline;fill:#C6BBAE;}
	.st5{display:inline;fill:#E65404;}
	.st6{display:inline;fill:none;}
	.st7{display:inline;}
	.st8{font-family:'Roboto-Bold';}
	.st9{font-size:66px;}
	.st10{font-family:'Roboto-Regular';}
	.st11{fill:none;}
	.st12{enable-background:new    ;}
	.st13{fill:#F8B999;}
	.st14{fill:#457520;}
</style>
<g id="Capa_1_00000065785445959114399140000018061903540965588894_" class="st0">
	<rect x="34.4" y="708.3" class="st1" width="139" height="67"/>
	<rect x="34.4" y="622.3" class="st2" width="139" height="67"/>
	<rect x="34.4" y="539.3" class="st3" width="139" height="67"/>
	<rect x="34.4" y="456.3" class="st4" width="139" height="67"/>
	<rect x="34.4" y="373.3" class="st5" width="139" height="67"/>
	<rect x="51.5" y="207.5" class="st6" width="913.1" height="179.9"/>
	<text transform="matrix(1 0 0 1 51.5273 256.9639)" class="st7 st8 st9">Densidad del Orangutan </text>
	<text transform="matrix(1 0 0 1 51.5273 336.1639)" class="st7 st10 st9">(individuo por km²)</text>
	<rect x="218.4" y="373.5" class="st6" width="350.8" height="83.8"/>
	<text transform="matrix(1 0 0 1 218.4184 423.0367)" class="st7 st8 st9">0.01-0.5</text>
	<rect x="214.6" y="637" class="st6" width="350.8" height="83.8"/>
	<text transform="matrix(1 0 0 1 214.6092 686.4716)" class="st7 st8 st9">2.0-5.0</text>
	<rect x="214.6" y="463" class="st6" width="350.8" height="83.8"/>
	<text transform="matrix(1 0 0 1 214.6091 512.4718)" class="st7 st8 st9">0.5-1.0</text>
	<rect x="214.6" y="544" class="st6" width="350.8" height="83.8"/>
	<text transform="matrix(1 0 0 1 214.6091 593.4718)" class="st7 st8 st9">1.0-2.0</text>
	<rect x="214.6" y="721" class="st6" width="350.8" height="83.8"/>
	<text transform="matrix(1 0 0 1 214.6091 770.4718)" class="st7 st8 st9">5.0-10.9</text>
</g>
<rect x="51" y="91.5" class="st11" width="913.1" height="179.9"/>
<text transform="matrix(1 0 0 1 339.7991 569.1411)" class="st12"><tspan x="0" y="0" class="st8 st9"> </tspan><tspan x="0" y="79.2" class="st8 st9">Otros tipo de suelos </tspan><tspan x="0" y="158.4" class="st8 st9">  </tspan></text>
<text transform="matrix(1 0 0 1 341.6535 369.2388)" class="st12"><tspan x="0" y="0" class="st8 st9">Bosque primarios </tspan><tspan x="0" y="158.4" class="st8 st9">  </tspan></text>
<rect x="369.4" y="293.9" class="st11" width="66.3" height="2.6"/>
<rect x="217.9" y="257.5" class="st11" width="350.8" height="83.8"/>
<rect x="214.1" y="428" class="st11" width="350.8" height="83.8"/>
<rect x="108" y="93.2" class="st11" width="913.1" height="179.9"/>
<rect x="214.1" y="428" class="st11" width="350.8" height="83.8"/>
<rect x="339.8" y="344.3" class="st11" width="350.8" height="83.8"/>
<circle class="st13" cx="147.2" cy="613.4" r="101.6"/>
<circle class="st14" cx="152.6" cy="341.3" r="101.6"/>
</svg>
