<?xml version="1.0" encoding="utf-8"?>
<!-- Generator: Adobe Illustrator 26.0.1, SVG Export Plug-In . SVG Version: 6.00 Build 0)  -->
<svg version="1.1" id="Capa_1" xmlns="http://www.w3.org/2000/svg" xmlns:xlink="http://www.w3.org/1999/xlink" x="0px" y="0px"
	 viewBox="0 0 1000 1000" style="enable-background:new 0 0 1000 1000;" xml:space="preserve">
<style type="text/css">
	.st0{fill:#457520;}
	.st1{fill:#76A145;}
	.st2{fill:#B7C986;}
	.st3{fill:#C6BBAE;}
	.st4{fill:#E65404;}
	.st5{fill:none;}
	.st6{font-family:'Roboto-Bold';}
	.st7{font-size:66px;}
	.st8{font-family:'Roboto-Regular';}
</style>
<rect x="34.4" y="708.3" class="st0" width="139" height="67"/>
<rect x="34.4" y="622.3" class="st1" width="139" height="67"/>
<rect x="34.4" y="539.3" class="st2" width="139" height="67"/>
<rect x="34.4" y="456.3" class="st3" width="139" height="67"/>
<rect x="34.4" y="373.3" class="st4" width="139" height="67"/>
<rect x="51.5" y="207.5" class="st5" width="913.1" height="179.9"/>
<text transform="matrix(1 0 0 1 51.5273 256.9639)" class="st6 st7">Densidad del Orangutan </text>
<text transform="matrix(1 0 0 1 51.5273 336.1639)" class="st8 st7">(individuo por km²)</text>
<rect x="218.4" y="373.5" class="st5" width="350.8" height="83.8"/>
<text transform="matrix(1 0 0 1 218.4184 423.0367)" class="st6 st7">0.01-0.5</text>
<rect x="214.6" y="637" class="st5" width="350.8" height="83.8"/>
<text transform="matrix(1 0 0 1 214.6092 686.4716)" class="st6 st7">2.0-5.0</text>
<rect x="214.6" y="463" class="st5" width="350.8" height="83.8"/>
<text transform="matrix(1 0 0 1 214.6091 512.4718)" class="st6 st7">0.5-1.0</text>
<rect x="214.6" y="544" class="st5" width="350.8" height="83.8"/>
<text transform="matrix(1 0 0 1 214.6091 593.4718)" class="st6 st7">1.0-2.0</text>
<rect x="214.6" y="721" class="st5" width="350.8" height="83.8"/>
<text transform="matrix(1 0 0 1 214.6091 770.4718)" class="st6 st7">5.0-10.9</text>
</svg>
