<?xml version="1.0" encoding="utf-8"?>
<!-- Generator: Adobe Illustrator 26.0.1, SVG Export Plug-In . SVG Version: 6.00 Build 0)  -->
<svg version="1.1" id="Capa_1" xmlns="http://www.w3.org/2000/svg" xmlns:xlink="http://www.w3.org/1999/xlink" x="0px" y="0px"
	 viewBox="0 0 1700 1895.5" style="enable-background:new 0 0 1700 1895.5;" xml:space="preserve">
<style type="text/css">
	.st0{fill:none;stroke:#DFA781;stroke-width:4.417;stroke-linecap:round;stroke-linejoin:round;stroke-miterlimit:10;}
	.st1{fill:#070508;}
	.st2{font-family:'Roboto-Medium';}
	.st3{font-size:50px;}
	.st4{fill:none;}
	.st5{font-family:'Roboto-Regular';}
	.st6{font-size:44px;}
	.st7{fill:#8F8D8E;}
	.st8{fill:#F4B492;}
	.st9{fill:#F8CDB6;stroke:#F4B492;stroke-width:5;stroke-miterlimit:10;}
	.st10{fill:none;stroke:#191C17;stroke-width:3.144;stroke-miterlimit:10;stroke-dasharray:6.288,6.288;}
	.st11{fill:#191C17;}
	.st12{fill:#F0F1F1;stroke:#E65100;stroke-width:7.3617;stroke-miterlimit:10;}
	.st13{fill:#FFFFFF;}
	.st14{fill:#E65100;}
	.st15{fill:#C74E0B;}
	.st16{fill:none;stroke:#E65100;stroke-width:3.3553;stroke-linecap:round;stroke-linejoin:round;stroke-miterlimit:10;}
	.st17{fill:none;stroke:#191C17;stroke-width:3.6809;stroke-miterlimit:10;}
</style>
<line class="st0" x1="66.3" y1="1848.1" x2="775.5" y2="1848.1"/>
<g>
	<text transform="matrix(0.9972 0 0 1 903.1553 917.3867)" class="st1 st2 st3">Duermen en las alturas</text>
</g>
<g>
	<rect x="903.2" y="955.8" class="st4" width="705" height="284.4"/>
	<text transform="matrix(0.9972 0 0 1 903.1533 988.791)" class="st1 st5 st6">Construyen un nido nuevo cada </text>
	<text transform="matrix(0.9972 0 0 1 903.1533 1041.5918)" class="st1 st5 st6">noche para dormir.</text>
</g>
<path id="XMLID_2_" class="st7" d="M233.7,1806.1c-0.4,1.8-0.7,3.5-1,5.2c-0.1,0.4-0.1,0.7-0.1,1.1c0,1.7,0.1,3.4,0.1,5
	c0,1.3-0.1,2.7,0.4,4c0.2,0.4,0.1,1,0.1,1.5c-0.2,3-0.4,6-0.5,9c0,1.9,0.2,3.8,0.3,5.8c0,0.2,0,0.3,0.1,0.5c1.4,1.8,1,4.1,1.6,6.1
	c0.2,0.6-0.1,1.4-0.2,2.1c0,0.1-0.4,0.3-0.6,0.3c-1.8,0.2-3.6,0.6-5.4,0.1c-1.2-0.3-2.4,0-3.6,0.4c-2.4,0.7-4.8,1-7.3,0.9
	c-0.2,0-0.3,0-0.5-0.1c-0.7-0.2-1.5-0.4-1.6-1.3s0.6-1.3,1.3-1.6c0.9-0.5,1.8-1,2.7-1.4c1.4-0.7,1.9-2.1,2.6-3.3
	c0.6-0.9,1.6-1.5,1.6-2.7c0-0.7,0-1.3-0.1-2c-0.1-1.4-0.5-2.8-0.5-4.2c0-1.4,0.4-2.8,0.5-4.3c0-0.5,0-1.2-0.2-1.6
	c-1.4-2.5-1.5-5.1-1.2-7.9c0.2-2.2,0.2-4.5,0.3-6.7c0-1.2-0.1-2.5,0-3.7c0.1-1.5-0.2-2.9-0.6-4.3c0-0.2-0.1-0.4-0.1-0.5
	c0-1.5-0.5-2.7-1.8-3.7c-1.3-1.1-2-2.7-1.9-4.5c0.1-1.1,0.2-2.2,0.3-3.3c0-1.1-0.1-2.1-0.2-3.2c1-12.2-0.5-24.1,3.3-35.4
	c1.5-1.5,2.9-3.2,4.8-4.3c0.2-0.1,0.4-0.3,0.6-0.5c0.5-0.5,0.5-0.5,0.1-1.1c0.8-0.3,1.5-0.7,2.4-1.1c-0.5-1.3-0.1-2.9-1.1-4.2
	c-0.2-0.3-0.1-0.7-0.2-1.1c-0.3-0.8-0.7-1.6-0.9-2.4c-0.3-0.8-0.5-1.7-0.7-2.6c-0.2-1-0.2-2-0.3-3c0-0.2,0.1-0.4,0.1-0.6
	c0.1-0.5,0.1-0.9,0.2-1.4c0-0.3,0-0.6,0.2-0.8c1.1-1.2,2.3-2.2,4-2.2c1.2,0,2.3-0.2,3.5-0.2c1.4,0,3.3,1.2,3.9,3.1
	c0.4,1.1,0.1,2.4,0.5,3.4c0.5,1.2-0.2,2.2-0.1,3.4c0,0.3-0.1,0.7-0.4,0.9c-1.1,1.2-0.8,3.7-0.9,5.2c0.8,0.1,1.5,0.1,2.3,0.2
	c-0.2,0.6-0.3,1.1-0.6,1.9c1.4,0.8,2.2,0.6,4.2,1.1c3.6,0,6.6,5.3,7.1,10c2.7,11.7-3.5,22.1-3,33.8c0,1.5-0.2,3-0.3,4.5
	c-0.2,2.5-0.4,5.1-0.1,7.7c0.3,2.9-0.1,5.8-0.6,8.8c-0.2,1.3-0.3,2.7,0.1,3.9c0.8,3,0.8,6.2,0.8,9.2c0.1,4.8-0.2,9.6-0.2,14.4
	c0,1.1,0.4,2.2,0.4,3.2c0.1,1.7,0.1,3.5,0.3,5.2c0,0.6,0.3,1.1,0.4,1.7c0.2,1.1-0.1,1.7-1.1,1.7c-1.7,0.1-3.4,0-5,0
	c-0.8,0-1.1-0.5-1.2-1.3c-0.1-1.7-1-3.1-2.3-4.2c-0.3-0.2-0.5-0.6-0.6-1c-0.4-1.1-0.9-2.1-1.2-3.2c-0.2-0.8,0-1.6,0.1-2.4
	c0.2-2.7,0.5-5.5,0.8-8.2c0.2-1.7,0.2-3.4,1-4.9c0.1-0.2,0.1-0.4,0-0.6c-0.6-2.4-0.9-4.8-1.4-7.2c-0.5-2.8-1.6-5.5-2.4-8.2
	C234.4,1808.1,234.1,1807.1,233.7,1806.1z"/>
<g>
	<path class="st8" d="M487.6,1848.1c0.5-11.4,1.3-26.3,2.3-43.9c3.8-70.6,10.1-188.9,12.3-313.6c2.8-154.5,4.9-614.6,2.5-648.4
		c-6.2-86.4-23.6-153.1-40.5-217.5l-0.8-3.2l9.1-7.3c17,57.9,34.5,117.9,39.8,196.8c0,2.2,0.7,4.3,2.1,5.9c1.4,1.6,3.5,2.5,5.5,2.5
		c2.8,0,5.3-1.7,6.7-4.5L646.8,608l9.2,5.3L530.9,850.4c-1.6,3.5-2.3,7.2-2.3,10.9c0.1,17-0.1,66.8-0.6,147.1v5.5l2.8-4.5
		c70.5-111.3,132.8-222.7,185.7-268.3l0.8-0.7l-0.3-1.1c-8.3-33.7,9-107.1,25.6-161.1h4.7c-13.7,54.9-26,118.2-20.7,150.8l0.4,2.3
		l1.9-1.1c43.8-25.8,89.2-35.5,132.9-93.6l2.6,5c-53.9,68.9-98.9,79.6-143.2,107.2c-60.5,62.1-125,180.8-193,291.7l-0.3,0.4
		l-0.1,15.6c-1.4,272.3-3.8,726.2,0.2,791.6L487.6,1848.1L487.6,1848.1z"/>
	<path class="st8" d="M443.9,1848.1c0.4-15.1,3.4-123.5,7.3-200.5c1.3-26.3,4.7-66.4,8.3-108.9c8.2-96.8,17.5-206.5,10.2-233.8
		c-7.9-29.5-51.3-150.7-74.1-170.6l5.8-2.3c29.1,44.9,54,101.4,74.1,167.8l1.5,5l1.8-5c19.2-54.4,30-112.4,32.1-172.2l6.3,1.2
		c-2.8,67.5-12.4,130.4-28.7,187c-0.2,3.1-13.4,269.8-15.2,332.6c-1.7,59-3.6,183.7-3.8,199.8L443.9,1848.1L443.9,1848.1z"/>
	<path class="st9" d="M473.8,1181.8c-5.5-2.9-8.7-10.6-15.4-8.9c-4.4-0.1-8.9-1.1-9.3,4.5c-5.9,9.4-9.4,2.9-16.3,16.3
		c-3.6,0.4-11.8,1.9-15.4,1.4c-3.3,11.8-17.7,3.2-21.4-4.5c-5-0.9-10.6,3.3-14.6,5.8c-0.1,3.4-4.5,7-7.2,8.6
		c-6.5,4.2-11.8-1.2-15.9-6c-0.3-3-1.9-8.9-3.7-11.3c1.8-7.4,5.9-17.8,10.5-23.9c5.2-0.2,4.4-4.1,4.3-7.6c-2.7-2-6.7-8-6.2-11.9
		c4.2-10.7-9.4-16.4,0-32.3c-0.3-9.2,2.9-15.9,12.8-17.5c14.6-12.7,13.8-3,20.8-22c-1.5-5.9-6.4-14.2,1.4-17.3
		c-1.5-11.9,10-8.5,17.9-8.9c-4,13.6,6.3,4,14,4.4c3.1-11.4,11-13.7,18.1-21.7c7.3-15.4,15.3-5.6,17.1,6.4c1.8,3.1,11.4,6.2,15.7,6
		c5.9-4.7,13.9-8.7,19.6-12.4c2.4-4,0.5-7.9,7.6-7.8c4.3,1.2,2.5-2.3,4.3,1.2c-0.9,6.7,17.1,5.7,17.9,6c5.8-2.5-5-3.1,4.6-3.2
		c7.9-1,7.5,1,10.6,3.2l3.2,0.9c4.2,2.4,18.4,9.1,17.9,15.6c-8-1,4.7,14.1,5.1,14c0.5,5.6-5.2,10.6,0,15.6c0,0-7.2,0,2.9,2.1
		c10.1,2.1,4.7,0.3,4.7,0.3c4.7,1.7,10.8,2.3,13.6,7.1c2.8-0.8,6.3-2,7.4,1.7c2.4,3.8,3.3,0.6,5.8,7.2c0,0,2.3,1.6-1.2,6.8
		c-6.6,9.9-5.2,3.5-5.2,3.5s-9.9-7.8-1.6,5.1c8.4,12.8-6.6-4.3,2.5,6.8s2.9,4.1,2.9,4.1c14.6,11.5,6.2,7,6.2,7
		c6.3,1.5,13.5,10.7,16.5,15.9c-0.2,7.8,0.1,20.8-6.8,25.9c-2-0.3-12.1-2.1-13.8-2.3c-18.7,7.5-3.6-0.2-16.1,5.2
		c-6,3.9,0.8,3.3-6,3.9s-4.1,1.7-6.8,0.6c-2.7-1.2,6.8-0.6-2.7-1.2c-13.2-0.7-6.5-0.8-12.6-0.2c-1.9,3-6.3,9-8.7,11.5
		c3.9,6.6,8.6,15.2-3.9,18.3c-6,0.6-1-2.7-6,0.6c-5.1,3.3-5.1,3.3-5.1,3.3s6,1-5.4-1.7c-11.5-2.7-5.1-2.5-5.1-2.5l-6.4-0.2
		c0,0-5.6,9.7-6.2-0.8c-0.6-10.5-0.4-4.3-0.4-4.3c5.6-5.7-7.5-9.9-6-16.1c0,0,5.6-0.4,0-3.4c-5.6-3-5.6-3-5.6-3
		c-0.6-3.4-5.7-5.9-8.6-7c0,0,0.4-2.5-4.5,1.9c-4.9,4.5,1.4,3.5-4.9,4.5C474.8,1176.3,478.3,1176.4,473.8,1181.8z"/>
	<path class="st8" d="M335.1,1848.1C390,1676,374.5,911.9,379.7,766.8c-7.4-93.7-134.1-227.9-175.1-269.1l8.5-7
		c11,5.5,96.1,110.8,164.5,200.7c3.8,0,7.9-2.9,8-7.8l0.9-40.4c-13.1-32.5-113.4-205.7-124.7-229.9l11.9-4.6
		c164.6,314.2,105.7,205.2,127.7-50.4l5.8-1.3c2.3,5.9-7.4,316.5-0.5,320.7c3.8,4,11.1,3.1,13.6-2l34.3-65.8l4.4,27.6
		c-1.9,4.9-51.7,100.1-47.8,102.5c-2.1,279.3-14.3,1015.8,4.5,1108L335.1,1848.1L335.1,1848.1z"/>
	<path class="st9" d="M683.4,309.1c-16.2-33.9,38.1-49.2-10.7-73c-3.4,0.2-7.6-10.9-8.6-11.3c-5.2-9.8-13.9,7.1-16.7-12.8
		c-5.3-13.9-9.4-18.8-3.1-34.6c-1.3-7.3-0.2-8.7-10.5-12.9c-5.1-1.9,4.7-6.2-7-2.3c-13.5,5.7-23.2,6.8-25.7-7.8
		c0.2-15.5,1.2-12.2-6.6-19c0,0-4.7,1.6-8.6-2.7c-9.2-6.2-15-1.3-23-3c-3.1-5.7-5.3-18.6-14.8-18c-7.3,0.6-7.3-8.6-7-12.8
		c-2.1-4.3-8.7-9.1-13.2-10.5c-7.4-10.6-21.8,0.9-30,5.4c-17.4,6.8,9.9,31.9-25.7,24.5c-2.7-3.9-3.9-2.7-5.4-8.6
		c10.8-22.8-27.3-9.2-31.5-16.7c-6.5-15.5-15.5-9.7-31.5-10.1c-4.7,0.8-9.3,5.8-12.1-1.9c-3.9-12.7-3.3-6.6-10.9-11.6
		c-6.7,1.8-15.6-5.5-19.1,7.7c-0.4,9.3-6.2,5.1-12.1,7.8c-11.7,12.4-2.5,15.5-21.5,25.3c-9.9,1.4-33.2,7.2-38,12.1
		c-19.5-4.7-8.3,16.6-5.4,19.9c-5.2,0.8-35.2,9.4-40.5,12.4c0,0,3.9,7.1,0,9c-14.4,6.7-7.6-5.7-25.3,3.9c-9.3,7-5.8-8.6-9.3,7
		s-3.5,15.6-3.5,15.6c12.7,27.4-15.3,9.4-17.9,17.9c-14.3,35.1-43.4,10.5-21.4,60c-2,4.7-17.5,7-18.7,12.8
		c-6.1,14-5.1,30.1,3.5,40.1c-21.5,29.5-38.3,12-34.3,58c-9.4,1.8-3.7,28.1-6.7,30.8c-8.4,1.9-21,3-29.5-2.7
		c-2.2,4.8-12.1,22.9-8.6,30.8c16.7,23.6,16.8,24.5,5.8,50.6l-8.2,2.7l-4.7,9.3c-1,19.7,35.9,31.3,49.1,38.5
		c29.8,5.5,21.4-9.3,33.5-5.8c6.6,2.7,19.9,6.5,19.9,6.5c1.1,15.9-1,14.6,16.4,14.1c30.9-5.9,2.1-40.1,18-37.8c21,8,12.7,9.6,20.4-9
		c12.8-17.3,20.2-2.6,34.4-34.6c9.9-4.5,17.4-5.2,18.7-17.9c0,0-18.7,6.4-12.5-8.6s10.5-15.2,10.5-15.2c18.8-7.1,22.4-13.8,45.6-6.6
		c4.4,14.1,8.9-18.4,10.9-20.2c4.7-12.5,2.4-7.4,2.4-7.4c11.5-6.9,8-22.3,36.9-10.1c19.9,11.7-0.5-12.1,14,3.9s5.8,7.8,5.8,7.8
		s22.2,85.3,24.9,86.4c10-6.9,13.5,17.2,22.6,5.4c7.3-12.5,18.2,1.6,24.1,3.1c0,0,44-12.8,54.1-22.6
		C544.9,435.3,734.6,354.8,683.4,309.1z"/>
	<path class="st9" d="M523.9,629.9c7.8,3.1,7.9,0.9,7.7-2.1c-0.2-3.2-0.7-7.2,8.2-6.4c17,1.5,10.7,9.5,22.9,10
		c19.6,3.6,43-28,60.1-20.7c4.6,5.9,35.1,0.8,40.4,2c5.9,1.7,14.2,20.9,25.1,20.3s39.9-8.9,43.8-21.8c8.5-21.9,9.2-24.6,31.2-21.4
		c27.5,1.8,9.7,25.2,22.7,40.6c15.3,23.1,37.3,28.8,65,30.7c12,2.8,37.9,23.6,42.1,17.2c19.2-8.9,45.2-43.5,37.5-69.3
		c-58.4-71.5,58.8-75-16.4-135.2c-6.3-1.5-20.5-2-22.2-8.3s-22.9,4.3-15.9-10.3c7-14.6-16.4-27.3-30.3-27.9
		c-14-0.7-13.7-30.5-23.1-39c-33.4-35.6-32.6-23.5-68.2-18.3c-22.1-11.3-24.4-77.5-57.6-48c-11.6,50-39.2-14-58.4,30.3
		c1,39.8-27.2,16.4-48,29.6c-2.3,12.7-24.7,3.8-29.6,9.4c-4.1,4.6,0,7-6.3,9.2c-9.8,7.7-17.8-1.2-25.3-4.8
		c-9.3-1.3-16.8-8.1-27.3-4.8c-16.1,5.4-9.2,22.4-15.7,30.3c-19.8,2.1-31-11.5-37.1,15.5c0,0,8.3,9.8,4.1,14.8
		c-9.3,17.6-17.6,5.4-31.8,8.9c-8.6,9.2-1.8,26.3-3.5,36c-8.6,9.8-21.8,17.2-24.6,32.3c-0.7,5.4,3.9,5.2-5,8.3
		c-26.4,1.4-46.1,17.2-54.7,41c-2.4,16.1,5.4,15.9,10.2,34.4c7.9,10.4-4.9,41.1,7.8,45.3c15.3,18.2,20.2-17.3,25.1-22.5
		c10.7-10.7,7.7-14.8,18.3-13.2c31.5,7,49.2,30.3,59,57.3c5.1,11.3,28.5-0.6,30.3-4.9c0,0-1.3-19-1.5-24.6
		c-0.1-21,25-10.6,31.6-25.1C513.7,609.4,524.5,629.3,523.9,629.9z"/>
</g>
<g>
	<g>
		<line class="st10" x1="232.6" y1="1070.3" x2="232.6" y2="601.4"/>
		<g>
			<polygon class="st11" points="248.3,605.9 232.6,578.8 216.9,605.9 			"/>
		</g>
	</g>
</g>
<g>
	<g>
		<line class="st10" x1="232.6" y1="1222.8" x2="232.6" y2="1680.6"/>
		<g>
			<polygon class="st11" points="216.9,1676 232.6,1703.1 248.3,1676 			"/>
		</g>
	</g>
</g>
<g>
	<text transform="matrix(0.9972 0 0 1 133.373 1158.7539)" class="st1 st5 st6"> 30 a 40 m</text>
</g>
<g>
	<circle class="st12" cx="706.6" cy="656.8" r="171.5"/>
	<g>
		<g>
			<path class="st13" d="M620.4,681.1c-10.7,4.2,3.3,58.2,9.7,41.1c2.3,5,15.2,19.2,12.2,5.6c0.7,1.6,22.6,15.3,19.1,4.9
				c11.7,2.4,29.7,5.7,41.8,2.4c22.1,4.3,40.6,0.7,59.4-2.4c-1.1,1.3-1.8,4.1,0.7,4c8-1.1,14.6-5.6,18.4-8.8
				c-3.1,13.7,9.9-0.5,12.2-5.5c3.1,16.2,15.6-22.5,12.8-20.7c2.2-7.3,1-14.8-3.2-20.7c-4.5-6.2-11.8-10-20.3-10.7
				c6.8-3.7,3.9-22.6,3.4-28.3c8.1-34.6-14.7-57.9-30.1-74.7c-6.9-11-10.6-25.2-22.8-28.5c2.6-8.8-22.6-5.4-21.7-4.7
				c-11.7-5.3-32.4,4.9-38,21.4c-19.9,28.4-45.3,63.5-34,112.2C642.4,672.7,622.6,672.5,620.4,681.1z"/>
			<path class="st14" d="M619.4,681.8c-4.3,6-5.5,13.7-3.1,21.1c0.3,3.5,2,18.7,10.6,24.6c0.5,0.4,1.2,0.4,1.7,0.1
				c0.5-0.3,0.9-0.9,0.8-1.5l-0.2-2.6c2.6,4.2,6.4,9.2,10.5,11.7c0.5,0.3,1.2,0.3,1.7-0.1c0.5-0.3,0.8-1,0.7-1.6l-0.7-4.4
				c3.8,3.3,10.5,7.8,18.6,8.9c0.1,0,0.1,0,0.2,0c0.5,0,1-0.3,1.3-0.7c0.3-0.5,0.4-1.2,0.1-1.7l-0.9-1.6c11,2.5,23.6,3.9,37.5,4
				c0.9,0,1.6-0.7,1.6-1.6c0-0.1,0-0.3-0.1-0.4c0.9,0.2,1.9,0.4,3.1,0.4c1.4,1,3.2,1.6,5.2,1.6c8.8,0,14.5,0,14.5,0
				c0.8,0,1.4-0.1,2-0.1c0.2,0.1,0.4,0.1,0.7,0.1c14-0.1,26.6-1.5,37.6-4l-0.9,1.6c-0.3,0.5-0.3,1.2,0.1,1.7
				c0.3,0.4,0.8,0.7,1.3,0.7c0.1,0,0.1,0,0.2,0c8.1-1.1,14.8-5.6,18.6-8.9l-0.7,4.4c-0.1,0.6,0.2,1.2,0.7,1.6
				c0.5,0.4,1.2,0.4,1.7,0.1c4.2-2.4,8-7.5,10.5-11.7l-0.2,2.6c0,0.6,0.3,1.2,0.8,1.5s1.2,0.3,1.7-0.1c9.1-6.2,10.5-23,10.6-25
				c2.2-7.3,1-14.9-3.3-20.9c-4.5-6.3-11.9-10.1-20.5-10.8c0-0.7,0-1.3,0-1.9l0.9,0.5c0.5,0.3,1,0.3,1.5,0c0.5-0.2,0.8-0.7,0.9-1.2
				c1.6-10.7,1-20,0.1-26.1c0.4,0.5,1.1,0.6,1.7,0.4c0.7-0.2,1.1-0.8,1.1-1.5c0.4-28.3-12.6-48.6-13.6-50
				c-4.7-8.9-11.3-17.1-19.7-24.4c-2.5-4.8-5.4-8.6-7.9-11.3c0.5,0,0.9-0.2,1.3-0.6c0.4-0.5,0.5-1.2,0.2-1.8
				c-5-8.9-11.5-13.1-16.6-15.1c0.6-0.2,1-0.6,1.1-1.2c0.1-0.7-0.2-1.4-0.8-1.8c-9.8-5.1-19.8-2.5-22.2-1.7
				c-2.5-0.8-12.4-3.4-22.2,1.7c-0.6,0.3-1,1-0.8,1.8c0.1,0.6,0.6,1.1,1.1,1.2c-5.1,2-11.6,6.2-16.6,15.1c-0.3,0.6-0.3,1.3,0.2,1.8
				c0.3,0.4,0.8,0.6,1.3,0.6c-2.6,2.8-5.7,6.8-8.2,12c-6.6,6.5-12.3,14.6-16.9,24c-1.6,2.6-13.8,22.7-13.4,49.7
				c0,0.7,0.5,1.3,1.1,1.5c0.4,0.1,0.7,0.1,1.1,0c0.1,0.9,0.1,2,0.2,3c-0.8,7.6-0.6,15.3,0.5,22.6c0.1,0.5,0.4,1,0.9,1.2
				c0.2,0.1,0.4,0.1,0.6,0.2c0.1,0.4,0.2,0.8,0.2,1.2C631.8,671.4,624,675.3,619.4,681.8z M801.8,683.5c3.8,5.3,4.7,11.7,2.7,18.3
				c-0.1,0.2-0.1,0.3-0.1,0.5c-0.1,1.3-1.1,13.2-6.4,19.9l0.4-5.8c0.1-0.8-0.5-1.5-1.2-1.7c-0.8-0.2-1.6,0.2-1.9,0.9
				c-0.1,0.1-4.3,9.2-9.8,14.4l0.8-5.1c0.1-0.7-0.3-1.4-0.9-1.7c-0.7-0.3-1.4-0.1-1.9,0.4c-0.1,0.1-7,7.9-16.8,10.6l1-1.8
				c0.1-0.2,0.2-0.5,0.2-0.8c0-0.5-0.2-1-0.6-1.3c-0.4-0.3-0.9-0.4-1.4-0.3c-10.5,2.8-22.6,4.3-36.2,4.7c0.6-0.9,1-2,1.4-3
				c0.9-2.3,1.9-4.8,4.7-7.4c0.5-0.5,1.2-1,1.9-1.7c1.6,9.2,2.4,9.2,3.7,9.2c0.6,0,1.6-0.3,1.9-2.1c0.3-2.3,3.4-8.2,5.8-12.5
				l1.6,7.7c0.1,0.7,0.8,1.3,1.5,1.3s1.4-0.4,1.6-1.1c2.3-7.4,5.1-14.2,7.1-18.9c-0.4,3.8-1.6,6.8-1.6,6.8c-0.3,0.7,0,1.6,0.7,2
				s1.6,0.3,2.1-0.4c4.8-5.9,8.2-11.7,10.5-16.5l-0.1,1.2c-0.1,0.7,0.3,1.4,1,1.6c0.6,0.3,1.4,0.1,1.9-0.4
				c6.6-7.3,8.3-18.8,8.6-26.5C791.4,674.7,797.9,678,801.8,683.5z M682.2,552.9c0.7-0.5,0.9-1.3,0.5-2.1c-0.4-0.7-1.2-1.1-2-0.8
				l-2.2,0.7c8.3-11.4,19.2-11.4,19.7-11.4c0.8,0,1.5-0.5,1.6-1.3s-0.3-1.6-1-1.8c-0.6-0.2-1.3-0.4-2-0.6c7.7-1.7,14.4,0.7,14.5,0.7
				h0.1c0.1,0,0.1,0,0.2,0c0.1,0,0.1,0,0.1,0c0.1,0,0.1,0,0.2,0s0.1,0,0.2,0c0.1,0,0.1,0,0.1,0c0.1,0,0.1,0,0.2,0h0.1
				c0.1,0,6.8-2.5,14.5-0.7c-0.7,0.2-1.4,0.4-2,0.6c-0.7,0.3-1.2,1-1,1.8c0.1,0.8,0.8,1.3,1.6,1.3c0.1,0,11.3-0.1,19.7,11.4
				l-2.2-0.7c-0.8-0.3-1.6,0.1-2,0.8s-0.1,1.6,0.5,2.1c0.1,0.1,9.6,6.8,14.6,20l-4.4-2c-0.7-0.3-1.5-0.1-1.9,0.4
				c-0.5,0.6-0.5,1.4-0.1,2c0.2,0.3,5,7.3,1.2,16.6c-0.2,0.4-0.2,0.8,0,1.2c0.1,0.2,5.6,14.5-0.8,28.2v-4.4c0-0.8-0.6-1.5-1.5-1.6
				c-0.8-0.1-1.6,0.5-1.8,1.3c0,0.1-2.1,10.5-11.4,19.3l0.6-8.5c0.1-0.8-0.5-1.6-1.3-1.7c-0.8-0.1-1.6,0.4-1.8,1.2
				c0,0.1-2,7.7-7.8,9.9c-6.4,2.4-11,7.5-13.2,10.4c-2.2-2.8-6.8-8-13.2-10.4c-5.8-2.2-7.8-9.8-7.8-9.9c-0.2-0.8-1-1.3-1.8-1.2
				s-1.4,0.9-1.4,1.7l0.6,8.5c-9.3-8.7-11.4-19.2-11.4-19.3c-0.2-0.8-0.9-1.4-1.8-1.3c-0.8,0.1-1.5,0.8-1.5,1.6v4.4
				c-6.4-13.6-0.8-28-0.8-28.2c0.2-0.5,0.1-1-0.1-1.4c-4.9-8.5,1-16,1.2-16.3c0.5-0.6,0.5-1.4,0-2s-1.3-0.8-2-0.5l-4.4,2
				C672.6,559.8,682.1,553,682.2,552.9z M640.3,636.7c-0.3-0.1-0.6-0.1-0.8,0c0.9-24.1,11.6-41.5,12.9-43.6c0-0.1,0.1-0.1,0.1-0.2
				c3.1-6.4,6.7-12.1,10.8-17.1c0,0.5,0.2,1,0.5,1.3c0.5,0.4,1.2,0.5,1.7,0.3l3.4-1.5c-1.4,3.6-2.4,8.9,0.7,14.8
				c-1.3,3.8-6.3,20.8,4.4,35.5c0.4,0.6,1.2,0.8,1.8,0.6c0.7-0.2,1.1-0.8,1.1-1.6V624c2.3,4.5,6.1,10.1,12.3,14.9
				c0.5,0.4,1.2,0.4,1.8,0.1c0.6-0.3,0.9-0.9,0.9-1.6l-0.3-4.3c1.5,1.9,3.4,3.6,6,4.6c7.9,3,12.9,10.9,12.9,11l0,0
				c0.1,0.1,0.1,0.2,0.2,0.3l0,0c0.1,0.1,0.2,0.1,0.2,0.2l0,0c0.1,0.1,0.2,0.1,0.3,0.1h0.1c0.1,0,0.3,0.1,0.4,0.1c0.1,0,0.1,0,0.1,0
				c0.1,0,0.2,0,0.3,0s0.1,0,0.1-0.1c0.1,0,0.2-0.1,0.3-0.1l0,0c0.2-0.1,0.4-0.3,0.5-0.5l0,0c0-0.1,5-8,12.9-11c2.6-1,4.6-2.7,6-4.6
				l-0.3,4.3c0,0.6,0.3,1.3,0.9,1.6c0.6,0.3,1.3,0.2,1.8-0.1c6.2-4.8,10-10.4,12.3-14.9v1.2c0,0.7,0.5,1.3,1.1,1.6
				c0.7,0.2,1.4,0,1.8-0.6c10.8-14.9,5.6-32.1,4.3-35.6c2.3-6.1,1.5-11.4,0.3-14.8l3.8,1.7c0.6,0.3,1.3,0.2,1.7-0.3
				c0.5-0.4,0.7-1.1,0.5-1.7c-0.1-0.5-0.3-0.9-0.4-1.4c5.6,5.7,10.3,12,13.8,18.6c0,0.1,0.1,0.1,0.1,0.2c0.7,1.1,11.8,18.6,13,43
				l-1.2-1.7c-0.5-0.6-1.3-0.9-2-0.5c-0.7,0.3-1.1,1.2-0.9,1.9c0,0.1,3.7,13.1,1.6,29.9l-1.4-0.8c-0.5-0.3-1.2-0.3-1.7,0.1
				c-0.5,0.3-0.8,0.9-0.7,1.5c0,0.2,1.4,15.9-4.2,27l0.7-7c0.1-0.8-0.5-1.6-1.3-1.8c-0.9-0.1-1.7,0.4-1.9,1.2
				c0,0.1-2.3,9.5-9.7,20.6c0.2-2.3,0.1-4.8-0.5-7.3c-0.2-0.7-0.7-1.2-1.4-1.2c-0.7-0.1-1.3,0.3-1.6,0.9c0,0.1-4.1,8.8-8,19.7
				l-1.2-6.1c-0.1-0.7-0.7-1.2-1.3-1.3c-0.7-0.1-1.3,0.2-1.7,0.8c-0.6,1-4.7,8-6.9,13.2c-0.4-1.8-0.7-3.9-1-5.8
				c-0.1-0.6-0.5-1.1-1-1.3c-0.6-0.2-1.2-0.1-1.6,0.3c-1.8,1.5-3.1,2.7-4.1,3.6c-3.4,3.1-4.6,6.1-5.5,8.6c-1.2,3-1.7,4.3-5.3,4.3
				c0,0-5.7,0-14.5,0c-0.9,0-2.3-0.2-3.4-1.1c0,0-0.1,0-0.1-0.1c-0.4-0.3-0.7-0.7-0.9-1.2c-1-1.9-2.1-8.1,8.9-22.9
				c2.8-3.7,7.9-9.4,13-14.8c7.3-8,13.6-14.8,14.9-18.1c9.3-23.6,19-57.3,19.1-57.7c0.3-0.9-0.2-1.8-1.1-2c-0.9-0.3-1.8,0.2-2,1.1
				c-0.1,0.3-6,20.8-13,40.9c-14.2,8.1-23.6-1.8-24-2.2c-0.6-0.7-1.6-0.7-2.3-0.1c-0.7,0.6-0.7,1.6-0.1,2.3c0.1,0.1,6,6.5,15.5,6.5
				c2.8,0,5.9-0.6,9.3-2c-1.5,4.1-3,8.2-4.5,12c-1.1,2.7-8.1,10.4-14.3,17.1c-4.1,4.5-8.4,9.1-11.3,12.7c-3-3.7-7.4-8.5-11.7-13.2
				c-6-6.5-12.9-13.9-13.9-16.6c-1.5-3.8-3-7.9-4.4-12c3.4,1.4,6.5,2,9.3,2c9.5,0,15.5-6.4,15.6-6.5c0.6-0.7,0.6-1.7-0.1-2.3
				c-0.7-0.6-1.7-0.6-2.3,0.1c-0.1,0.1-9.7,10.3-23.9,2.3c-6.7-20.1-12-40.5-12.1-40.8c-0.2-0.9-1.1-1.4-2-1.2s-1.4,1.1-1.2,2
				c0.1,0.3,8.8,33.9,18.1,57.5c1.3,3.3,7.4,9.9,14.6,17.6c4.5,4.9,9.2,10,12.1,13.6c-9.9,13.5-10.8,20.9-9.4,25
				c-2-0.7-3-2.1-4.6-4.3c-1.3-1.8-2.9-4.1-5.7-6.6c-0.6-0.5-1.2-1.1-1.9-1.7c-0.5-0.4-1.1-0.5-1.6-0.3c-0.6,0.2-1,0.7-1.1,1.3
				c-0.3,1.5-0.5,2.8-0.7,3.9c-2.2-5.2-6.3-12.2-6.9-13.2c-0.3-0.6-1-0.9-1.7-0.8c-0.7,0.1-1.2,0.6-1.3,1.3l-1.2,6.1
				c-2.4-6.7-4.8-12.6-6.3-15.9c-0.1-0.2-0.2-0.4-0.4-0.6c-0.7-0.6-1.3-1.2-2-1.8c-0.4-0.4-1.1-0.5-1.6-0.3c-0.6,0.2-1,0.7-1,1.3
				c-0.2,1.8-0.2,3.6-0.1,5.2c-4.2-6.3-6.7-12-8.3-16.1c-0.1-0.2-0.2-0.4-0.4-0.6l-0.8-0.8c0-0.1-0.1-0.1-0.1-0.1l-0.2-0.2
				c-0.5-0.5-1.2-0.6-1.9-0.3c-0.6,0.3-1,1-0.9,1.6l0.3,3.5c-2.5-5-3.6-10.9-4-15.6c0-0.1,0-0.3-0.1-0.4c-0.5-1.6-1-3.2-1.4-5
				c0-0.2-0.1-0.4-0.1-0.6c-0.3-1.4-0.6-3-0.9-4.6c-0.1-0.5-0.4-1-0.9-1.2c-0.2-0.1-0.4-0.1-0.6-0.2c-0.8-6.5-0.9-13.2-0.2-19.9
				c0-0.1,0-0.2,0-0.3c-0.1-1.2-0.1-2.2-0.2-3.2c-0.1-1.3-0.2-2.6-0.2-4.1C641.5,637.5,641,636.9,640.3,636.7z M641.6,674
				c0.4,1.4,0.8,2.8,1.2,4.1c0.7,6.8,2.7,16.2,8.3,22.4c0.5,0.5,1.2,0.7,1.9,0.4c0.6-0.3,1-0.9,0.9-1.6l-0.1-1.3
				c2.4,4.9,5.7,10.6,10.5,16.5c0.5,0.6,1.4,0.8,2.1,0.4c0.7-0.4,1-1.3,0.7-2c0,0-1.2-3-1.6-6.8c1.9,4.5,4.7,11.5,7,18.9
				c0.2,0.7,0.9,1.2,1.6,1.1c0.7,0,1.4-0.6,1.5-1.3l1.6-7.7c2.4,4.3,5.5,10.3,5.8,12.5c0.3,1.8,1.2,2.1,1.9,2.1c1.4,0,2-0.4,3.3-7.3
				c2.3,2.1,3.7,4.1,4.9,5.8s2.3,3.3,3.9,4.4c-14.7-0.2-27.9-1.8-39.1-4.8c-0.6-0.2-1.3,0.1-1.7,0.6s-0.5,1.2-0.1,1.8l1,1.8
				c-9.5-2.6-16.4-10.2-16.8-10.5c-0.1-0.1-0.3-0.3-0.5-0.4c-0.5-0.3-1.2-0.2-1.7,0.1s-0.7,1-0.7,1.6l0.8,5.1
				c-4.1-4-7.9-10.5-9.7-14.3c-0.1-0.2-0.2-0.3-0.3-0.5l-0.1-0.1c-0.5-0.5-1.2-0.6-1.8-0.3s-1,0.9-0.9,1.6l0.4,5.7
				c-5.2-6.5-6.2-18.2-6.4-19.7c0-0.1,0-0.3-0.1-0.4c-2.1-6.5-1.2-13,2.6-18.3C626.2,677.9,633.3,674.4,641.6,674"/>
			<g>
				<g>
					<path class="st14" d="M727.1,612.6l-0.8-1.9c14.1-7,24-15.7,26.8-25.4c3.8-13.3-4-26.1-8.2-33c-1.4-2.3-2.4-4-2.7-5.1
						c-9.5-19.2-28.2-13.5-29-13.2l-0.3,0.1l-0.3-0.1c-0.8-0.3-19.1-6-31.2,12.5c-22.6,35.9-7.1,46.4,3.2,53.3
						c3.5,2.4,6.3,4.3,7.1,6.7L690,607c-0.6-1.9-3.2-3.7-6.4-5.8c-10.2-6.9-27.3-18.4-3.7-55.8c12.1-18.4,30.5-14,33-13.3
						c2.5-0.7,21.3-5.1,30.9,14.4c0.3,1,1.3,2.7,2.6,4.7c4.3,7.1,12.4,20.4,8.4,34.4C751.8,596,741.6,605.3,727.1,612.6z"/>
					<path class="st14" d="M710.4,616.6c-10.7-0.4-18.1-3.8-20.6-9.5c-5.6-13.1,14.4-35,15.3-36l1.3,1.2c-0.2,0.2-19.4,22-14.2,34.1
						c2.1,5,8.3,7.7,18.3,8.1c5.2,0.6,14.7-0.7,18.2-6.9c3.9-7-0.4-18.6-12.4-33.7l1.4-1.1c12.7,15.9,16.9,28,12.6,35.7
						C727,614.5,721.1,617,710.4,616.6z"/>
					<path class="st14" d="M691.5,596c-3.1-1.5-5.5-4.2-6.8-7.5c-1.2-3.3-1.6-6.8-1.5-10.2s0.5-6.9,1.4-10.2c1-3.3,2.1-6.5,3.9-9.5
						l0.2,0.1c-0.8,3.3-1.7,6.6-2.3,9.8c-0.7,3.3-1.5,6.5-1.7,9.8c-0.3,3.3-0.1,6.7,0.9,9.8c0.9,3.2,3.1,6,6,7.6L691.5,596z"/>
					<path class="st14" d="M733.2,557c1.4,3.2,2.4,6.6,3.2,10c0.7,3.4,1.3,6.9,1.3,10.5c0,3.5-0.2,7.1-1.4,10.6
						c-1.3,3.3-3.4,6.4-6.1,8.6l-0.1-0.1c2-2.9,3.6-5.8,4.6-9.1c0.9-3.2,1.5-6.6,1.7-10c0.1-3.4-0.2-6.9-0.8-10.3
						c-0.6-3.4-1.4-6.8-2.5-10.1L733.2,557z"/>
					<path class="st14" d="M703.3,565.2c-0.4,0-0.8-0.1-1.1-0.2l0.7-1.6c0.5,0.2,1.7-0.1,2.9-0.4c-0.9-0.9-1.7-1.3-2.6-1.2
						c-1.6,0.1-2.9,2.1-3.3,2.8l-1.6-0.8c0.1-0.1,1.9-3.5,4.8-3.8c1.7-0.1,3.4,0.8,4.9,2.9l0.7,0.9l-1.1,0.4
						C707.1,564.3,705,565.2,703.3,565.2z"/>
					<path class="st14" d="M718.6,567.1c-0.4,0-0.8-0.1-1.1-0.2l0.7-1.6c0.5,0.2,1.7-0.1,2.9-0.4c-0.9-0.9-1.7-1.3-2.6-1.2
						c-1.6,0.1-2.9,2.1-3.3,2.8l-1.6-0.8c0.1-0.1,1.9-3.5,4.8-3.8c1.7-0.1,3.4,0.8,4.9,2.9l0.7,0.9l-1,0.3
						C722.5,566.2,720.3,567.1,718.6,567.1z"/>
					<path class="st14" d="M712.9,599.6c-8.5,0-16.1-2.7-16.5-2.9l0.6-1.7c0.2,0.1,15.8,5.6,27.1,0.7l0.7,1.6
						C721,599.1,716.8,599.6,712.9,599.6z"/>
					<path class="st14" d="M710.2,604.9c-7.8-0.8-13.7-8.1-13.8-8.1l0.6-1.7c4,5.9,17.4,14.4,27.1,0.7l0.7,1.6
						C721.4,601.9,718.1,605.3,710.2,604.9z"/>
					<path class="st14" d="M710.7,582.6c-2.3,0-4.2-2.4-4.3-2.5l1.4-1.1c0.4,0.5,1.8,1.9,3,1.8c0.8-0.1,1.6-0.8,2.3-2.2l1.6,0.8
						c-1,2-2.2,3-3.7,3.2C711,582.6,710.9,582.6,710.7,582.6z"/>
					<path class="st14" d="M720.3,567.2c-0.2,0-0.4,0-0.5,0c-1.4-0.3-2.4-1.5-2.1-2.8c0.1-0.6,0.4-1.1,0.9-1.4
						c0.6-0.4,1.3-0.5,2-0.4c1.4,0.3,2.4,1.5,2.1,2.8l0,0c-0.1,0.6-0.4,1.1-0.9,1.4C721.4,567,720.9,567.2,720.3,567.2z
						 M720.1,564.3c-0.2,0-0.4,0-0.5,0.1c-0.1,0-0.2,0.1-0.2,0.3c0,0.3,0.2,0.6,0.7,0.7c0.3,0.1,0.5,0,0.7-0.1
						c0.1,0,0.2-0.1,0.2-0.3l0,0c0-0.3-0.2-0.6-0.7-0.7C720.3,564.3,720.2,564.3,720.1,564.3z"/>
					<path class="st14" d="M704.6,565.4c-0.2,0-0.4,0-0.5,0c-1.4-0.3-2.4-1.5-2.1-2.8c0.1-0.6,0.4-1.1,0.9-1.4
						c0.6-0.4,1.3-0.5,2-0.4c1.4,0.3,2.4,1.5,2.1,2.8l0,0c-0.1,0.6-0.4,1.1-0.9,1.4C705.6,565.2,705.1,565.4,704.6,565.4z
						 M704.4,562.5c-0.2,0-0.4,0-0.5,0.1s-0.2,0.1-0.2,0.3c0,0.3,0.2,0.6,0.7,0.7c0.3,0.1,0.5,0,0.7-0.1c0.1-0.1,0.2-0.1,0.2-0.3
						l0,0c0-0.3-0.2-0.6-0.7-0.7C704.5,562.5,704.4,562.5,704.4,562.5z"/>
					<path class="st15" d="M711.5,556.3c-0.2,0-0.5,0-0.7,0c-4.6-0.4-7.1-5.1-7.2-5.3l1.6-0.8c0,0,2.2,4,5.8,4.3
						c2.7,0.3,5.6-1.5,8.6-5.2l1.4,1.1C717.8,554.4,714.6,556.3,711.5,556.3z"/>
					<path class="st14" d="M726.1,576.9c-4.3,0-9.7-4.8-10.5-5.5l1.2-1.3c2,1.8,8.4,6.6,10.9,4.5l1.2,1.4
						C728.1,576.6,727.1,576.9,726.1,576.9z"/>
					<path class="st14" d="M694.6,574.6c-1.5,0-2.8-0.4-3.7-1.5l1.4-1.1c2.1,2.5,9.2-1.1,11.5-2.5l1,1.5
						C703.9,571.4,698.7,574.6,694.6,574.6z"/>
					<path class="st14" d="M716.1,582l-1.6-0.7c0.4-1.1,0.4-3.3-0.2-3.7c-0.1,0-0.4,0-0.9,0.5l-1.2-1.4c1.6-1.4,2.6-0.9,3.1-0.6
						C716.9,577.2,716.7,580.6,716.1,582z"/>
					<path class="st14" d="M704.7,581.5c-0.3-1.5,0-4.8,1.7-5.6c0.6-0.3,1.7-0.5,3,1.1l-1.4,1.1c-0.5-0.6-0.8-0.7-0.8-0.7
						c-0.6,0.3-1,2.5-0.8,3.6L704.7,581.5z"/>
				</g>
				<path class="st14" d="M695.3,571.6c-0.6,0-1.2-0.1-1.6-0.3c-0.5-0.3-0.8-0.8-0.8-1.4l0.6-0.1c0,0.4,0.2,0.7,0.5,0.9
					c1.7,1,6.7-1,8.5-1.8l0.3,0.5C702.5,569.6,698.1,571.6,695.3,571.6z"/>
				<path class="st14" d="M723.1,573.3c-2.8,0-7.4-3.1-7.9-3.5l0.7-1c2.2,1.5,6.3,3.8,7.8,3.2c0.3-0.1,0.4-0.3,0.5-0.6l1.1,0.3
					c-0.2,0.7-0.6,1.2-1.2,1.4C723.8,573.2,723.5,573.3,723.1,573.3z"/>
			</g>
		</g>
		<g>
			<path class="st16" d="M598.1,719.5c35.9,13,165.8,26.8,245.3-16.9"/>
			<path class="st16" d="M591.8,718.6c37,9.8,167.5,12.1,242.9-38.5"/>
			<path class="st16" d="M623.8,712.6c18.6,5,85.8,10.2,127-6.5"/>
			<path class="st16" d="M592.6,699.4c32.7,19.9,157.2,59.1,243.8,31.9"/>
			<path class="st16" d="M830.3,720C807,733.6,695,768,592.6,741.5"/>
			<path class="st16" d="M811.1,741.7c-82,20.7-151,10.6-217.9-26.7"/>
			<path class="st16" d="M790.8,767.8c-57.5,11.5-155.2-3.5-203.4-47.8"/>
			<path class="st16" d="M646.9,760.7c43.8,9,105.7,9,157.5-4.4"/>
			<path class="st16" d="M839.6,720c0,33.2-55.1,60.1-123,60.1s-123-26.9-123-60.1"/>
			<path class="st14" d="M598.8,671.9c-12.6-9.7-30.3-13.3-37.8-20.8c-1.8,12.9,3.5,25.3,16.1,35s34.7,10.9,34.7,10.9
				S611.4,681.5,598.8,671.9z"/>
			<path class="st14" d="M606,667c-0.7-9.9,3.6-20.4,2.2-26.9c7.3,3.5,12,10.6,12.7,20.5s-6.3,21.9-6.3,21.9S606.7,676.9,606,667z"
				/>
			<path class="st14" d="M577.7,712.6c-9.6-2.4-18.3-9.7-24.9-10.5c5.6-5.9,13.8-8.1,23.4-5.7c9.6,2.4,18.8,12.8,18.8,12.8
				S587.3,715,577.7,712.6z"/>
			<path class="st14" d="M833.5,672.4c-6.9,7.1-17.6,10.9-21.5,16.2c-2.3-7.8-0.1-16,6.8-23.1c6.9-7.1,20.5-9.9,20.5-9.9
				S840.4,665.3,833.5,672.4z"/>
			<path class="st14" d="M851.9,696.7c-9.6,2.5-20.7,0.2-26.8,2.7c2.1-7.9,8.2-13.7,17.8-16.2s22.6,2.2,22.6,2.2
				S861.5,694.2,851.9,696.7z"/>
		</g>
	</g>
</g>
<g>
	<text transform="matrix(0.9972 0 0 1 905.5898 1251.7129)" class="st1 st2 st3">Dosel forestal</text>
</g>
<g>
	<rect x="901.4" y="1285.8" class="st4" width="709.1" height="210.5"/>
	<text transform="matrix(0.9972 0 0 1 901.4141 1318.8076)" class="st1 st5 st6">Hábitat que comprende las regiones </text>
	<text transform="matrix(0.9972 0 0 1 901.4141 1371.6084)" class="st1 st5 st6">superiores de los árboles de un </text>
	<text transform="matrix(0.9972 0 0 1 901.4141 1424.4082)" class="st1 st5 st6">bosque.</text>
</g>
<g>
	<g>
		<path class="st17" d="M877,1226.8c-212.5,0-413.7-107.2-413.7-359.6c0-105.5,0-288.4,0-288.4"/>
		<g>
			<path class="st11" d="M470.3,578.8c0-3.8-3.1-6.9-6.9-6.9s-6.9,3.1-6.9,6.9c0,3.8,3.1,6.9,6.9,6.9
				C467.2,585.7,470.3,582.6,470.3,578.8z"/>
		</g>
	</g>
</g>
<g>
	<g>
		<path class="st17" d="M877,892.3c0,0-58.3-35.6-79.4-91.1"/>
		<g>
			<path class="st11" d="M804.1,798.7c-1.4-3.6-5.4-5.4-8.9-4c-3.6,1.4-5.4,5.4-4,8.9c1.4,3.6,5.4,5.4,8.9,4
				S805.4,802.2,804.1,798.7z"/>
		</g>
	</g>
</g>
</svg>
