<?xml version="1.0" encoding="utf-8"?>
<!-- Generator: Adobe Illustrator 26.0.1, SVG Export Plug-In . SVG Version: 6.00 Build 0)  -->
<svg version="1.1" id="Capa_1" xmlns="http://www.w3.org/2000/svg" xmlns:xlink="http://www.w3.org/1999/xlink" x="0px" y="0px"
	 viewBox="0 0 500 1000" style="enable-background:new 0 0 500 1000;" xml:space="preserve">
<style type="text/css">
	.st0{fill:none;stroke:#F5A57F;stroke-width:0.6;stroke-linecap:round;stroke-linejoin:round;stroke-miterlimit:10;}
	.st1{fill:#F5A57F;}
	.st2{fill:#FACBB2;stroke:#F5A57F;stroke-width:0.6799;stroke-miterlimit:10;}
	.st3{fill:#EEEDEE;stroke:#E63812;stroke-miterlimit:10;}
	.st4{fill:#FFFFFF;}
	.st5{fill:#E63812;}
	.st6{fill:none;stroke:#E63812;stroke-width:0.4558;stroke-linecap:round;stroke-linejoin:round;stroke-miterlimit:10;}
	.st7{fill:#E95125;stroke:#E63812;stroke-width:0.4558;stroke-linecap:round;stroke-linejoin:round;stroke-miterlimit:10;}
	.st8{fill:#929192;}
	.st9{fill:#1E1E1C;}
	.st10{font-family:'BarlowSemiCondensed-Light';}
	.st11{font-size:32.6982px;}
	.st12{fill:none;stroke:#929192;stroke-width:2;stroke-miterlimit:10;stroke-dasharray:0.8541,0.8541,1,1,1,0.8541;}
	.st13{font-family:'BarlowSemiCondensed-SemiBold';}
	.st14{font-size:23px;}
	.st15{fill:none;stroke:#1E1E1C;stroke-miterlimit:10;}
</style>
<line class="st0" x1="22" y1="957" x2="380.9" y2="957"/>
<g>
	<path class="st1" d="M235.2,957c0.3-5.8,0.7-13.3,1.2-22.2c1.9-35.8,5.1-95.6,6.2-158.7c1.4-78.2,2.5-311.1,1.3-328.2
		c-3.1-43.7-12-77.5-20.5-110.1l-0.4-1.6l4.6-3.7c8.6,29.3,17.5,59.7,20.2,99.6c0,1.1,0.4,2.2,1.1,3c0.7,0.8,1.7,1.3,2.8,1.3
		c1.4,0,2.7-0.9,3.4-2.3l60.8-104.6l4.7,2.7l-63.3,120.1c-0.8,1.8-1.2,3.6-1.2,5.5c0,8.6-0.1,33.8-0.3,74.4l0,2.8l1.4-2.3
		c35.7-56.3,67.2-112.7,94-135.8l0.4-0.4l-0.1-0.6c-4.2-17.1,4.6-54.2,12.9-81.5h2.4c-6.9,27.8-13.2,59.8-10.5,76.3l0.2,1.2l0.9-0.6
		c22.2-13.1,45.1-18,67.2-47.4l1.3,2.5c-27.3,34.9-50.1,40.3-72.5,54.3c-30.6,31.4-63.3,91.5-97.7,147.6l-0.1,0.2l0,7.9
		c-0.7,137.8-1.9,367.5,0.1,400.7H235.2z"/>
	<path class="st1" d="M213.1,957c0.2-7.7,1.7-62.5,3.7-101.5c0.7-13.3,2.4-33.6,4.2-55.1c4.2-49,8.9-104.5,5.2-118.3
		c-4-14.9-26-76.3-37.5-86.4l2.9-1.2c14.7,22.7,27.3,51.3,37.5,84.9l0.8,2.6l0.9-2.5c9.7-27.6,15.2-56.9,16.2-87.1l3.2,0.6
		c-1.4,34.2-6.3,66-14.5,94.6c-0.1,1.6-6.8,136.5-7.7,168.3c-0.9,29.8-1.8,93-1.9,101.1H213.1z"/>
	<path class="st2" d="M228.2,619.8c-0.3-0.1-3.1-2.4-3.1-2.4l-2.1-2.2h-2.7h-1.8h-2.2l-0.8,2.3l-2.1,2.8l-2.9,0.7l-3.3,4.8l-4.8,0.7
		h-3l-1.2,2.6l-4,0.4l-2.6-1.7l-1.5-1.4l-1.6-2.2l-2.6,0.1l-1.5,0.8l-3.3,2.1l-0.8,2.3l-2.9,2.1l-3.3,1.1l-1.9-1.3l-2.9-2.9
		l-0.8-3.7l-1.1-2l1.3-4.4l2.5-5.3l1.6-2.4c0,0,2.4-0.6,2.3-0.9s-0.1-3-0.1-3s-2.1-2.1-2.2-2.4s-1.3-3.2-1-3.6s0.8-2.2,0.8-2.2
		l-1.6-4.1c0,0-1.2-3.4-1.1-3.9s0.9-3.8,0.9-3.8l1-2.4l0.6-5.7l3.2-2.4l2.7-0.8c0,0,2.6-1.8,2.9-2.1c0.3-0.3,2-1.8,2-1.8l2.9-0.7
		l2.9-6.6l-0.9-2.9l-0.9-3.9l2.5-2l0.5-3.9l2.3-0.6h6.3l-0.5,3.9l4.5-1.2l3.1-0.5l2.5-5.5l2.3-1.3l0.9-0.7l3.5-3.5l2.6-3.9h2.2
		l2.2,1.2l1.8,6l1.5,1.5c0,0,5.9,2,6.5,1.6s5.7-3.9,5.7-3.9s4.1-1.9,4.2-2.4s1-2.4,1-2.4s0.7-2.2,2.9-1.6s1.3-1.2,2.2,0.6
		c0.9,1.8-0.9,0.5,0.9,1.8c1.8,1.3,8.2,1.3,8.2,1.3l1-0.8c0,0-2.5-1.2,1.3-0.9c3.7,0.3,2.1-1,3.7,0.3s1.6,1.3,1.6,1.3l1.6,0.4
		c0,0-0.7-0.4,1.9,1c2.6,1.4,2.6,1.4,2.6,1.4l4.6,4v1.5c0,0-2.4-0.3-0.9,2.3c1.5,2.6-0.5,0.3,1.5,2.6c2,2.3,2,2.3,2,2.3v1.7
		l-1.5,3.6l1.5,2.6c0,0-3.6,0,1.5,1.1c5.1,1.1,2.4,0.1,2.4,0.1l2.7,0.9l1.4,0.2l1.6,1.1l1.2,1.4l2.7-0.6l1,1.5l0.6,1l1.2,0.2
		c0,0,0.7,1.8,1.2,2.5c0,0,1.2,0.8-0.6,3.4c-3.3,5-2.7,1.8-2.7,1.8s-5-3.9-0.8,2.6c4.2,6.5-3.3-2.2,1.3,3.4c4.6,5.6,1.5,2.1,1.5,2.1
		c7.4,5.8,3.1,3.5,3.1,3.5l4.2,2.3l4.1,5.8v4.1l-0.4,2l-1.2,5.3l-1.9,1.7l-5.7-1l-1.3-0.2c-5.3,1.9-5.3,1.9-5.3,1.9s0.2-1.2-2.9,0.8
		c-3.1,2,0.4,1.7-3.1,2c-3.4,0.3-2.1,0.9-3.4,0.3s3.4-0.3-1.4-0.6c-4.8-0.3-4.8-0.3-4.8-0.3l-1.6,0.2l-2.4,3.4l-2.1,2.4l2.5,4.7
		l-1,2.2c0,0-0.4,2.1-3.4,2.4c-3.1,0.3-0.5-1.4-3.1,0.3s-2.6,1.7-2.6,1.7s3.1,0.5-2.8-0.9c-5.8-1.4-2.6-1.3-2.6-1.3l-3.2-0.1
		c0,0-2.9,4.9-3.1-0.4c-0.3-5.3-0.2-2.2-0.2-2.2l1-1.8l-1-1.3l-3-3.4l-0.1-1.7c0,0,2.8-0.2,0-1.7c-2.8-1.5-2.8-1.5-2.8-1.5l-1.1-2
		l-3.2-1.6c0,0,0.2-1.3-2.3,1c-2.5,2.3,0.7,1.8-2.5,2.3c-3.1,0.5-3.1,0.5-3.1,0.5l-1.7,1.9L228.2,619.8z"/>
	<path class="st1" d="M158,957c9.2-23.8,16.3-94.2,18-180.8c1.4-72.7,6-349.5,4.6-366.5c-3.8-47.4-67.9-115.4-88.6-136.2l4.3-3.5
		c5.2,5.4,46.4,48,79.9,99.7c0.8,1.2,2,1.8,3.4,1.8c1.9,0,4-1.5,4-3.9l0.5-20.5c0-1.3-0.3-2.5-0.9-3.6
		c-8.1-13.8-56.8-102.9-62.2-112.7l6-2.3l51.8,95.5c0.8,1.4,2.2,2.3,3.8,2.3c2,0,4.3-1.5,4.4-4.2l4.7-119.1l3-0.7l-1.5,159.3
		c0,1.2,0.4,2.2,1.2,3c0.8,0.8,1.9,1.3,3.1,1.3c1.6,0,3-0.9,3.7-2.3l17.4-33.3l2.2,14l-22.9,46.4c-0.8,1.7-1.3,3.6-1.3,5.5
		c0,8-0.3,33.8-0.7,69.5c-1.7,148.3-5.3,455.2,2.9,491.3H158z"/>
	<path class="st2" d="M334.3,178.1c-2.7-5.6-1.8-8.6-1.2-10.9c0.6-2.4,1.8-4.1,3.8-7.1c2.1-3,2.4-6.2,2.4-6.2v-4.1l-3.4-4.1
		c0,0-5.7-3.6-7-4.4s-1.8-0.4-2.6-2.6c-0.8-2.2-1.8-3.2-1.8-3.2s-1.2-2.8-3.2-1.6c-2,1.2-3.9-0.3-3.9-0.3l-1.4-4.6
		c0,0-3-8.1-3.5-9.5c-0.6-1.4,0.8-3.3,0.8-3.3l1.2-4.7l-0.6-3.8c0,0-2.2-1.8-4.7-2.8c-2.6-1,2.4-3.2-3.5-1.2c-5.9,2-4.1,2.4-6.9,2
		c-2.8-0.4-6.1-1.4-6.1-5.9c0-4.5,0-6.7,0-6.7l-3.3-3c0,0-2.4,0.8-4.3-1.4c-2-2.2-6.3-1.4-6.3-1.4l-5.3-0.1l-2.6-6.2
		c0,0-3.5-3.9-4.9-3s-3.5-2.8-3.5-2.8v-3.7l-2.4-3.2l-4.3-2.2l-3.3-2.8l-6.7,2.4l-5.1,3.2c0,0-4.7,2.2-3.3,5.9s-0.3,6.1-0.3,6.1
		s-8,2.4-9.4,0.4s-2-1.4-2.8-4.3c-0.8-3,4.1-5.5-2-6.7s-12.4,0.6-14-1.8c-1.6-2.4-3.2-5.1-3.2-5.1s-10.4-0.4-12.8,0s-4.7,3-6.1-1
		s-1.4-3.9-1.4-3.9l-4.1-1.9h-4.3c0,0-5.1-0.8-5.3,3.9c-0.2,4.7-3.2,2.6-6.1,3.9c-3,1.4-3.3,6.5-3.3,6.5s-3.7,4.5-7.5,6.3
		c-3.9,1.8-6.4,0.6-10.4,2s-8.9,4.1-8.9,4.1s-7.5-1.4-5.7,3.7c1.8,5.1,3,6.3,3,6.3S117.1,97,116.3,98c-0.8,1-4.3,1.7-4.3,1.7
		s2,3.6,0,4.6c-2,1-5.1,1-5.1,1s-3-2.6-7.7,1c-4.7,3.5-3-4.3-4.7,3.5s-1.8,7.9-1.8,7.9s3.5,5.7,0,7.9c-3.5,2.2-8.9-2.6-9.1,1.2
		c-0.2,3.7-5.3,8.1-8.1,9.8c-2.8,1.7-6.5,3.6-6.5,5.6c0,2-1.6,1.8,0,5.7c1.6,3.9,4.7,6.9,3.7,9.3c-1,2.4-8.9,3.5-9.5,6.5
		s-1.8,2.8-1.8,5.7c0,3,0,8.8,0,8.8l3.5,5.8l-3.5,4.1l-4.1,3.9c0,0-9.9,4.9-9.7,8.3c0.2,3.3,0,6.5,0,6.5v6.5c0,0-4.5,3.2-3.1,8.7
		s-0.3,6.9-0.3,6.9l-8.6,1.2l-6.3-2.6c0,0-2.8,5.3-3.3,7.3c-0.6,2-2,6.3-1,8.3c1,2,3.2,4.7,4.9,7.5c1.8,2.8,2.6,6.3,2.6,6.3
		s-2.8,6.1-3.2,7.9c-0.4,1.8-1.4,3.9-1.4,3.9l-4.1,1.4l-2.4,4.7c0,0-0.6,4.9,3.5,7.7c4.1,2.8,8.3,5.3,8.3,5.3l6.9,3.9l6.1,2.6
		c0,0,10.8,1.2,12.2-0.8s1.4-3.5,4.7-2.2c3.3,1.4,10,3.3,10,3.3l0.6,7.1h7.7c0,0,8.1-2.6,7.9-7.1c-0.2-4.5-1.4-8.9-1.4-9.7
		c0-0.8-0.5-3.7,2.6-2.4s8.2,3.3,8.2,3.3s0.2-5.3,2.1-7.8c1.8-2.5,4.6-4.9,4.6-4.9s4.9,1.2,8.9-5.7c3.9-6.9,3.9-6.9,3.9-6.9l7.9-3.5
		l1.6-5.5c0,0-9.5,3.2-6.3-4.3c3.2-7.6,5.3-7.7,5.3-7.7l5.9-2c0,0,2.7-3.7,8.3-2.9s8.9,1.6,8.9,1.6s1.2,5.1,3.3-2.6
		s-0.2-1.4,2.2-7.7s1.2-3.7,1.2-3.7l4.1-3.9c0,0,4.5-7.1,14.6-1.2c10,5.9-0.2-6.1,7.1,2s3,3.9,3,3.9s11.2,43.2,12.6,43.7
		c1.4,0.6,0.4-2.6,3.3,0c3,2.6,4.9,4.5,4.9,4.5s1.4,0.2,3.2-1.8s4.1-3.8,5.3-2.6c1.3,1.2,6.9,4.1,6.9,4.1s22.3-6.5,27.4-11.4
		c5.1-4.9,81.6-55.8,81.6-55.8l10-16L334.3,178.1z"/>
	<path class="st2" d="M253.6,340.4c8.2,3.2-0.6-5.1,8-4.3c8.6,0.8,5.4,4.8,11.6,5.1c6.2,0.2,10.5-1.4,15-5.9
		c4.5-4.5,13.6-5.2,15.4-4.5c1.8,0.7,3,1.9,9.2,1.7c6.2-0.2,8.3-1.5,11.3-0.7c3,0.9,7.2,10.6,12.7,10.3c5.5-0.3,20.2-4.5,22.2-11
		s4.2-9.6,6.7-10.8c2.5-1.2,3-0.7,9,0c6.1,0.7,6.7,2.6,7.8,4.2c1.1,1.5,0.1,13.9,3.6,16.3s7.6,11.4,15.9,13c8.3,1.7,10.9,1.1,17,2.5
		c6.1,1.4,19.2,11.9,21.3,8.7s6.1-1.7,9.9-7.4c3.9-5.7,12.8-19.5,9-27.7s-7.5-7.6-8.3-16c-0.8-8.4,1.4-13.8,5.5-18.6
		c4.1-4.9,10.7-12.5,8.1-17s-10.4-16-13.6-16.8c-3.2-0.8-10.4-1-11.3-4.2c-0.9-3.2-11.6,2.2-8-5.2c3.5-7.4-8.3-13.8-15.4-14.1
		c-7.1-0.3-6.9-15.4-11.7-19.7c-4.7-4.3-12.8-14.5-21-12.7c-8.2,1.8-10.2,5.6-13.6,3.4s-11-12.8-11.6-17.9
		c-0.6-5.1-5.2-10.3-9.6-9.8c-4.4,0.4-7.8,1.5-7.9,3.4s-2.9,8.6-4.6,9.6s-8.8,0.7-9.8-0.8c-1-1.4-3.8-3-5.4-2.5
		c-1.7,0.4-4.1,1.3-5.8,3.5c-1.8,2.2-3.2,2.9-3.9,5.5c-0.7,2.6-1,10.4-3.1,11.7c-2.1,1.3-7.6,1-10.9,1c-3.3,0-8.4-0.1-10.3,2.3
		c-1.9,2.4,0.3,2.4-4.2,3.5s-8.7-1.1-10.8,1.2c-2.1,2.3,0,3.5-3.2,4.6c-3.2,1.1-2.8,2.3-5,1.7c-2.2-0.7-6.5-3.4-7.8-4.1
		c-1.3-0.7-5.5-0.8-6.6-2.1s-5.1-0.7-7.2-0.3c-2.1,0.3-6.4,5.3-6.5,8.2s1,5.8-1.4,7.2c-2.4,1.3-10.9-1.5-12.7-1
		c-1.8,0.6-1.9-0.6-3.6,2.9c-1.8,3.4-2.4,6-2.4,6s4.2,5,2.1,7.5c-2.1,2.5-4.2,5.3-4.6,5.4c-0.4,0-10.4-2.2-11.5-0.8
		c-1.1,1.3-3.5,8.5-2.5,11.1c1,2.6,2,5.1,0.8,7.1c-1.2,2-3.9,4.3-5.6,5.1s-6.5,8.5-6.8,11.3c-0.3,2.8,2,2.6-2.5,4.2
		c-4.5,1.5-10,0.4-12.9,3c-2.9,2.5-4.8,3.2-6.5,5s-8.1,9.7-8.3,12.8c-0.2,3.1,0,5.6,0,5.6s4.3,8.1,5.2,11.8s2.6,9.9,1.3,14.7
		c-1.3,4.7,0,7.9,2.6,8.3c2.6,0.3,3.5,6.5,7.4,0.2s3.2-8.8,5.3-11.6c2.1-2.8,6-6.7,6-6.7s-1.5-0.6,3.3,0.1
		c4.8,0.7,10.5,3.8,10.5,3.8s1.8,1.3,5.8,4.6c4.1,3.3,6.7,7.2,8.7,9.2s2.8,9.4,4.9,11.4s4.4,3.7,8.6,1.9s6.7-4.4,6.7-4.4
		s-0.7-9.6-0.8-12.5c-0.1-2.9,3.5-8.9,6.2-7.7c2.6,1.2,9.2-2.6,9.8-5c0.7-2.3-0.6-4.1,1.7-2.4S253.6,340.4,253.6,340.4z"/>
</g>
<g>
	<circle class="st3" cx="346.1" cy="354.1" r="86.8"/>
	<g>
		<g>
			<path class="st4" d="M302.4,366.4c-2.2,3-2.7,6.9-1.6,10.5c0.1,1.8,1,9.4,5.3,12.3c0.3,0.2,0.6,0.2,0.9,0
				c0.3-0.2,0.4-0.4,0.4-0.8l-0.1-1.3c1.3,2.1,3.2,4.6,5.3,5.8c0.3,0.2,0.6,0.1,0.9,0c0.3-0.2,0.4-0.5,0.3-0.8l-0.3-2.2
				c1.9,1.6,5.3,3.9,9.3,4.5c0,0,0.1,0,0.1,0c0.3,0,0.5-0.1,0.7-0.3c0.2-0.3,0.2-0.6,0-0.9l-0.4-0.8c5.5,1.3,11.8,1.9,18.8,2
				c0.5,0,0.8-0.4,0.8-0.8c0-0.1,0-0.1,0-0.2c0.4,0.1,1,0.2,1.6,0.2c0.7,0.5,1.6,0.8,2.6,0.8c4.4,0,7.3,0,7.3,0c0.4,0,0.7,0,1-0.1
				c0.1,0,0.2,0.1,0.3,0.1c7-0.1,13.3-0.8,18.8-2l-0.4,0.8c-0.2,0.3-0.1,0.6,0,0.9c0.2,0.2,0.4,0.3,0.7,0.3c0,0,0.1,0,0.1,0
				c4.1-0.5,7.4-2.8,9.3-4.5l-0.3,2.2c0,0.3,0.1,0.6,0.3,0.8c0.3,0.2,0.6,0.2,0.9,0c2.1-1.2,4-3.8,5.3-5.8l-0.1,1.3
				c0,0.3,0.1,0.6,0.4,0.8c0.3,0.2,0.6,0.1,0.9,0c4.6-3.1,5.2-11.5,5.3-12.5c1.1-3.7,0.5-7.5-1.6-10.5c-2.3-3.1-6-5.1-10.3-5.4
				c0-0.3,0-0.7,0-0.9l0.5,0.3c0.2,0.1,0.5,0.1,0.8,0c0.2-0.1,0.4-0.3,0.5-0.6c0.8-5.3,0.5-10,0.1-13.1c0.2,0.2,0.5,0.3,0.8,0.2
				c0.3-0.1,0.6-0.4,0.6-0.8c0.2-14.2-6.3-24.3-6.8-25c-2.4-4.5-5.7-8.6-9.8-12.2c-1.2-2.4-2.7-4.3-3.9-5.7c0.2,0,0.5-0.1,0.6-0.3
				c0.2-0.3,0.2-0.6,0.1-0.9c-2.5-4.5-5.8-6.6-8.3-7.6c0.3-0.1,0.5-0.3,0.6-0.6c0.1-0.4-0.1-0.7-0.4-0.9c-4.9-2.6-9.9-1.3-11.1-0.9
				c-1.2-0.4-6.2-1.7-11.1,0.9c-0.3,0.2-0.5,0.5-0.4,0.9c0.1,0.3,0.3,0.5,0.6,0.6c-2.6,1-5.8,3.1-8.3,7.6c-0.2,0.3-0.1,0.7,0.1,0.9
				c0.2,0.2,0.4,0.3,0.6,0.3c-1.3,1.4-2.9,3.4-4.1,6c-3.3,3.3-6.1,7.3-8.5,12c-0.8,1.3-6.9,11.4-6.7,24.9c0,0.3,0.2,0.7,0.6,0.8
				c0.2,0.1,0.4,0,0.5,0c0,0.5,0.1,1,0.1,1.5c-0.4,3.8-0.3,7.6,0.3,11.3c0,0.3,0.2,0.5,0.4,0.6c0.1,0,0.2,0.1,0.3,0.1
				c0,0.2,0.1,0.4,0.1,0.6C308.6,361.1,304.8,363.1,302.4,366.4z"/>
			<path class="st5" d="M301.9,366.7c-2.2,3.1-2.8,6.9-1.6,10.7c0.1,1.8,1,9.5,5.3,12.4c0.3,0.2,0.6,0.2,0.9,0
				c0.3-0.2,0.4-0.5,0.4-0.8l-0.1-1.3c1.3,2.1,3.2,4.7,5.3,5.9c0.3,0.2,0.6,0.1,0.9,0c0.3-0.2,0.4-0.5,0.4-0.8l-0.3-2.2
				c1.9,1.7,5.3,4,9.4,4.5c0,0,0.1,0,0.1,0c0.3,0,0.5-0.1,0.7-0.4c0.2-0.3,0.2-0.6,0-0.9l-0.5-0.8c5.6,1.3,11.9,2,19,2
				c0.5,0,0.8-0.4,0.8-0.8c0-0.1,0-0.1,0-0.2c0.5,0.1,1,0.2,1.6,0.2c0.7,0.5,1.6,0.8,2.6,0.8c4.5,0,7.3,0,7.3,0c0.4,0,0.7,0,1-0.1
				c0.1,0,0.2,0.1,0.4,0.1c7.1-0.1,13.5-0.8,19-2l-0.5,0.8c-0.2,0.3-0.1,0.6,0,0.9c0.2,0.2,0.4,0.4,0.7,0.4c0,0,0.1,0,0.1,0
				c4.1-0.5,7.5-2.9,9.4-4.5l-0.3,2.2c0,0.3,0.1,0.6,0.4,0.8c0.3,0.2,0.6,0.2,0.9,0c2.1-1.2,4-3.8,5.3-5.9l-0.1,1.3
				c0,0.3,0.1,0.6,0.4,0.8c0.3,0.2,0.6,0.1,0.9,0c4.6-3.1,5.3-11.6,5.4-12.6c1.1-3.7,0.5-7.6-1.7-10.6c-2.3-3.2-6-5.1-10.4-5.5
				c0-0.3,0-0.7,0-0.9l0.5,0.3c0.2,0.1,0.5,0.1,0.8,0c0.2-0.1,0.4-0.3,0.5-0.6c0.8-5.4,0.5-10.1,0.1-13.2c0.2,0.2,0.5,0.3,0.9,0.2
				c0.3-0.1,0.6-0.4,0.6-0.8c0.2-14.3-6.4-24.6-6.9-25.3c-2.4-4.5-5.7-8.7-10-12.3c-1.3-2.4-2.7-4.4-4-5.7c0.2,0,0.5-0.1,0.6-0.3
				c0.2-0.3,0.3-0.6,0.1-0.9c-2.5-4.5-5.8-6.7-8.4-7.6c0.3-0.1,0.5-0.3,0.6-0.6c0.1-0.4-0.1-0.7-0.4-0.9c-5-2.6-10-1.3-11.2-0.9
				c-1.2-0.4-6.3-1.7-11.2,0.9c-0.3,0.2-0.5,0.5-0.4,0.9c0.1,0.3,0.3,0.5,0.6,0.6c-2.6,1-5.9,3.1-8.4,7.6c-0.2,0.3-0.1,0.7,0.1,0.9
				c0.2,0.2,0.4,0.3,0.6,0.3c-1.3,1.4-2.9,3.5-4.2,6.1c-3.3,3.3-6.2,7.4-8.6,12.2c-0.8,1.3-7,11.5-6.8,25.1c0,0.4,0.2,0.7,0.6,0.8
				c0.2,0.1,0.4,0,0.5,0c0,0.5,0.1,1,0.1,1.5c-0.4,3.9-0.3,7.7,0.3,11.5c0,0.3,0.2,0.5,0.5,0.6c0.1,0,0.2,0.1,0.3,0.1
				c0,0.2,0.1,0.4,0.1,0.6C308.2,361.4,304.3,363.4,301.9,366.7z M394.2,367.6c1.9,2.7,2.4,5.9,1.4,9.2c0,0.1,0,0.2,0,0.3
				c0,0.7-0.5,6.7-3.2,10.1l0.2-2.9c0-0.4-0.2-0.8-0.6-0.9c-0.4-0.1-0.8,0.1-1,0.5c0,0.1-2.2,4.7-5,7.3l0.4-2.6
				c0.1-0.4-0.1-0.7-0.5-0.9c-0.3-0.2-0.7-0.1-1,0.2c0,0-3.6,4-8.5,5.4l0.5-0.9c0.1-0.1,0.1-0.3,0.1-0.4c0-0.3-0.1-0.5-0.3-0.6
				c-0.2-0.2-0.5-0.2-0.7-0.1c-5.3,1.4-11.5,2.2-18.3,2.4c0.3-0.5,0.5-1,0.7-1.5c0.4-1.1,0.9-2.4,2.4-3.7c0.3-0.3,0.6-0.5,1-0.9
				c0.8,4.7,1.2,4.7,1.9,4.7c0.3,0,0.8-0.1,1-1.1c0.2-1.1,1.7-4.2,2.9-6.3l0.8,3.9c0.1,0.4,0.4,0.6,0.8,0.7c0.4,0,0.7-0.2,0.8-0.6
				c1.2-3.7,2.6-7.2,3.6-9.6c-0.2,1.9-0.8,3.4-0.8,3.4c-0.2,0.4,0,0.8,0.3,1c0.4,0.2,0.8,0.1,1.1-0.2c2.4-3,4.1-5.9,5.3-8.3
				l-0.1,0.6c0,0.4,0.2,0.7,0.5,0.8c0.3,0.1,0.7,0.1,0.9-0.2c3.4-3.7,4.2-9.5,4.4-13.4C389,363.1,392.3,364.8,394.2,367.6z
				 M333.7,301.5c0.3-0.2,0.4-0.7,0.3-1c-0.2-0.4-0.6-0.5-1-0.4l-1.1,0.4c4.2-5.8,9.7-5.8,10-5.8c0.4,0,0.8-0.3,0.8-0.7
				c0.1-0.4-0.1-0.8-0.5-0.9c-0.3-0.1-0.7-0.2-1-0.3c3.9-0.9,7.3,0.3,7.3,0.4c0,0,0,0,0,0c0,0,0.1,0,0.1,0c0,0,0,0,0.1,0
				c0,0,0.1,0,0.1,0s0.1,0,0.1,0c0,0,0.1,0,0.1,0c0,0,0.1,0,0.1,0c0,0,0,0,0,0c0,0,3.4-1.2,7.3-0.4c-0.4,0.1-0.7,0.2-1,0.3
				c-0.4,0.1-0.6,0.5-0.5,0.9c0.1,0.4,0.4,0.7,0.8,0.7c0.1,0,5.7-0.1,10,5.8l-1.1-0.4c-0.4-0.1-0.8,0-1,0.4c-0.2,0.4-0.1,0.8,0.3,1
				c0,0,4.8,3.5,7.4,10.1l-2.2-1c-0.3-0.2-0.7-0.1-1,0.2c-0.2,0.3-0.3,0.7,0,1c0.1,0.1,2.5,3.7,0.6,8.4c-0.1,0.2-0.1,0.4,0,0.6
				c0,0.1,2.8,7.4-0.4,14.2v-2.2c0-0.4-0.3-0.8-0.7-0.8c-0.4,0-0.8,0.3-0.9,0.7c0,0.1-1.1,5.3-5.8,9.8l0.3-4.3
				c0-0.4-0.3-0.8-0.7-0.9c-0.4-0.1-0.8,0.2-0.9,0.6c0,0-1,3.9-4,5c-3.2,1.2-5.6,3.8-6.7,5.3c-1.1-1.4-3.4-4-6.7-5.3
				c-2.9-1.1-4-5-4-5c-0.1-0.4-0.5-0.7-0.9-0.6c-0.4,0.1-0.7,0.4-0.7,0.9l0.3,4.3c-4.7-4.4-5.8-9.7-5.8-9.8
				c-0.1-0.4-0.5-0.7-0.9-0.7c-0.4,0-0.8,0.4-0.8,0.8v2.2c-3.2-6.9-0.4-14.2-0.4-14.2c0.1-0.2,0.1-0.5-0.1-0.7
				c-2.5-4.3,0.5-8.1,0.6-8.3c0.2-0.3,0.2-0.7,0-1c-0.2-0.3-0.6-0.4-1-0.2l-2.2,1C328.9,305,333.7,301.5,333.7,301.5z M312.5,343.9
				c-0.1,0-0.3,0-0.4,0c0.5-12.2,5.9-21,6.5-22c0,0,0-0.1,0-0.1c1.6-3.2,3.4-6.1,5.5-8.7c0,0.3,0.1,0.5,0.3,0.7
				c0.2,0.2,0.6,0.3,0.9,0.1l1.7-0.8c-0.7,1.8-1.2,4.5,0.3,7.5c-0.7,1.9-3.2,10.5,2.2,18c0.2,0.3,0.6,0.4,0.9,0.3
				c0.3-0.1,0.6-0.4,0.6-0.8v-0.6c1.2,2.3,3.1,5.1,6.2,7.5c0.3,0.2,0.6,0.2,0.9,0.1c0.3-0.2,0.5-0.5,0.4-0.8l-0.2-2.2
				c0.7,0.9,1.7,1.8,3.1,2.3c4,1.5,6.5,5.5,6.5,5.6c0,0,0,0,0,0c0,0.1,0.1,0.1,0.1,0.1c0,0,0,0,0,0c0,0,0.1,0.1,0.1,0.1c0,0,0,0,0,0
				c0.1,0,0.1,0.1,0.2,0.1c0,0,0,0,0,0c0.1,0,0.1,0,0.2,0c0,0,0,0,0.1,0c0,0,0.1,0,0.1,0c0,0,0.1,0,0.1,0c0,0,0.1,0,0.1-0.1
				c0,0,0,0,0,0c0.1-0.1,0.2-0.1,0.3-0.3c0,0,0,0,0,0c0,0,2.6-4.1,6.5-5.6c1.3-0.5,2.3-1.4,3.1-2.3l-0.2,2.2c0,0.3,0.1,0.6,0.4,0.8
				c0.3,0.1,0.6,0.1,0.9-0.1c3.1-2.4,5.1-5.2,6.2-7.5v0.6c0,0.4,0.2,0.7,0.6,0.8c0.3,0.1,0.7,0,0.9-0.3c5.5-7.5,2.8-16.3,2.2-18
				c1.2-3.1,0.8-5.8,0.2-7.5l1.9,0.9c0.3,0.1,0.6,0.1,0.9-0.1c0.2-0.2,0.3-0.5,0.3-0.9c-0.1-0.2-0.1-0.5-0.2-0.7
				c2.9,2.9,5.2,6.1,7,9.4c0,0,0,0.1,0.1,0.1c0.4,0.6,6,9.4,6.6,21.8l-0.6-0.9c-0.2-0.3-0.7-0.4-1-0.3c-0.4,0.2-0.5,0.6-0.4,1
				c0,0.1,1.9,6.6,0.8,15.1l-0.7-0.4c-0.3-0.1-0.6-0.1-0.9,0c-0.3,0.2-0.4,0.5-0.4,0.8c0,0.1,0.7,8-2.1,13.7l0.4-3.6
				c0-0.4-0.3-0.8-0.7-0.9c-0.4-0.1-0.8,0.2-0.9,0.6c0,0.1-1.2,4.8-4.9,10.4c0.1-1.1,0.1-2.4-0.2-3.7c-0.1-0.3-0.4-0.6-0.7-0.6
				c-0.3,0-0.7,0.1-0.8,0.4c0,0-2.1,4.5-4.1,10l-0.6-3.1c-0.1-0.3-0.3-0.6-0.7-0.6c-0.3-0.1-0.7,0.1-0.9,0.4
				c-0.3,0.5-2.4,4.1-3.5,6.7c-0.2-0.9-0.4-1.9-0.5-2.9c0-0.3-0.3-0.5-0.5-0.6c-0.3-0.1-0.6,0-0.8,0.1c-0.9,0.8-1.6,1.4-2.1,1.8
				c-1.7,1.5-2.3,3.1-2.8,4.4c-0.6,1.5-0.8,2.2-2.7,2.2c0,0-2.9,0-7.3,0c-0.5,0-1.2-0.1-1.7-0.6c0,0,0,0,0,0
				c-0.2-0.2-0.4-0.4-0.5-0.6c-0.5-1-1-4.1,4.5-11.6c1.4-1.9,4-4.7,6.6-7.5c3.7-4,6.9-7.5,7.6-9.2c4.7-11.9,9.6-29,9.7-29.2
				c0.1-0.4-0.1-0.9-0.6-1c-0.4-0.1-0.9,0.1-1,0.6c0,0.1-3,10.5-6.6,20.7c-7.2,4.1-11.9-0.9-12.2-1.1c-0.3-0.3-0.8-0.4-1.2-0.1
				c-0.3,0.3-0.4,0.8-0.1,1.2c0,0,3.1,3.3,7.9,3.3c1.4,0,3-0.3,4.7-1c-0.7,2.1-1.5,4.2-2.3,6.1c-0.5,1.4-4.1,5.2-7.2,8.7
				c-2.1,2.3-4.2,4.6-5.7,6.4c-1.5-1.9-3.8-4.3-5.9-6.7c-3.1-3.3-6.5-7-7-8.4c-0.8-1.9-1.5-4-2.2-6.1c1.7,0.7,3.3,1,4.7,1
				c4.8,0,7.8-3.2,7.9-3.3c0.3-0.3,0.3-0.9-0.1-1.2c-0.3-0.3-0.9-0.3-1.2,0.1c0,0.1-4.9,5.2-12.1,1.2c-3.4-10.2-6.1-20.5-6.1-20.6
				c-0.1-0.4-0.6-0.7-1-0.6c-0.4,0.1-0.7,0.6-0.6,1c0,0.2,4.5,17.2,9.2,29.1c0.7,1.7,3.8,5,7.4,8.9c2.3,2.5,4.7,5,6.1,6.9
				c-5,6.8-5.5,10.6-4.8,12.6c-1-0.3-1.5-1.1-2.3-2.2c-0.7-0.9-1.5-2.1-2.9-3.3c-0.3-0.3-0.6-0.5-1-0.9c-0.2-0.2-0.5-0.3-0.8-0.2
				c-0.3,0.1-0.5,0.3-0.5,0.6c-0.1,0.8-0.2,1.4-0.4,1.9c-1.1-2.6-3.2-6.2-3.5-6.7c-0.2-0.3-0.5-0.4-0.9-0.4
				c-0.3,0.1-0.6,0.3-0.7,0.6l-0.6,3.1c-1.2-3.4-2.4-6.4-3.2-8c0-0.1-0.1-0.2-0.2-0.3c-0.3-0.3-0.7-0.6-1-0.9
				c-0.2-0.2-0.5-0.3-0.8-0.2c-0.3,0.1-0.5,0.4-0.5,0.7c-0.1,0.9-0.1,1.8,0,2.6c-2.1-3.2-3.4-6.1-4.2-8.2c0-0.1-0.1-0.2-0.2-0.3
				l-0.4-0.4c0,0,0,0-0.1-0.1l-0.1-0.1c-0.3-0.2-0.6-0.3-0.9-0.2c-0.3,0.2-0.5,0.5-0.5,0.8l0.2,1.8c-1.3-2.6-1.8-5.5-2-7.9
				c0-0.1,0-0.1,0-0.2c-0.3-0.8-0.5-1.6-0.7-2.5c0-0.1,0-0.2-0.1-0.3c-0.2-0.7-0.3-1.5-0.4-2.3c0-0.3-0.2-0.5-0.5-0.6
				c-0.1,0-0.2-0.1-0.3-0.1c-0.4-3.3-0.5-6.7-0.1-10.1c0,0,0-0.1,0-0.1c0-0.6-0.1-1.1-0.1-1.6c-0.1-0.6-0.1-1.3-0.1-2.1
				C313.1,344.3,312.9,344,312.5,343.9z M313.1,362.8c0.2,0.7,0.4,1.4,0.6,2.1c0.3,3.5,1.4,8.2,4.2,11.3c0.2,0.3,0.6,0.3,0.9,0.2
				c0.3-0.1,0.5-0.5,0.5-0.8l-0.1-0.6c1.2,2.5,2.9,5.4,5.3,8.3c0.3,0.3,0.7,0.4,1.1,0.2c0.4-0.2,0.5-0.6,0.4-1c0,0-0.6-1.5-0.8-3.4
				c1,2.3,2.4,5.8,3.6,9.6c0.1,0.4,0.5,0.6,0.8,0.6c0.4,0,0.7-0.3,0.8-0.7l0.8-3.9c1.2,2.2,2.8,5.2,2.9,6.3c0.1,0.9,0.6,1.1,1,1.1
				c0.7,0,1-0.2,1.7-3.7c1.2,1.1,1.9,2.1,2.5,2.9c0.6,0.9,1.2,1.7,2,2.2c-7.4-0.1-14.1-0.9-19.8-2.4c-0.3-0.1-0.6,0-0.9,0.3
				c-0.2,0.3-0.2,0.6-0.1,0.9l0.5,0.9c-4.8-1.3-8.3-5.1-8.5-5.3c-0.1-0.1-0.2-0.1-0.3-0.2c-0.3-0.1-0.6-0.1-0.9,0.1
				c-0.3,0.2-0.4,0.5-0.3,0.8l0.4,2.6c-2.1-2-4-5.3-4.9-7.2c0-0.1-0.1-0.2-0.2-0.2c0,0,0,0,0,0c-0.3-0.2-0.6-0.3-0.9-0.1
				c-0.3,0.1-0.5,0.5-0.5,0.8l0.2,2.9c-2.7-3.3-3.2-9.2-3.2-10c0-0.1,0-0.1,0-0.2c-1.1-3.3-0.6-6.6,1.3-9.3
				C305.4,364.7,308.9,363,313.1,362.8"/>
			<g>
				<g>
					<path class="st5" d="M356.4,331.7l-0.4-1c7.1-3.6,12.1-7.9,13.5-12.8c1.9-6.7-2-13.2-4.2-16.7c-0.7-1.2-1.2-2-1.4-2.6
						c-4.8-9.7-14.3-6.8-14.7-6.7l-0.1,0l-0.1,0c-0.4-0.1-9.7-3-15.8,6.3c-11.4,18.2-3.6,23.5,1.6,27c1.8,1.2,3.2,2.2,3.6,3.4
						l-0.9,0.3c-0.3-0.9-1.6-1.9-3.2-2.9c-5.2-3.5-13.8-9.3-1.9-28.2c6.1-9.3,15.5-7.1,16.7-6.7c1.3-0.4,10.8-2.6,15.6,7.3
						c0.1,0.5,0.7,1.4,1.3,2.4c2.2,3.6,6.3,10.3,4.3,17.4C368.9,323.3,363.8,328,356.4,331.7z"/>
					<path class="st5" d="M348,333.7c-5.4-0.2-9.2-1.9-10.4-4.8c-2.8-6.6,7.3-17.7,7.7-18.2l0.7,0.6c-0.1,0.1-9.8,11.2-7.2,17.3
						c1.1,2.5,4.2,3.9,9.3,4.1c2.7,0.3,7.5-0.3,9.2-3.5c2-3.5-0.2-9.4-6.3-17.1l0.7-0.6c6.4,8.1,8.6,14.1,6.4,18.1
						C356.4,332.6,353.4,333.9,348,333.7z"/>
					<path class="st5" d="M338.4,323.3c-1.6-0.8-2.8-2.1-3.4-3.8c-0.6-1.6-0.8-3.4-0.8-5.2c0-1.7,0.2-3.5,0.7-5.2
						c0.5-1.7,1.1-3.3,2-4.8l0.1,0c-0.4,1.7-0.8,3.3-1.2,5c-0.3,1.7-0.7,3.3-0.9,5c-0.1,1.7-0.1,3.4,0.5,5
						C335.9,320.9,337,322.3,338.4,323.3L338.4,323.3z"/>
					<path class="st5" d="M359.5,303.5c0.7,1.6,1.2,3.3,1.6,5c0.4,1.7,0.7,3.5,0.7,5.3c0,1.8-0.1,3.6-0.7,5.3
						c-0.7,1.7-1.7,3.3-3.1,4.4l-0.1-0.1c1-1.5,1.8-3,2.3-4.6c0.5-1.6,0.8-3.3,0.9-5.1c0.1-1.7-0.1-3.5-0.4-5.2
						C360.4,307,360,305.2,359.5,303.5L359.5,303.5z"/>
					<path class="st5" d="M344.4,307.7c-0.2,0-0.4,0-0.6-0.1l0.3-0.8c0.2,0.1,0.9,0,1.5-0.2c-0.4-0.4-0.9-0.7-1.3-0.6
						c-0.8,0.1-1.5,1.1-1.7,1.4l-0.8-0.4c0-0.1,0.9-1.8,2.4-1.9c0.9-0.1,1.7,0.4,2.5,1.4l0.4,0.5l-0.5,0.2
						C346.3,307.2,345.2,307.7,344.4,307.7z"/>
					<path class="st5" d="M352.1,308.6c-0.2,0-0.4,0-0.6-0.1l0.3-0.8c0.2,0.1,0.9,0,1.5-0.2c-0.4-0.4-0.9-0.7-1.3-0.6
						c-0.8,0.1-1.5,1.1-1.7,1.4l-0.8-0.4c0-0.1,0.9-1.8,2.4-1.9c0.9-0.1,1.7,0.4,2.5,1.4l0.4,0.5l-0.5,0.2
						C354.1,308.2,353,308.6,352.1,308.6z"/>
					<path class="st5" d="M349.2,325.1c-4.3,0-8.1-1.4-8.4-1.4l0.3-0.8c0.1,0,8,2.9,13.7,0.3l0.4,0.8
						C353.3,324.8,351.2,325.1,349.2,325.1z"/>
					<path class="st5" d="M347.9,327.8c-4-0.4-7-4.1-7-4.1l0.3-0.8c2,3,8.8,7.3,13.7,0.3l0.4,0.8C353.5,326.3,351.9,328,347.9,327.8
						z"/>
					<path class="st5" d="M348.1,316.5c-1.2,0-2.1-1.2-2.2-1.3l0.7-0.5c0.2,0.3,0.9,1,1.5,0.9c0.4,0,0.8-0.4,1.1-1.1l0.8,0.4
						c-0.5,1-1.1,1.5-1.9,1.6C348.3,316.5,348.2,316.5,348.1,316.5z"/>
					<path class="st5" d="M353,308.7c-0.1,0-0.2,0-0.3,0c-0.7-0.1-1.2-0.8-1.1-1.4c0.1-0.3,0.2-0.5,0.5-0.7c0.3-0.2,0.7-0.3,1-0.2
						c0.7,0.1,1.2,0.8,1.1,1.4l0,0c-0.1,0.3-0.2,0.5-0.5,0.7C353.6,308.6,353.3,308.7,353,308.7z M352.9,307.2c-0.1,0-0.2,0-0.3,0.1
						c0,0-0.1,0.1-0.1,0.1c0,0.1,0.1,0.3,0.4,0.3c0.1,0,0.3,0,0.4-0.1c0,0,0.1-0.1,0.1-0.1l0,0c0-0.1-0.1-0.3-0.4-0.3
						C353,307.2,352.9,307.2,352.9,307.2z"/>
					<path class="st5" d="M345,307.8c-0.1,0-0.2,0-0.3,0c-0.7-0.1-1.2-0.8-1.1-1.4c0.1-0.3,0.2-0.5,0.5-0.7c0.3-0.2,0.7-0.3,1-0.2
						c0.7,0.1,1.2,0.8,1.1,1.4l0,0c-0.1,0.3-0.2,0.5-0.5,0.7C345.6,307.7,345.3,307.8,345,307.8z M344.9,306.3c-0.1,0-0.2,0-0.3,0.1
						c0,0-0.1,0.1-0.1,0.1c0,0.1,0.1,0.3,0.4,0.3c0.1,0,0.3,0,0.4-0.1c0,0,0.1-0.1,0.1-0.1l0,0c0-0.1-0.1-0.3-0.4-0.3
						C345,306.3,344.9,306.3,344.9,306.3z"/>
					<path class="st5" d="M348.5,303.2c-0.1,0-0.2,0-0.3,0c-2.3-0.2-3.6-2.6-3.7-2.7l0.8-0.4c0,0,1.1,2,3,2.2
						c1.4,0.1,2.8-0.8,4.3-2.6l0.7,0.6C351.7,302.2,350.1,303.2,348.5,303.2z"/>
					<path class="st5" d="M355.9,313.6c-2.2,0-4.9-2.4-5.3-2.8l0.6-0.7c1,0.9,4.3,3.4,5.5,2.3l0.6,0.7
						C356.9,313.5,356.4,313.6,355.9,313.6z"/>
					<path class="st5" d="M340,312.5c-0.7,0-1.4-0.2-1.9-0.8l0.7-0.6c1.1,1.3,4.7-0.5,5.8-1.3l0.5,0.8
						C344.7,310.8,342.1,312.5,340,312.5z"/>
					<path class="st5" d="M350.9,316.2l-0.8-0.4c0.2-0.5,0.2-1.7-0.1-1.9c0,0-0.2,0-0.5,0.3l-0.6-0.7c0.8-0.7,1.3-0.5,1.6-0.3
						C351.2,313.8,351.2,315.5,350.9,316.2z"/>
					<path class="st5" d="M345.1,316c-0.2-0.7,0-2.4,0.9-2.9c0.3-0.1,0.8-0.2,1.5,0.6l-0.7,0.6c-0.2-0.3-0.4-0.3-0.4-0.3
						c-0.3,0.1-0.5,1.3-0.4,1.8L345.1,316z"/>
				</g>
				<path class="st5" d="M340.3,310.9c-0.3,0-0.6-0.1-0.8-0.2c-0.3-0.1-0.4-0.4-0.4-0.7l0.3,0c0,0.2,0.1,0.4,0.3,0.5
					c0.9,0.5,3.4-0.5,4.3-0.9l0.1,0.3C344,309.9,341.8,310.9,340.3,310.9z"/>
				<path class="st5" d="M354.4,311.8c-1.4,0-3.7-1.6-4-1.8l0.3-0.5c1.1,0.8,3.2,1.9,3.9,1.6c0.1-0.1,0.2-0.1,0.3-0.3l0.6,0.2
					c-0.1,0.4-0.3,0.6-0.6,0.7C354.7,311.8,354.6,311.8,354.4,311.8z"/>
			</g>
		</g>
		<g>
			<path class="st6" d="M291.1,385.8c18.2,6.6,83.9,13.6,124.2-8.6"/>
			<path class="st6" d="M287.9,385.3c18.7,5,84.8,6.1,122.9-19.5"/>
			<path class="st6" d="M304.1,382.3c9.4,2.5,43.4,5.2,64.3-3.3"/>
			<path class="st6" d="M288.4,375.6c16.5,10.1,79.6,29.9,123.4,16.2"/>
			<path class="st6" d="M408.7,386c-11.8,6.9-68.5,24.3-120.3,10.9"/>
			<path class="st6" d="M399,397c-41.5,10.5-76.4,5.4-110.3-13.5"/>
			<path class="st6" d="M388.7,410.2c-29.1,5.8-78.5-1.8-102.9-24.2"/>
			<path class="st6" d="M315.8,406.6c22.2,4.6,53.5,4.6,79.7-2.2"/>
			<path class="st6" d="M413.4,386c0,16.8-27.9,30.4-62.3,30.4s-62.3-13.6-62.3-30.4"/>
			<path class="st7" d="M291.5,361.7c-6.4-4.9-15.3-6.7-19.1-10.5c-0.9,6.5,1.8,12.8,8.1,17.7c6.4,4.9,17.6,5.5,17.6,5.5
				S297.9,366.6,291.5,361.7z"/>
			<path class="st7" d="M295.1,359.2c-0.4-5,1.8-10.3,1.1-13.6c3.7,1.8,6.1,5.4,6.4,10.4c0.4,5-3.2,11.1-3.2,11.1
				S295.5,364.2,295.1,359.2z"/>
			<path class="st7" d="M280.8,382.3c-4.9-1.2-9.2-4.9-12.6-5.3c2.8-3,7-4.1,11.8-2.9c4.9,1.2,9.5,6.5,9.5,6.5
				S285.7,383.5,280.8,382.3z"/>
			<path class="st7" d="M410.3,362c-3.5,3.6-8.9,5.5-10.9,8.2c-1.1-4,0-8.1,3.5-11.7c3.5-3.6,10.4-5,10.4-5S413.8,358.4,410.3,362z"
				/>
			<path class="st7" d="M419.6,374.2c-4.9,1.3-10.5,0.1-13.6,1.4c1.1-4,4.2-6.9,9-8.2s11.5,1.1,11.5,1.1S424.5,373,419.6,374.2z"/>
		</g>
	</g>
</g>
<line class="st0" x1="25" y1="956.9" x2="475" y2="956.9"/>
<path id="XMLID_2_" class="st8" d="M80.2,899.8c-0.5,2.4-0.9,4.5-1.3,6.7c-0.1,0.5-0.1,1-0.1,1.4c0,2.2,0.1,4.4,0.2,6.6
	c0,1.7-0.1,3.4,0.5,5.1c0.2,0.6,0.1,1.3,0.1,2c-0.2,3.9-0.5,7.7-0.6,11.6c-0.1,2.5,0.2,5,0.4,7.5c0,0.2,0,0.4,0.2,0.6
	c1.8,2.3,1.3,5.3,2.1,7.9c0.2,0.8-0.1,1.8-0.3,2.7c0,0.2-0.5,0.3-0.8,0.4c-2.3,0.2-4.6,0.7-7,0.2c-1.6-0.3-3.1,0-4.7,0.5
	c-3.1,0.9-6.2,1.3-9.4,1.1c-0.2,0-0.4,0-0.6-0.1c-0.9-0.3-2-0.5-2.1-1.7c-0.1-1.2,0.8-1.6,1.7-2.1c1.2-0.6,2.3-1.2,3.5-1.8
	c1.8-0.9,2.4-2.7,3.4-4.3c0.7-1.1,2-2,2.1-3.5c0-0.9,0-1.7-0.1-2.6c-0.2-1.8-0.6-3.6-0.6-5.5c0-1.8,0.5-3.7,0.6-5.5
	c0.1-0.7,0.1-1.5-0.3-2.1c-1.8-3.3-2-6.7-1.6-10.3c0.3-2.9,0.3-5.8,0.3-8.7c0-1.6-0.1-3.2,0-4.8c0.1-1.9-0.3-3.7-0.7-5.5
	c-0.1-0.2-0.2-0.5-0.2-0.7c-0.1-2-0.7-3.4-2.3-4.8c-1.7-1.4-2.5-3.5-2.4-5.8c0.1-1.4,0.3-2.8,0.3-4.2c0-1.4-0.2-2.7-0.2-4.1
	c0-4,0.1-7.9,0-11.9c-0.1-3.5,1-6.8,1.6-10.1c0.1-0.7,0.3-1.4,0.4-2.1c0.1-0.8,0.1-1.5-0.9-1.8c-0.2-0.1-0.4-0.4-0.4-0.6
	c0.1-1.1,0.4-2.2,0.5-3.2c0.3-3.2,0.5-6.5,1-9.7c0.3-2.2,0.3-4.6,2-6.4c2-2,3.8-4.2,6.3-5.6c0.3-0.1,0.5-0.4,0.7-0.6
	c0.7-0.6,0.7-0.6,0.1-1.4c1-0.5,2-0.9,3.1-1.4c-0.6-1.7-0.1-3.8-1.4-5.5c-0.3-0.3-0.1-1-0.3-1.4c-0.4-1.1-0.9-2.1-1.2-3.1
	c-0.4-1.1-0.7-2.2-0.9-3.4c-0.2-1.3-0.3-2.6-0.3-3.9c0-0.3,0.1-0.5,0.2-0.8c0.1-0.6,0.2-1.2,0.3-1.8c0.1-0.4,0-0.8,0.2-1
	c1.4-1.5,2.9-2.8,5.2-2.9c1.5,0,3-0.2,4.5-0.2c1.9,0,4.3,1.6,5,4c0.5,1.5,0.1,3.1,0.6,4.4c0.6,1.5-0.2,2.9-0.2,4.4
	c0,0.4-0.2,0.9-0.5,1.2c-1.4,1.5-1,4.8-1.1,6.7c1,0.1,1.9,0.2,2.9,0.3c-0.2,0.7-0.4,1.5-0.7,2.4c1.8,1,2.9,0.8,5.5,1.5
	c4.7,0,8.5,6.9,9.2,12.9c0.4,3.5,0.6,7,1,10.4c0.1,0.9,0.2,1.8,0.3,2.8c-0.4,0.1-0.9,0.2-1.5,0.4c0,2.1,0.2,4.3,0,6.5
	c-0.3,2.7-0.7,5.4-1.3,8.1c-0.4,1.9-1,3.7-1.6,5.6c-0.3,0.9-0.8,1.7-1.1,2.5c-0.2,0.6-0.4,1.2-0.3,1.8c0.2,2,0.7,3.9,0.8,5.9
	c0.1,2-0.2,3.9-0.4,5.9c-0.3,3.3-0.6,6.6-0.2,9.9c0.4,3.8-0.1,7.6-0.7,11.4c-0.3,1.7-0.3,3.5,0.1,5.1c1.1,4,1,8,1,12
	c0.1,6.2-0.2,12.5-0.2,18.7c0,1.4,0.5,2.8,0.6,4.2c0.2,2.2,0.2,4.5,0.3,6.7c0.1,0.7,0.4,1.5,0.5,2.2c0.3,1.4-0.1,2.2-1.5,2.3
	c-2.2,0.1-4.4,0.1-6.5,0c-1,0-1.5-0.7-1.5-1.7c-0.1-2.3-1.3-4-3-5.4c-0.4-0.3-0.6-0.8-0.8-1.3c-0.6-1.4-1.2-2.7-1.5-4.2
	c-0.2-1,0-2.1,0.1-3.1c0.3-3.6,0.6-7.1,1-10.7c0.2-2.2,0.3-4.4,1.4-6.4c0.1-0.2,0.1-0.5,0-0.8c-0.7-3.1-1.2-6.2-1.8-9.4
	c-0.6-3.6-2.1-7.1-3.2-10.6C81.2,902.4,80.7,901.2,80.2,899.8z"/>
<g>
	<text transform="matrix(1 0 0 1 40.127 483.6426)" class="st9 st10 st11"> 30 a 40 m</text>
</g>
<g>
	<g>
		<line class="st12" x1="32" y1="348.4" x2="32" y2="957"/>
		<g>
			<polygon class="st8" points="22,351.3 32,334 42,351.3 			"/>
		</g>
	</g>
</g>
<g>
	<text transform="matrix(1 0 0 1 361.5696 73.4087)" class="st9 st13 st14">Dosel forestal</text>
</g>
<g>
	<g>
		<path class="st15" d="M361.2,233.2c12-1.8,50.4-18,53.8-151.2"/>
		<g>
			<path class="st9" d="M361.7,236.8c-2.1,0.1-3.9-1.4-4-3.5s1.4-3.9,3.5-4c2.1-0.1,3.9,1.4,4,3.5S363.7,236.7,361.7,236.8z"/>
		</g>
	</g>
</g>
</svg>
