<?xml version="1.0" encoding="utf-8"?>
<!-- Generator: Adobe Illustrator 26.0.1, SVG Export Plug-In . SVG Version: 6.00 Build 0)  -->
<svg version="1.1" id="Capa_2" xmlns="http://www.w3.org/2000/svg" xmlns:xlink="http://www.w3.org/1999/xlink" x="0px" y="0px"
	 viewBox="0 0 1000 756" style="enable-background:new 0 0 1000 756;" xml:space="preserve">
<style type="text/css">
	.st0{fill:#E95100;}
	.st1{fill:none;}
	.st2{font-family:'Roboto-Medium';}
	.st3{font-size:31px;}
	.st4{font-family:'Roboto-Bold';}
	.st5{font-size:82px;}
	.st6{fill:none;stroke:#000000;stroke-miterlimit:10;}
	.st7{font-family:'Roboto-Regular';}
	.st8{font-size:25px;}
	.st9{font-size:32px;}
	.st10{font-size:24px;}
	.st11{fill:none;stroke:#000000;stroke-width:4;stroke-miterlimit:10;}
</style>
<rect x="532" y="228" class="st0" width="402" height="33"/>
<rect x="532" y="333" class="st0" width="223" height="33"/>
<rect x="532" y="435" class="st0" width="41" height="33"/>
<rect x="532" y="540" class="st0" width="41" height="33"/>
<rect x="534" y="644" class="st0" width="33" height="33"/>
<rect x="532" y="270" class="st1" width="171" height="36"/>
<text transform="matrix(1 0 0 1 532 293.25)" class="st2 st3">1 Indonesia</text>
<rect x="531.9" y="378.4" class="st1" width="171" height="36"/>
<text transform="matrix(1 0 0 1 531.9198 401.6376)" class="st2 st3">2 Malasia</text>
<rect x="532.2" y="477.4" class="st1" width="215.8" height="36"/>
<text transform="matrix(1 0 0 1 532.1927 500.6376)" class="st2 st3">3 Guatemala</text>
<rect x="531.8" y="585.4" class="st1" width="324.2" height="36"/>
<text transform="matrix(1 0 0 1 531.7893 608.6378)" class="st2 st3">4 Papua Nueva Guinea</text>
<rect x="531.9" y="693.4" class="st1" width="324.2" height="36"/>
<text transform="matrix(1 0 0 1 531.8956 716.6375)" class="st2 st3">5 Colombia</text>
<rect x="73" y="126" class="st1" width="297" height="99"/>
<text transform="matrix(1 0 0 1 73 187.5)" class="st4 st5">$8.7bn</text>
<line class="st6" x1="82" y1="207" x2="469" y2="207"/>
<line class="st6" x1="82" y1="323.5" x2="469" y2="323.5"/>
<line class="st6" x1="82" y1="548.5" x2="469" y2="548.5"/>
<line class="st6" x1="82" y1="656.5" x2="469" y2="656.5"/>
<rect x="847" y="279" class="st1" width="90" height="27"/>
<text transform="matrix(1 0 0 1 847 297.75)" class="st7 st8">$4.2 bn</text>
<rect x="541" y="162" class="st1" width="108" height="36"/>
<text transform="matrix(1 0 0 1 541 186)" class="st7 st9">Top 5</text>
<rect x="856.2" y="377.5" class="st1" width="90" height="27"/>
<text transform="matrix(1 0 0 1 856.1556 396.2577)" class="st7 st8">$2.3 bn</text>
<rect x="859" y="485.5" class="st1" width="90" height="27"/>
<text transform="matrix(1 0 0 1 859.0109 504.2576)" class="st7 st8">$383m</text>
<rect x="855.5" y="584.5" class="st1" width="90" height="27"/>
<text transform="matrix(1 0 0 1 855.5209 603.2578)" class="st7 st8">$332m</text>
<rect x="864.3" y="692.5" class="st1" width="90" height="27"/>
<text transform="matrix(1 0 0 1 864.2557 711.2579)" class="st7 st8">$321m</text>
<rect x="82" y="666" class="st1" width="54" height="54"/>
<text transform="matrix(1 0 0 1 82 684)" class="st7 st10">$0</text>
<rect x="172.1" y="665.9" class="st1" width="80.9" height="27.1"/>
<text transform="matrix(1 0 0 1 172.0663 683.9283)" class="st7 st10">2000</text>
<rect x="234.6" y="666" class="st1" width="80.9" height="27.1"/>
<text transform="matrix(1 0 0 1 234.5993 683.9651)" class="st7 st10">2005</text>
<rect x="297.6" y="666" class="st1" width="80.9" height="27.1"/>
<text transform="matrix(1 0 0 1 297.5995 683.9658)" class="st7 st10">2010</text>
<rect x="360.6" y="666" class="st1" width="80.9" height="27.1"/>
<text transform="matrix(1 0 0 1 360.5994 683.9655)" class="st7 st10">2015</text>
<rect x="423.6" y="666" class="st1" width="80.9" height="27.1"/>
<text transform="matrix(1 0 0 1 423.5994 683.9655)" class="st7 st10">2019</text>
<rect x="529.8" y="888.1" class="st1" width="1.2" height="2.9"/>
<rect x="72.6" y="558" class="st1" width="80.9" height="27.1"/>
<text transform="matrix(1 0 0 1 72.5993 575.9651)" class="st7 st10">$4.5bn</text>
<rect x="73.1" y="441" class="st1" width="80.9" height="27.1"/>
<text transform="matrix(1 0 0 1 73.063 458.9658)" class="st7 st10">$9bn</text>
<rect x="72.6" y="333" class="st1" width="90.4" height="18"/>
<text transform="matrix(1 0 0 1 72.5994 350.9655)" class="st7 st10">$13.5bn</text>
<line class="st6" x1="73" y1="431.5" x2="460" y2="431.5"/>
<rect x="73.6" y="216" class="st1" width="80.9" height="27.1"/>
<text transform="matrix(1 0 0 1 73.5993 233.9656)" class="st7 st10">$18bn</text>
<polyline class="st11" points="199,621 217,603 235,558 253,567 271,549 307,387 316,414 343,243 370,342 397,396 406,441 424,396 
	433,414 451,432 "/>
<rect x="910" y="108" class="st1" width="2.1" height="3.3"/>
<rect x="684" y="445.9" class="st1" width="3.6" height="4.1"/>
</svg>
