<?xml version="1.0" encoding="utf-8"?>
<!-- Generator: Adobe Illustrator 26.0.1, SVG Export Plug-In . SVG Version: 6.00 Build 0)  -->
<svg version="1.1" id="Capa_1" xmlns="http://www.w3.org/2000/svg" xmlns:xlink="http://www.w3.org/1999/xlink" x="0px" y="0px"
	 viewBox="0 0 749.283 335.2014" style="enable-background:new 0 0 749.283 335.2014;" xml:space="preserve">
<style type="text/css">
	.st0{enable-background:new    ;}
	.st1{fill:#121510;}
	.st2{font-family:'Roboto-Regular';}
	.st3{font-size:14.2265px;}
	.st4{font-family:'Roboto-Bold';}
	.st5{fill:#8F8D8E;}
	.st6{fill:#5B5B5F;}
	.st7{fill:#1A1C17;}
	.st8{fill:none;}
	.st9{fill:none;stroke:#C2C3C8;stroke-width:0.5;stroke-linecap:round;stroke-linejoin:round;stroke-miterlimit:10;}
	.st10{fill:none;stroke:#191B16;stroke-width:0.5;stroke-linecap:round;stroke-linejoin:round;stroke-miterlimit:10;}
	.st11{fill:none;stroke:#E65100;stroke-linecap:round;stroke-linejoin:round;stroke-miterlimit:10;}
	.st12{fill:none;stroke:#DEDEDF;stroke-linecap:round;stroke-linejoin:round;stroke-miterlimit:10;}
	.st13{fill:none;stroke:#000000;stroke-linecap:round;stroke-linejoin:round;stroke-miterlimit:10;}
</style>
<g>
	<g>
		<text transform="matrix(1 0 0 1 20.6691 193.9735)" class="st0"><tspan x="0" y="0" class="st1 st2 st3">Hominidae</tspan><tspan x="0" y="17.0723" class="st1 st2 st3">(Homínidos)</tspan></text>
	</g>
	<g>
		<text transform="matrix(1 0 0 1 139.5251 141.2763)" class="st4 st3">Ponginae</text>
	</g>
	<g>
		<text transform="matrix(1 0 0 1 139.5251 263.7401)" class="st4 st3">Homininae</text>
	</g>
	<g>
		<text transform="matrix(1 0 0 1 259.5534 236.5311)" class="st5 st2 st3">Gorillini</text>
	</g>
	<g>
		<text transform="matrix(1 0 0 1 259.5539 290.9501)" class="st4 st3">Hominini</text>
	</g>
	<g>
		<text transform="matrix(1 0 0 1 368.1359 141.2763)" class="st4 st3">Pongo</text>
	</g>
	<g>
		<text transform="matrix(1 0 0 1 647.1652 64.2929)" class="st4 st3">P. p. pygmaeus</text>
	</g>
	<g>
		<text transform="matrix(1 0 0 1 647.1652 92.37)" class="st4 st3">P. p. morio</text>
	</g>
	<g>
		<text transform="matrix(1 0 0 1 460.7775 80.0477)"><tspan x="0" y="0" class="st4 st3">Pongo pygmaeus </tspan><tspan x="0" y="17.0718" class="st4 st3">Orangután de Borneo</tspan></text>
	</g>
	<g>
		<text transform="matrix(1 0 0 1 460.7775 298.1571)"><tspan x="0" y="0" class="st4 st3">Homo sapiens</tspan><tspan x="0" y="17.0723" class="st4 st3">Humano</tspan></text>
	</g>
	<g>
		<text transform="matrix(1 0 0 1 460.7775 134.6815)"><tspan x="0" y="0" class="st5 st2 st3">Pongo abelii </tspan><tspan x="0" y="17.0718" class="st5 st2 st3">Orangután de Sumatra</tspan></text>
	</g>
	<g>
		<text transform="matrix(1 0 0 1 460.7775 189.3163)"><tspan x="0" y="0" class="st5 st2 st3">Pongo tapanuliensis</tspan><tspan x="0" y="17.0723" class="st5 st2 st3">Orangután de Tapanuli</tspan></text>
	</g>
	<g>
		<text transform="matrix(1 0 0 1 647.1652 120.4476)" class="st4 st3">P. p. wurmbii</text>
	</g>
	<g>
		<text transform="matrix(1 0 0 1 368.1359 236.5311)" class="st5 st2 st3">Gorilla</text>
	</g>
	<g>
		<text transform="matrix(1 0 0 1 368.1359 306.826)" class="st4 st3">Homo</text>
	</g>
	<g>
		<text transform="matrix(1 0 0 1 368.1374 275.0751)" class="st6 st2 st3">Pan</text>
	</g>
	<g>
		<text transform="matrix(1 0 0 1 20.6691 21.6962)" class="st7 st2 st3">Familia</text>
	</g>
	<g>
		<text transform="matrix(1 0 0 1 139.5251 21.6962)" class="st7 st2 st3">Subfamilia</text>
	</g>
	<g>
		<text transform="matrix(1 0 0 1 267.3195 21.6962)" class="st7 st2 st3">Tribu</text>
	</g>
	<g>
		<text transform="matrix(1 0 0 1 368.1359 21.6972)" class="st7 st2 st3">Género</text>
	</g>
	<g>
		<text transform="matrix(1 0 0 1 505.2404 21.6972)" class="st7 st2 st3">Especie</text>
	</g>
	<g>
		<text transform="matrix(1 0 0 1 647.1633 21.6972)" class="st7 st2 st3">Subespecie</text>
	</g>
	<g>
		<g>
			<path class="st8" d="M112.0896,30.8807"/>
		</g>
		<line class="st9" x1="112.0893" y1="28.1037" x2="112.0893" y2="5.4432"/>
	</g>
	<g>
		<g>
			<path class="st8" d="M232.7504,30.8807"/>
		</g>
		<line class="st9" x1="232.7502" y1="28.1037" x2="232.7502" y2="4.5305"/>
	</g>
	<g>
		<g>
			<path class="st8" d="M336.6446,30.8807"/>
		</g>
		<line class="st9" x1="336.6443" y1="28.1037" x2="336.6443" y2="4.984"/>
	</g>
	<g>
		<g>
			<path class="st8" d="M440.6563,30.8807"/>
		</g>
		<line class="st9" x1="440.656" y1="28.1037" x2="440.656" y2="4.984"/>
	</g>
	<g>
		<g>
			<path class="st8" d="M620.2728,30.8807"/>
		</g>
		<line class="st9" x1="620.2725" y1="28.1037" x2="620.2725" y2="4.984"/>
	</g>
	<line class="st10" x1="0" y1="28.1034" x2="751.2783" y2="28.1034"/>
	<path class="st11" d="M93.3709,195.6606c21.3071,0,20.2468-57.9669,42.8132-57.9669"/>
	<line class="st11" x1="364.5878" y1="137.6936" x2="202.694" y2="137.6936"/>
	<line class="st12" x1="364.5878" y1="231.8245" x2="312.4154" y2="231.8245"/>
	<path class="st13" d="M136.1842,258.2243c-21.3071,0-20.2468-62.5638-42.8132-62.5638"/>
	<path class="st12" d="M211.3437,259.9832c21.3071,0,20.2468-28.1587,42.8132-28.1587"/>
	<path class="st13" d="M254.1569,287.183c-21.3071,0-20.2468-27.1998-42.8132-27.1998"/>
	<path class="st11" d="M413.7462,138.173c21.3071,0,20.2468-54.5287,42.8132-54.5287"/>
	<path class="st12" d="M456.5594,192.7684c-21.307,0-20.2468-54.5953-42.8132-54.5953"/>
	<path class="st13" d="M319.3748,286.93c21.3071,0,20.2468-17.2705,42.8133-17.2705"/>
	<path class="st13" d="M362.188,302.9144c-21.3071,0-20.2468-15.9844-42.8133-15.9844"/>
	<line class="st12" x1="456.5594" y1="138.173" x2="414.3706" y2="138.173"/>
	<line class="st13" x1="456.5594" y1="302.9144" x2="414.3706" y2="302.9144"/>
	<line class="st12" x1="445.5907" y1="269.6595" x2="414.3706" y2="269.6595"/>
	<line class="st12" x1="445.5907" y1="231.8245" x2="414.3706" y2="231.8245"/>
	<path class="st11" d="M599.7643,86.6808c21.3071,0,20.2468-27.2643,42.8132-27.2643"/>
	<path class="st11" d="M642.5776,116.1028c-21.307,0-20.2468-29.422-42.8132-29.422"/>
	<line class="st11" x1="642.5776" y1="86.6808" x2="600.3888" y2="86.6808"/>
	<g>
		<text transform="matrix(1 0 0 1 446.8303 232.4999)" class="st5 st2 st3">...</text>
	</g>
	<g>
		<text transform="matrix(1 0 0 1 446.8303 270.3358)" class="st5 st2 st3">...</text>
	</g>
</g>
</svg>
