<?xml version="1.0" encoding="utf-8"?>
<!-- Generator: Adobe Illustrator 26.0.1, SVG Export Plug-In . SVG Version: 6.00 Build 0)  -->
<svg version="1.1" id="Capa_1" xmlns="http://www.w3.org/2000/svg" xmlns:xlink="http://www.w3.org/1999/xlink" x="0px" y="0px"
	 viewBox="0 0 1700 1300" style="enable-background:new 0 0 1700 1300;" xml:space="preserve">
<style type="text/css">
	.st0{fill:#070508;}
	.st1{font-family:'Roboto-Bold';}
	.st2{font-size:41.5px;}
	.st3{fill:#191C17;}
	.st4{font-family:'BarlowSemiCondensed-Light';}
	.st5{font-size:97.1941px;}
	.st6{fill:none;stroke:#191B16;stroke-width:3.4245;stroke-miterlimit:10;stroke-dasharray:11.4138,11.4138;}
	.st7{fill:none;stroke:#191B16;stroke-width:8.0995;stroke-linecap:round;stroke-linejoin:round;stroke-miterlimit:10;}
	.st8{font-family:'Roboto-Regular';}
	.st9{fill:#8F8D8E;}
	.st10{fill:#E65100;}
	.st11{fill:#FFFFFF;}
	.st12{fill:#FFFFFF;stroke:#090609;stroke-width:1.4094;stroke-miterlimit:10;}
	.st13{fill:none;stroke:#090609;stroke-width:1.4094;stroke-miterlimit:10;}
	.st14{fill:none;stroke:#C74E0B;stroke-width:2.8543;stroke-miterlimit:10;}
	.st15{fill:none;stroke:#C74E0B;stroke-width:2.8544;stroke-miterlimit:10.0004;}
	.st16{fill:#C6653B;stroke:#C74E0B;stroke-width:1.8791;stroke-miterlimit:10;}
	.st17{fill:#C6653B;stroke:#C74E0B;stroke-width:1.8791;stroke-miterlimit:9.9998;}
	.st18{fill:none;stroke:#C74E0B;stroke-width:2.8544;stroke-miterlimit:10.0005;}
	.st19{opacity:0.64;}
	.st20{fill:none;stroke:#100D10;stroke-width:1.8791;stroke-miterlimit:10;}
	.st21{fill:#7D1A1D;stroke:#C74E0B;stroke-width:1.8791;stroke-miterlimit:10;}
</style>
<g>
	<g>
		<g>
			<text transform="matrix(1.0045 0 0 1 825.0475 1081.6849)" class="st0 st1 st2">Macho</text>
			<text transform="matrix(1.0045 0 0 1 838.7875 1187.4701)" class="st0 st1 st2">90 kg</text>
		</g>
	</g>
	<g>
		<g>
			<text transform="matrix(1.0045 0 0 1 818.8191 417.6947)" class="st0 st1 st2">100 cm</text>
		</g>
	</g>
	<g>
		<g>
			<text transform="matrix(1.0045 0 0 1 1269.3696 1081.6849)" class="st0 st1 st2">Hembra</text>
		</g>
		<text transform="matrix(1 0 0 1 1496.9308 1081.6849)" class="st3 st4 st5"> </text>
		<g>
			<text transform="matrix(1.0045 0 0 1 1291.6782 1187.4701)" class="st0 st1 st2">40 kg</text>
		</g>
	</g>
	<g>
		<g>
			<text transform="matrix(1.0045 0 0 1 1285.5923 541.1273)" class="st0 st1 st2">80 cm</text>
		</g>
	</g>
	<g>
		<line class="st6" x1="299.6" y1="448.6" x2="1571.2" y2="448.6"/>
		<line class="st7" x1="299.6" y1="962.1" x2="1571.2" y2="962.1"/>
		<line class="st6" x1="299.6" y1="192.6" x2="1571.2" y2="192.6"/>
		<line class="st6" x1="299.6" y1="706.1" x2="1571.2" y2="706.1"/>
		<g>
			<g>
				<text transform="matrix(1.0045 0 0 1 175.5832 978.7367)" class="st0 st8 st2">0 cm</text>
			</g>
		</g>
		<g>
			<g>
				<text transform="matrix(1.0045 0 0 1 152.1749 724.2767)" class="st0 st8 st2">50 cm</text>
			</g>
		</g>
		<g>
			<g>
				<text transform="matrix(1.0045 0 0 1 128.7672 465.3422)" class="st0 st8 st2">100 cm</text>
			</g>
		</g>
		<g>
			<g>
				<text transform="matrix(1.0045 0 0 1 128.7672 205.6791)" class="st0 st8 st2">150 cm</text>
			</g>
		</g>
	</g>
	<path id="XMLID_52_" class="st9" d="M461.6,659.1c-11.7,41.4-4.5,80.3-1.6,121.5c-2.3,36.2-6.3,75,0,110.2
		c31.4,83.8-1.2,53-59.9,64.8c-15.3,8.2-93.3,13.8-56.7-14.6c17.6-7.4,30.5-15.3,38.9-34c20.4-17.8,7.5-41.2,8.1-64.8
		c-0.1-13.7,6.3-28.6,1.6-42.1c-27.9-58.3,18.8-139.6-25.9-191.1c-25-15.2-12.2-172.1-3.2-202.5c0.1-6.7,5.5-18.1-3.2-21.1
		c-2.1-22.1,6.6-50.3,6.5-74.5c-1.7-32.4,27.2-51.8,48.6-69.7c4.1-14.5-1-7.4,17.8-16.2c-4-38.6-33.7-78.3-17.8-118.3
		c29.5-30.4,90.5-25.8,85.8,29.2c4.9,23.8-17,42.6-11.3,68c33.2-0.4-10.4,18.8,42.1,22.7c69.4,18,52.7,132.3,48.6,181.4
		c-2.5,33.4-12.4,68.5-22.7,100.4c10.4,70.2-2.9,141.9-3.2,212.2c12.1,56.1,3.8,113.4,4.9,170.1c-0.6,14.4,16.9,89.5,0,85.9
		c-13-3.3-41.4,9-43.7-9.7c-4-29.1-37.4-44.7-29.2-77.8C497,809.8,502,732.9,461.6,659.1z"/>
	<g>
		<path class="st10" d="M659.2,824.4c-11.3,16.2-14.6,35.6-8.1,55.1c0,9.7,4.9,48.6,27.5,63.2c1.6,1.6,3.2,1.6,4.9,0
			c1.6,0,1.6-1.6,1.6-3.2v-6.5c6.5,11.3,16.2,24.3,27.5,30.8c1.6,1.6,3.2,0,4.9,0c1.6-1.6,1.6-3.2,1.6-4.9l-1.6-11.3
			c9.7,8.1,27.5,21.1,48.6,22.7l0,0c1.6,0,3.2,0,3.2-1.6c1.6-1.6,1.6-3.2,0-4.9l-1.6-4.9c27.5,6.5,61.6,9.7,97.2,9.7
			c1.6,0,4.9-1.6,4.9-4.9c0,0,0,0,0-1.6c1.6,0,4.9,1.6,8.1,1.6c3.2,3.2,8.1,4.9,13,4.9c22.7,0,37.3,0,37.3,0c1.6,0,3.2,0,4.9,0h1.6
			c35.6,0,68-3.2,97.2-9.7l-1.6,4.9c0,1.6,0,3.2,0,4.9s1.6,1.6,3.2,1.6l0,0c21.1-3.2,38.9-14.6,48.6-22.7l-1.6,11.3
			c0,1.6,0,3.2,1.6,4.9s3.2,1.6,4.9,0c11.3-6.5,21.1-19.4,27.5-30.8v6.5c0,1.6,0,3.2,1.6,3.2c1.6,1.6,3.2,0,4.9,0
			c24.3-16.2,27.5-59.9,27.5-64.8c4.9-19.4,3.2-38.9-8.1-53.5c-11.3-16.2-30.8-25.9-53.5-27.5c0-1.6,0-3.2,0-4.9l1.6,1.6
			c1.6,0,3.2,0,3.2,0c1.6,0,1.6-1.6,1.6-3.2c4.9-27.5,3.2-51.8,0-68c1.6,1.6,3.2,1.6,4.9,1.6c1.6,0,3.2-1.6,3.2-3.2
			c1.6-72.9-32.4-124.7-35.6-129.6c-13-22.7-29.2-43.7-50.2-63.2c-6.5-13-14.6-22.7-21.1-29.2c1.6,0,3.2,0,3.2-1.6
			c1.6-1.6,1.6-3.2,0-4.9c-13-22.7-29.2-34-43.7-38.9c1.6,0,3.2-1.6,3.2-3.2c0-1.6,0-3.2-1.6-4.9c-25.9-13-51.8-6.5-56.7-4.9
			c-6.5-1.6-32.4-8.1-56.7,4.9c-1.6,1.6-3.2,3.2-1.6,4.9c0,1.6,1.6,3.2,3.2,3.2c-13,4.9-30.8,16.2-43.7,38.9c-1.6,1.6,0,3.2,0,4.9
			c0,1.6,1.6,1.6,3.2,1.6c-6.5,8.1-14.6,17.8-21.1,30.8c-17.8,16.2-32.4,37.3-43.7,61.6c-4.9,6.5-35.6,58.3-34,128
			c0,1.6,1.6,3.2,3.2,3.2c1.6,0,1.6,0,3.2,0c0,1.6,0,4.9,0,8.1c-1.6,19.4-1.6,38.9,1.6,58.3c0,1.6,1.6,3.2,1.6,3.2h1.6
			c0,1.6,0,1.6,0,3.2C691.6,796.8,670.6,806.6,659.2,824.4z M1130.6,827.6c9.7,13,13,30.8,6.5,47v1.6c0,3.2-3.2,34-16.2,51.8
			l1.6-14.6c0-1.6-1.6-3.2-3.2-4.9c-1.6,0-3.2,0-4.9,1.6c0,0-11.3,24.3-25.9,37.3l1.6-13c0-1.6,0-3.2-1.6-4.9c-1.6,0-3.2,0-4.9,1.6
			c0,0-17.8,21.1-43.7,27.5l3.2-4.9v-1.6c0-1.6,0-3.2-1.6-3.2c-1.6,0-1.6-1.6-3.2,0c-27.5,6.5-58.3,11.3-94,13
			c1.6-1.6,3.2-4.9,3.2-8.1c1.6-6.5,4.9-13,11.3-19.4c1.6-1.6,3.2-3.2,4.9-4.9c4.9,24.3,6.5,24.3,9.7,24.3c1.6,0,4.9,0,4.9-4.9
			c1.6-6.5,8.1-21.1,14.6-32.4l4.9,19.4c0,1.6,1.6,3.2,3.2,3.2c1.6,0,3.2-1.6,4.9-3.2c6.5-19.4,13-37.3,17.8-48.6
			c-1.6,9.7-3.2,17.8-3.2,17.8c0,1.6,0,4.9,1.6,4.9c1.6,1.6,4.9,0,4.9-1.6c13-14.6,21.1-30.8,27.5-42.1v3.2c0,1.6,1.6,3.2,3.2,4.9
			c1.6,0,3.2,0,4.9-1.6c17.8-19.4,21.1-48.6,22.7-68C1103.1,804.9,1120.9,814.7,1130.6,827.6z M821.2,490.7c1.6-1.6,1.6-3.2,1.6-4.9
			c-1.6-1.6-3.2-3.2-4.9-1.6l-6.5,1.6c21.1-29.2,50.2-29.2,50.2-29.2c1.6,0,3.2-1.6,4.9-3.2c0-1.6,0-3.2-3.2-4.9
			c-1.6,0-3.2-1.6-4.9-1.6c19.4-4.9,37.3,1.6,37.3,1.6l0,0l0,0l0,0l0,0l0,0l0,0l0,0l0,0c0,0,17.8-6.5,37.3-1.6
			c-1.6,0-3.2,1.6-4.9,1.6c-1.6,0-3.2,3.2-3.2,4.9s1.6,3.2,4.9,3.2c0,0,29.2,0,50.2,29.2l-6.5-1.6c-1.6,0-4.9,0-4.9,1.6
			c-1.6,1.6,0,4.9,1.6,4.9c0,0,24.3,17.8,37.3,51.8l-11.3-4.9c-1.6,0-3.2,0-4.9,1.6c-1.6,1.6-1.6,3.2,0,4.9c0,0,13,19.4,3.2,42.1
			c0,1.6,0,1.6,0,3.2c0,0,14.6,37.3-1.6,72.9V651c0-1.6-1.6-3.2-3.2-4.9c-1.6,0-4.9,1.6-4.9,3.2c0,0-4.9,27.5-29.2,50.2l1.6-22.7
			c0-1.6-1.6-4.9-3.2-4.9c-1.6,0-4.9,1.6-4.9,3.2c0,0-4.9,19.4-19.4,25.9c-16.2,6.5-29.2,19.4-34,27.5c-4.9-8.1-17.8-21.1-34-27.5
			c-14.6-4.9-19.4-25.9-19.4-25.9c0-1.6-3.2-3.2-4.9-3.2c-1.6,0-3.2,1.6-3.2,4.9l1.6,22.7c-24.3-22.7-29.2-50.2-29.2-50.2
			c0-1.6-1.6-3.2-4.9-3.2c-1.6,0-3.2,1.6-3.2,4.9v11.3c-16.2-35.6-1.6-72.9-1.6-72.9c0-1.6,0-3.2,0-3.2c-13-22.7,3.2-42.1,3.2-42.1
			c1.6-1.6,1.6-3.2,0-4.9s-3.2-1.6-4.9-1.6l-11.3,4.9C796.9,508.5,821.2,490.7,821.2,490.7z M712.7,707.7h-1.6
			c1.6-61.6,29.2-106.9,34-111.8l0,0c8.1-16.2,17.8-30.8,27.5-43.7c0,1.6,0,3.2,1.6,3.2c1.6,1.6,3.2,1.6,4.9,0l8.1-3.2
			c-3.2,9.7-6.5,22.7,1.6,38.9c-3.2,9.7-16.2,53.5,11.3,92.3c1.6,1.6,3.2,1.6,4.9,1.6c1.6,0,3.2-1.6,3.2-3.2v-3.2
			c6.5,11.3,16.2,25.9,32.4,38.9c1.6,1.6,3.2,1.6,4.9,0c1.6,0,1.6-1.6,1.6-3.2l-1.6-11.3c3.2,4.9,8.1,9.7,16.2,11.3
			c21.1,8.1,34,27.5,34,29.2l0,0l0,0l0,0l0,0l0,0l0,0l0,0c0,0,0,0,1.6,0l0,0l0,0l0,0l0,0l0,0c0,0,1.6,0,1.6-1.6l0,0
			c0,0,13-21.1,34-29.2c6.5-3.2,11.3-6.5,16.2-11.3l-1.6,11.3c0,1.6,0,3.2,1.6,3.2s3.2,0,4.9,0c16.2-13,25.9-27.5,32.4-38.9v3.2
			c0,1.6,1.6,3.2,3.2,3.2s3.2,0,4.9-1.6c27.5-38.9,14.6-82.6,11.3-92.3c6.5-16.2,3.2-29.2,0-38.9l9.7,4.9c1.6,0,3.2,0,4.9,0
			c1.6-1.6,1.6-3.2,1.6-4.9s0-3.2-1.6-3.2c14.6,14.6,25.9,30.8,35.6,48.6l0,0c1.6,3.2,30.8,48.6,34,111.8l-3.2-4.9
			c-1.6-1.6-3.2-1.6-4.9-1.6c-1.6,1.6-3.2,3.2-1.6,4.9c0,0,9.7,34,4.9,77.8l-3.2-1.6c-1.6,0-3.2,0-4.9,0c-1.6,1.6-1.6,1.6-1.6,3.2
			c0,0,3.2,40.5-11.3,69.7l1.6-17.8c0-1.6-1.6-4.9-3.2-4.9s-4.9,1.6-4.9,3.2c0,0-6.5,24.3-24.3,53.5c0-6.5,0-13-1.6-19.4
			c0-1.6-1.6-3.2-3.2-3.2s-3.2,0-4.9,1.6c0,0-11.3,22.7-21.1,50.2l-3.2-16.2c0-1.6-1.6-3.2-3.2-3.2s-3.2,0-4.9,1.6
			c-1.6,3.2-11.3,21.1-17.8,34c-1.6-4.9-1.6-9.7-3.2-14.6c0-1.6-1.6-3.2-3.2-3.2s-3.2,0-4.9,0c-4.9,3.2-8.1,6.5-11.3,9.7
			c-8.1,8.1-11.3,16.2-14.6,22.7c-3.2,8.1-4.9,11.3-13,11.3c0,0-14.6,0-37.3,0c-1.6,0-6.5,0-8.1-3.2l0,0c-1.6-1.6-1.6-1.6-3.2-3.2
			c-3.2-4.9-4.9-21.1,22.7-59.9c6.5-9.7,21.1-24.3,34-38.9c19.4-21.1,35.6-38.9,38.9-47c24.3-61.6,48.6-147.4,50.2-149
			c0-1.6,0-4.9-3.2-4.9c-1.6,0-4.9,0-4.9,3.2c0,0-16.2,53.5-34,105.3c-37.3,21.1-61.6-4.9-61.6-6.5c-1.6-1.6-4.9-1.6-6.5,0
			s-1.6,4.9,0,6.5c0,0,16.2,16.2,40.5,16.2c6.5,0,14.6-1.6,24.3-4.9c-3.2,11.3-8.1,21.1-11.3,30.8c-3.2,6.5-21.1,27.5-37.3,43.7
			c-11.3,11.3-21.1,22.7-29.2,32.4c-8.1-9.7-19.4-22.7-30.8-34c-16.2-16.2-34-35.6-35.6-43.7c-3.2-9.7-8.1-21.1-11.3-30.8
			c8.1,3.2,16.2,4.9,24.3,4.9c24.3,0,40.5-16.2,40.5-16.2c1.6-1.6,1.6-4.9,0-6.5c-1.6-1.6-4.9-1.6-6.5,0c0,0-24.3,25.9-61.6,6.5
			c-17.8-51.8-30.8-105.3-30.8-105.3c0-1.6-3.2-3.2-4.9-3.2c-1.6,0-3.2,3.2-3.2,4.9s22.7,87.5,47,149c3.2,8.1,19.4,25.9,37.3,45.4
			c11.3,13,24.3,25.9,30.8,35.6c-25.9,35.6-27.5,53.5-24.3,64.8c-4.9-1.6-8.1-4.9-11.3-11.3c-3.2-4.9-8.1-11.3-14.6-17.8
			c-1.6-1.6-3.2-3.2-4.9-4.9c-1.6-1.6-3.2-1.6-4.9,0c-1.6,0-3.2,1.6-3.2,3.2c0,3.2-1.6,6.5-1.6,9.7c-6.5-13-16.2-30.8-17.8-34
			c-1.6-1.6-3.2-1.6-4.9-1.6c-1.6,0-3.2,1.6-3.2,3.2l-3.2,16.2c-6.5-17.8-13-32.4-16.2-40.5c0,0,0-1.6-1.6-1.6
			c-1.6-1.6-3.2-3.2-4.9-4.9c-1.6-1.6-3.2-1.6-4.9,0c-1.6,0-3.2,1.6-3.2,3.2c0,4.9,0,9.7,0,13c-11.3-16.2-17.8-30.8-21.1-42.1
			c0,0,0-1.6-1.6-1.6l-1.6-1.6l0,0l0,0c-1.6-1.6-3.2-1.6-4.9-1.6c-1.6,0-3.2,3.2-1.6,4.9l1.6,9.7c-6.5-13-9.7-27.5-9.7-40.5
			c0,0,0,0,0-1.6c-1.6-3.2-3.2-8.1-3.2-13v-1.6c-1.6-3.2-1.6-8.1-1.6-11.3c0-1.6-1.6-3.2-1.6-3.2h-1.6c-1.6-16.2-1.6-34,0-51.8l0,0
			c0-3.2,0-6.5,0-8.1c0-3.2,0-6.5,0-11.3C715.9,709.4,714.3,707.7,712.7,707.7z M715.9,803.3c1.6,3.2,1.6,6.5,3.2,11.3
			c1.6,17.8,6.5,42.1,21.1,58.3c1.6,1.6,3.2,1.6,4.9,1.6c1.6,0,3.2-3.2,3.2-4.9v-3.2c6.5,13,14.6,27.5,27.5,42.1
			c1.6,1.6,3.2,1.6,4.9,1.6c1.6-1.6,3.2-3.2,1.6-4.9c0,0-3.2-8.1-3.2-17.8c4.9,11.3,11.3,29.2,17.8,48.6c0,1.6,1.6,3.2,4.9,3.2
			c1.6,0,3.2-1.6,3.2-3.2l4.9-19.4c6.5,11.3,14.6,25.9,14.6,32.4c0,4.9,3.2,4.9,4.9,4.9c3.2,0,4.9-1.6,8.1-19.4
			c6.5,4.9,9.7,9.7,13,14.6c3.2,4.9,6.5,8.1,9.7,11.3c-37.3,0-71.3-4.9-100.4-13c-1.6,0-3.2,0-4.9,1.6c-1.6,1.6-1.6,3.2,0,4.9
			l3.2,4.9c-24.3-6.5-42.1-25.9-43.7-27.5c0,0-1.6,0-1.6-1.6c-1.6,0-3.2,0-4.9,0c-1.6,1.6-1.6,3.2-1.6,3.2l1.6,13
			c-11.3-9.7-21.1-27.5-24.3-37.3c0,0,0-1.6-1.6-1.6l0,0c-1.6-1.6-3.2-1.6-4.9,0c-1.6,0-3.2,1.6-1.6,4.9l1.6,14.6
			c-13-16.2-16.2-47-16.2-50.2c0,0,0,0,0-1.6c-4.9-16.2-3.2-34,6.5-47C677,814.7,694.9,804.9,715.9,803.3"/>
		<g>
			<g>
				<path class="st10" d="M937.9,644.6l-3.2-4.9c35.6-17.8,61.6-40.5,69.7-64.8c9.7-34-9.7-68-21.1-85.9c-3.2-6.5-6.5-9.7-6.5-13
					c-24.3-50.2-72.9-34-74.5-34l0,0l0,0c-1.6,0-48.6-16.2-81,32.4c-58.3,92.3-17.8,119.9,8.1,137.7c9.7,6.5,16.2,11.3,17.8,17.8
					l-4.9,1.6c-1.6-4.9-8.1-9.7-16.2-14.6c-25.9-17.8-69.7-47-9.7-144.2c30.8-47,79.4-35.6,85.9-34c6.5-1.6,55.1-13,79.4,37.3
					c0,3.2,3.2,6.5,6.5,13c11.3,17.8,32.4,51.8,21.1,89.1C1001,602.4,975.1,626.7,937.9,644.6z"/>
				<path class="st10" d="M894.1,655.9c-27.5-1.6-47-9.7-53.5-24.3c-14.6-34,37.3-90.7,38.9-92.3l3.2,3.2c0,0-50.2,56.7-37.3,87.5
					c4.9,13,21.1,19.4,47,21.1c13,1.6,37.3-1.6,47-17.8c9.7-17.8-1.6-48.6-32.4-87.5l3.2-3.2c32.4,40.5,43.7,72.9,32.4,92.3
					C937.9,649.4,921.7,655.9,894.1,655.9z"/>
				<path class="st10" d="M845.5,602.4c-8.1-3.2-14.6-11.3-17.8-19.4c-3.2-8.1-4.9-17.8-3.2-25.9c0-8.1,1.6-17.8,3.2-25.9
					c3.2-8.1,4.9-16.2,9.7-24.3l0,0c-1.6,8.1-4.9,16.2-6.5,25.9c-1.6,8.1-3.2,16.2-4.9,25.9c0,8.1,0,17.8,1.6,25.9
					C832.6,589.5,837.4,597.6,845.5,602.4L845.5,602.4z"/>
				<path class="st10" d="M952.4,502c3.2,8.1,6.5,16.2,8.1,25.9c1.6,8.1,3.2,17.8,3.2,27.5c0,9.7,0,17.8-3.2,27.5
					c-3.2,8.1-8.1,16.2-16.2,22.7l0,0c4.9-8.1,9.7-14.6,11.3-22.7c1.6-8.1,3.2-16.2,4.9-25.9c0-8.1,0-17.8-1.6-25.9
					C957.3,518.2,955.7,510.1,952.4,502L952.4,502z"/>
				<path class="st10" d="M876.3,523.1c-1.6,0-1.6,0-3.2,0l1.6-4.9c1.6,0,4.9,0,8.1-1.6c-1.6-1.6-4.9-3.2-6.5-3.2
					c-4.9,0-8.1,4.9-8.1,8.1l-4.9-1.6c0,0,4.9-9.7,13-9.7c4.9,0,8.1,1.6,13,8.1l1.6,1.6l-3.2,1.6C886,519.8,879.5,523.1,876.3,523.1
					z"/>
				<path class="st10" d="M915.2,527.9c-1.6,0-1.6,0-3.2,0l1.6-4.9c1.6,0,4.9,0,8.1-1.6c-1.6-1.6-4.9-3.2-6.5-3.2
					c-4.9,0-8.1,4.9-8.1,8.1l-4.9-1.6c0,0,4.9-9.7,13-9.7c4.9,0,8.1,1.6,13,8.1l1.6,1.6l-3.2,1.6C924.9,524.7,920,527.9,915.2,527.9
					z"/>
				<path class="st10" d="M900.6,612.2c-22.7,0-42.1-6.5-42.1-8.1l1.6-4.9c0,0,40.5,14.6,69.7,1.6l1.6,4.9
					C921.7,610.5,910.3,612.2,900.6,612.2z"/>
				<path class="st10" d="M894.1,625.1c-19.4-1.6-35.6-21.1-35.6-21.1l1.6-4.9c9.7,14.6,45.4,37.3,69.7,1.6l1.6,4.9
					C923.3,617,913.6,626.7,894.1,625.1z"/>
				<path class="st10" d="M895.7,568.4c-6.5,0-11.3-6.5-11.3-6.5l3.2-3.2c1.6,1.6,4.9,4.9,8.1,4.9c1.6,0,4.9-1.6,6.5-6.5l4.9,1.6
					C902.2,565.2,900.6,566.8,895.7,568.4L895.7,568.4z"/>
				<path class="st10" d="M920,527.9C920,527.9,918.4,527.9,920,527.9c-4.9,0-8.1-3.2-6.5-6.5c0-1.6,1.6-3.2,1.6-3.2
					c1.6-1.6,3.2-1.6,4.9-1.6c3.2,0,6.5,3.2,4.9,6.5l0,0c0,1.6-1.6,3.2-1.6,3.2C923.3,527.9,921.7,527.9,920,527.9z M920,519.8
					C918.4,519.8,918.4,519.8,920,519.8c-1.6,0-1.6,0-1.6,1.6c0,0,0,1.6,1.6,1.6h1.6l0,0l0,0C921.7,521.5,921.7,521.5,920,519.8
					L920,519.8z"/>
				<path class="st10" d="M879.5,523.1C879.5,523.1,877.9,523.1,879.5,523.1c-4.9,0-8.1-3.2-6.5-6.5c0-1.6,1.6-3.2,1.6-3.2
					c1.6-1.6,3.2-1.6,4.9-1.6c3.2,0,6.5,3.2,4.9,6.5l0,0c0,1.6-1.6,3.2-1.6,3.2C881.2,523.1,881.2,523.1,879.5,523.1z M877.9,516.6
					L877.9,516.6c-1.6,0-1.6,0-1.6,1.6c0,0,0,1.6,1.6,1.6h1.6l0,0l0,0C881.2,516.6,881.2,516.6,877.9,516.6
					C879.5,516.6,879.5,516.6,877.9,516.6z"/>
				<path class="st10" d="M897.4,500.4h-1.6c-11.3-1.6-17.8-13-19.4-13l3.2-1.6c0,0,6.5,9.7,14.6,11.3c6.5,0,14.6-3.2,22.7-13
					l3.2,3.2C913.6,495.5,905.5,500.4,897.4,500.4z"/>
				<path class="st10" d="M934.6,552.2c-11.3,0-25.9-13-27.5-14.6l3.2-3.2c4.9,4.9,21.1,17.8,27.5,11.3l3.2,3.2
					C939.5,552.2,937.9,552.2,934.6,552.2z"/>
				<path class="st10" d="M853.6,547.4c-3.2,0-6.5-1.6-9.7-3.2l3.2-3.2c4.9,6.5,24.3-3.2,29.2-6.5l3.2,3.2
					C877.9,539.3,863.3,547.4,853.6,547.4z"/>
				<path class="st10" d="M908.7,566.8l-4.9-1.6c1.6-3.2,1.6-8.1,0-9.7c0,0-1.6,0-1.6,1.6l-3.2-3.2c4.9-3.2,6.5-1.6,8.1-1.6
					C910.3,553.8,910.3,561.9,908.7,566.8z"/>
				<path class="st10" d="M879.5,565.2c-1.6-3.2,0-13,4.9-14.6c1.6,0,4.9-1.6,8.1,3.2l-3.2,3.2c-1.6-1.6-1.6-1.6-1.6-1.6
					c-1.6,0-3.2,6.5-1.6,9.7H879.5z"/>
			</g>
			<path class="st10" d="M855.2,539.3c-1.6,0-3.2,0-4.9-1.6c-1.6,0-1.6-1.6-1.6-3.2h1.6c0,1.6,0,1.6,1.6,1.6
				c4.9,3.2,17.8-3.2,22.7-4.9v1.6C873.1,534.4,863.3,539.3,855.2,539.3z"/>
			<path class="st10" d="M926.5,544.1c-6.5,0-19.4-8.1-21.1-9.7l1.6-3.2c6.5,3.2,16.2,9.7,19.4,8.1c0,0,1.6,0,1.6-1.6h3.2
				c0,1.6-1.6,3.2-3.2,3.2C928.1,544.1,928.1,544.1,926.5,544.1z"/>
		</g>
	</g>
	<g>
		<path class="st10" d="M1195.4,864.9c-6.5,11.3-8.1,25.9-4.9,38.9c0,6.5,3.2,35.6,16.2,45.4c1.6,0,1.6,0,3.2,0s1.6-1.6,1.6-3.2V941
			c4.9,8.1,9.7,17.8,16.2,21.1c1.6,0,1.6,0,3.2,0c1.6,0,1.6-1.6,1.6-3.2l-1.6-8.1c6.5,6.5,16.2,14.6,29.2,16.2l0,0
			c1.6,0,1.6,0,1.6-1.6c0-1.6,0-1.6,0-3.2l-1.6-3.2c17.8,4.9,37.3,6.5,59.9,8.1c1.6,0,3.2-1.6,3.2-3.2l0,0c1.6,0,3.2,0,4.9,0
			c1.6,1.6,4.9,3.2,8.1,3.2c14.6,0,22.7,0,22.7,0c1.6,0,1.6,0,3.2,0c0,0,0,0,1.6,0c22.7,0,42.1-3.2,59.9-8.1l-1.6,3.2
			c0,1.6,0,1.6,0,3.2c0,1.6,1.6,1.6,1.6,1.6l0,0c13-1.6,22.7-9.7,29.2-16.2l-1.6,8.1c0,1.6,0,1.6,1.6,3.2c1.6,0,1.6,0,3.2,0
			c6.5-4.9,13-14.6,16.2-21.1v4.9c0,1.6,0,1.6,1.6,3.2c1.6,0,1.6,0,3.2,0c14.6-11.3,16.2-42.1,16.2-47c3.2-13,1.6-27.5-4.9-38.9
			c-6.5-11.3-19.4-19.4-32.4-19.4c0-1.6,0-3.2,0-3.2l1.6,1.6h1.6l1.6-1.6c3.2-19.4,1.6-37.3,0-48.6c0,1.6,1.6,1.6,3.2,1.6
			s1.6-1.6,1.6-3.2c0-53.5-19.4-90.7-21.1-94c-8.1-16.2-17.8-32.4-30.8-45.4c-3.2-9.7-11.3-21.1-11.3-22.7c0-1.6,0-1.6,0-3.2
			c-8.1-16.2-115-16.2-123.1,0c0,1.6,0,3.2,0,3.2s-6.5,14.6-11.3,22.7c-9.7,13-19.4,27.5-27.5,45.4c-3.2,4.9-22.7,42.1-21.1,92.3
			c0,1.6,0,3.2,1.6,3.2h1.6c0,1.6,0,3.2,0,4.9c-1.6,14.6-1.6,29.2,1.6,42.1c0,1.6,0,1.6,1.6,1.6c0,0,0,0,1.6,0v1.6
			C1214.9,845.4,1201.9,851.9,1195.4,864.9z M1485.4,868.1c6.5,9.7,8.1,21.1,4.9,34c0,0,0,0,0,1.6c0,3.2-1.6,24.3-9.7,37.3v-11.3
			c0-1.6,0-3.2-1.6-3.2s-3.2,0-3.2,1.6c0,0-6.5,17.8-16.2,27.5l1.6-9.7c0-1.6,0-3.2-1.6-3.2s-1.6,0-3.2,0c0,0-11.3,14.6-27.5,19.4
			l1.6-3.2v-1.6c0-1.6,0-1.6-1.6-1.6h-1.6c-16.2,4.9-35.6,8.1-58.3,8.1c1.6-1.6,1.6-3.2,1.6-4.9c1.6-4.9,3.2-9.7,8.1-13
			c1.6-1.6,1.6-1.6,3.2-3.2c3.2,17.8,3.2,17.8,6.5,17.8c1.6,0,3.2,0,3.2-3.2c0-4.9,4.9-14.6,9.7-22.7l3.2,14.6
			c0,1.6,1.6,1.6,1.6,3.2c1.6,0,1.6,0,3.2-1.6c3.2-13,8.1-25.9,11.3-35.6c0,6.5-3.2,13-3.2,13c0,1.6,0,3.2,1.6,3.2s3.2,0,3.2,0
			c8.1-11.3,13-21.1,16.2-30.8v1.6c0,1.6,0,3.2,1.6,3.2s1.6,0,3.2,0c11.3-13,13-35.6,13-48.6
			C1469.2,850.3,1478.9,856.8,1485.4,868.1z M1227.8,780.6L1227.8,780.6c0-45.4,17.8-77.8,19.4-81l0,0c4.9-11.3,11.3-22.7,17.8-32.4
			c0,1.6,0,66.4,17.8,94c0,1.6,34,19.4,37.3,21.1c13,4.9,32.4,4.9,45.4,0c4.9-1.6,37.3-21.1,37.3-21.1c17.8-27.5,17.8-94,16.2-94
			c0-1.6,16.2,19.4,21.1,32.4l0,0c1.6,1.6,19.4,34,21.1,79.4l-1.6-3.2c0-1.6-1.6-1.6-3.2-1.6s-1.6,1.6-1.6,3.2
			c0,0,6.5,24.3,3.2,55.1l-1.6-1.6c-1.6,0-1.6,0-3.2,0c0,0-1.6,1.6-1.6,3.2c0,0,1.6,29.2-6.5,50.2l1.6-13c0-1.6,0-3.2-1.6-3.2
			s-3.2,0-3.2,1.6c0,0-3.2,17.8-16.2,38.9c0-4.9,0-9.7,0-13c0-1.6-1.6-1.6-1.6-1.6c-1.6,0-1.6,0-3.2,1.6c0,0-6.5,16.2-13,37.3
			l-1.6-11.3c0-1.6-1.6-1.6-1.6-1.6c-1.6,0-1.6,0-3.2,1.6s-8.1,14.6-11.3,24.3c0-3.2-1.6-6.5-1.6-11.3c0-1.6,0-1.6-1.6-1.6
			s-1.6,0-3.2,0c-3.2,3.2-4.9,4.9-6.5,6.5c-4.9,6.5-8.1,11.3-8.1,16.2c-1.6,4.9-3.2,8.1-8.1,8.1c0,0-9.7,0-22.7,0
			c-1.6,0-3.2,0-4.9-1.6l0,0l-1.6-1.6c-1.6-3.2-3.2-14.6,14.6-42.1c4.9-6.5,13-17.8,21.1-27.5c11.3-14.6,21.1-27.5,24.3-34
			c14.6-43.7,30.8-106.9,30.8-106.9c0-1.6,0-3.2-1.6-3.2s-3.2,0-3.2,1.6c0,0-9.7,38.9-21.1,76.1c-22.7,14.6-37.3-3.2-38.9-4.9
			s-3.2-1.6-3.2,0c-1.6,1.6-1.6,3.2,0,4.9c0,0,9.7,11.3,24.3,11.3c4.9,0,9.7-1.6,14.6-3.2c-1.6,8.1-4.9,14.6-6.5,22.7
			c-1.6,4.9-13,19.4-22.7,32.4c-6.5,8.1-13,16.2-17.8,24.3c-4.9-6.5-11.3-16.2-19.4-24.3c-9.7-13-21.1-25.9-22.7-30.8
			c-1.6-6.5-4.9-14.6-6.5-22.7c4.9,3.2,9.7,3.2,14.6,3.2c14.6,0,24.3-11.3,24.3-11.3c1.6-1.6,1.6-3.2,0-4.9s-3.2-1.6-3.2,0
			c0,0-16.2,19.4-37.3,4.9c-11.3-37.3-19.4-76.1-19.4-76.1c0-1.6-1.6-3.2-3.2-1.6c-1.6,0-1.6,1.6-1.6,3.2c0,0,14.6,63.2,29.2,106.9
			c1.6,6.5,11.3,17.8,22.7,32.4c6.5,9.7,14.6,17.8,19.4,25.9c-16.2,25.9-17.8,38.9-14.6,47c-3.2-1.6-4.9-3.2-8.1-8.1
			c-1.6-3.2-4.9-8.1-9.7-13c-1.6-1.6-1.6-1.6-3.2-3.2c0,0-1.6-1.6-3.2,0c-1.6,0-1.6,1.6-1.6,1.6c0,3.2,0,4.9-1.6,6.5
			c-3.2-9.7-9.7-22.7-11.3-24.3c0-1.6-1.6-1.6-3.2-1.6s-1.6,1.6-1.6,1.6l-1.6,11.3c-3.2-13-8.1-22.7-9.7-29.2c0,0,0,0,0-1.6
			c-1.6-1.6-1.6-1.6-3.2-3.2c0,0-1.6-1.6-3.2,0s-1.6,1.6-1.6,3.2c0,3.2,0,6.5,0,9.7c-6.5-11.3-11.3-22.7-13-30.8v-1.6l-1.6-1.6l0,0
			l0,0c0-1.6-1.6-1.6-3.2,0c-1.6,0-1.6,1.6-1.6,3.2v6.5c-3.2-9.7-6.5-21.1-6.5-29.2l0,0c-1.6-3.2-1.6-6.5-1.6-9.7v-1.6
			c0-3.2-1.6-4.9-1.6-8.1c0-1.6,0-1.6-1.6-1.6c0,0,0,0-1.6,0c-1.6-11.3-1.6-24.3,0-37.3l0,0c0-1.6,0-4.9,0-6.5c0-1.6,0-4.9,0-8.1
			C1229.4,782.3,1229.4,780.6,1227.8,780.6z M1229.4,850.3c0,3.2,1.6,4.9,1.6,8.1c1.6,13,4.9,30.8,13,42.1c0,1.6,1.6,1.6,3.2,0
			c1.6,0,1.6-1.6,1.6-3.2v-1.6c3.2,9.7,9.7,19.4,16.2,30.8c0,1.6,1.6,1.6,3.2,0c1.6,0,1.6-1.6,1.6-3.2c0,0-1.6-4.9-3.2-13
			c3.2,8.1,8.1,21.1,11.3,35.6c0,1.6,1.6,1.6,3.2,1.6c1.6,0,1.6-1.6,1.6-3.2l3.2-14.6c3.2,8.1,8.1,19.4,9.7,22.7
			c0,3.2,1.6,3.2,3.2,3.2s3.2,0,4.9-13c3.2,3.2,6.5,8.1,8.1,11.3s3.2,6.5,6.5,8.1c-22.7,0-43.7-3.2-61.6-9.7c-1.6,0-1.6,0-3.2,1.6
			c0,1.6,0,1.6,0,3.2l1.6,3.2c-14.6-4.9-25.9-19.4-25.9-19.4l0,0c-1.6,0-1.6,0-3.2,0c0,0-1.6,1.6-1.6,3.2l1.6,9.7
			c-6.5-8.1-13-19.4-16.2-25.9c0,0,0,0,0-1.6l0,0c0-1.6-1.6-1.6-3.2,0c-1.6,0-1.6,1.6-1.6,3.2V941c-8.1-13-9.7-34-9.7-37.3l0,0
			c-3.2-11.3-1.6-24.3,4.9-34C1205.1,856.8,1216.5,850.3,1229.4,850.3"/>
		<path class="st11" d="M1294.2,610.5l-27.5,58.3c0,0,3.2,85.9,16.2,106.9c0,0,37.3,30.8,56.7,29.2c19.4-1.6,50.2-19.4,61.6-29.2
			c11.3-9.7,17.8-103.7,16.2-106.9l-35.6-59.9C1383.3,607.3,1305.6,589.5,1294.2,610.5z"/>
		<g>
			<g>
				<path class="st11" d="M1302.3,686.7c-55.1-69.7-21.1-124.7,22.7-124.7c43.7,0,21.1,0,50.2,1.6c29.2,1.6,68,58.3,14.6,123.1"/>
				<path class="st10" d="M1302.3,686.7c-9.7-11.3-19.4-24.3-24.3-37.3c-6.5-14.6-9.7-30.8-6.5-45.4c1.6-8.1,4.9-16.2,9.7-22.7
					c4.9-6.5,11.3-13,17.8-16.2c8.1-3.2,16.2-6.5,24.3-6.5c8.1,0,14.6,0,22.7,0s16.2,0,22.7,1.6c6.5,0,16.2,1.6,24.3,6.5
					c8.1,4.9,13,9.7,17.8,17.8c4.9,6.5,8.1,14.6,9.7,22.7c3.2,16.2,1.6,32.4-3.2,47c-6.5,14.6-14.6,27.5-24.3,37.3
					c16.2-24.3,29.2-55.1,19.4-82.6c-3.2-13-13-25.9-24.3-32.4c-6.5-3.2-11.3-3.2-19.4-3.2s-14.6-1.6-22.7,0c-8.1,0-14.6,0-22.7,0
					c-6.5,0-13,1.6-19.4,4.9c-6.5,3.2-11.3,8.1-14.6,13c-3.2,4.9-6.5,11.3-8.1,17.8c-3.2,13-1.6,29.2,3.2,42.1
					C1286.1,660.8,1294.2,673.7,1302.3,686.7z"/>
			</g>
			<path class="st12" d="M1336.3,625.1c0,0-81,94,9.7,97.2c19.4,3.2,81-8.1,14.6-94"/>
			<path class="st13" d="M1303.9,702.9"/>
			<path class="st14" d="M1336.3,625.1c0,0-81,94,9.7,97.2c19.4,3.2,81-8.1,14.6-94"/>
			<g>
				<path class="st10" d="M1305.6,678.6c-8.1-3.2-13-11.3-13-19.4c-1.6-8.1,0-16.2,1.6-24.3c3.2-16.2,11.3-30.8,21.1-43.7l0,0
					c-3.2,8.1-6.5,14.6-9.7,22.7c-3.2,6.5-6.5,14.6-9.7,21.1c-1.6,8.1-3.2,14.6-3.2,22.7C1295.8,665.6,1299.1,673.7,1305.6,678.6
					L1305.6,678.6z"/>
			</g>
			<g>
				<path class="st10" d="M1383.3,591.1c8.1,13,14.6,27.5,17.8,43.7c1.6,8.1,3.2,16.2,0,24.3c-1.6,8.1-6.5,16.2-13,21.1l0,0
					c8.1-13,9.7-27.5,8.1-43.7C1396.3,620.3,1389.8,605.7,1383.3,591.1L1383.3,591.1z"/>
			</g>
			<g>
				<path class="st10" d="M1320.1,683.4c3.2-3.2,9.7-4.9,14.6-6.5c4.9-1.6,9.7-1.6,16.2-1.6c4.9,0,11.3,0,16.2,1.6s9.7,3.2,14.6,8.1
					c-9.7-4.9-19.4-8.1-29.2-6.5c-4.9,0-9.7,0-16.2,1.6c-3.2,0-4.9,1.6-8.1,1.6C1323.4,681.8,1320.1,683.4,1320.1,683.4z"/>
			</g>
			<path class="st14" d="M1323.4,673.7c1.6-1.6,19.4,13,43.7,1.6"/>
			<path class="st14" d="M1339.6,641.3c0,0,8.1,11.3,14.6-1.6"/>
			<path class="st14" d="M1359,621.9c0,0,17.8,16.2,25.9,9.7"/>
			<path class="st14" d="M1333.1,621.9c0,0-21.1,13-27.5,4.9"/>
			<path class="st14" d="M1350.9,636.5c6.5-6.5,6.5,6.5,4.9,9.7"/>
			<path class="st14" d="M1342.8,638.1c-4.9-6.5-8.1,4.9-6.5,8.1"/>
			<path class="st14" d="M1323.4,621.9c0,0,4.9-34,21.1-14.6h8.1c0,0,21.1-17.8,21.1,8.1"/>
			<g>
				<path class="st14" d="M1326.6,617c0,0,8.1-13,14.6,0c0,0-6.5,1.6-9.7,0"/>
				<path class="st14" d="M1352.5,617c0,0,8.1-13,14.6,0c0,0-6.5,1.6-9.7,0"/>
				<ellipse class="st15" cx="1335.5" cy="614.9" rx="3.2" ry="3.2"/>
				<rect x="1333.1" y="615.4" class="st16" width="0" height="0"/>
				<g>
					
						<ellipse transform="matrix(0.9968 -7.972571e-02 7.972571e-02 0.9968 -44.971 110.4448)" class="st17" cx="1360.6" cy="618.4" rx="1.6" ry="1.6"/>
					<ellipse class="st18" cx="1361.8" cy="616.7" rx="3.2" ry="3.2"/>
				</g>
			</g>
			<g class="st19">
				<g>
					<path class="st20" d="M1381.7,665.6"/>
				</g>
			</g>
			<g>
				<path class="st10" d="M1367.1,574.9c-1.6,4.9-3.2,9.7-6.5,13c-3.2,4.9-4.9,8.1-9.7,11.3c-1.6,1.6-4.9,1.6-8.1,0
					c-1.6-1.6-4.9-3.2-4.9-4.9c-3.2-4.9-4.9-8.1-4.9-13c1.6,4.9,3.2,8.1,6.5,13c3.2,3.2,6.5,6.5,11.3,4.9c3.2-1.6,6.5-4.9,9.7-9.7
					C1362.3,584.6,1363.9,579.8,1367.1,574.9z"/>
			</g>
		</g>
		<path class="st21" d="M1354.2,677c0,3.2-3.2,6.5-6.5,6.5c-3.2,0-6.5-3.2-6.5-6.5"/>
		<g>
			<path class="st10" d="M1312,594.3c3.2-6.5,8.1-13,14.6-17.8c6.5-4.9,13-9.7,22.7-9.7l0,0l0,0c8.1,3.2,16.2,6.5,22.7,11.3
				s13,11.3,13,19.4l0,0c-4.9-6.5-9.7-11.3-16.2-16.2s-13-8.1-19.4-11.3l0,0c-6.5,0-14.6,3.2-21.1,8.1
				C1323.4,583,1316.9,587.9,1312,594.3L1312,594.3z"/>
		</g>
	</g>
</g>
</svg>
