<?xml version="1.0" encoding="utf-8"?>
<!-- Generator: Adobe Illustrator 26.0.1, SVG Export Plug-In . SVG Version: 6.00 Build 0)  -->
<svg version="1.1" id="Capa_1" xmlns="http://www.w3.org/2000/svg" xmlns:xlink="http://www.w3.org/1999/xlink" x="0px" y="0px"
	 viewBox="0 0 2200 1600" style="enable-background:new 0 0 2200 1600;" xml:space="preserve">
<style type="text/css">
	.st0{fill:none;}
	.st1{fill:#070508;}
	.st2{font-family:'Roboto-Regular';}
	.st3{font-size:44px;}
	.st4{font-family:'Roboto-Bold';}
	.st5{fill:none;stroke:#191C17;stroke-width:2;stroke-linecap:round;stroke-linejoin:round;stroke-miterlimit:10;}
	.st6{fill:#191C17;}
</style>
<image style="overflow:visible;" width="3806" height="2508" xlink:href="Bimaturismo_04_macho.jpg"  transform="matrix(0.638 0 0 0.638 -67.0943 0)">
</image>
<g>
	<rect x="57" y="48.9" class="st0" width="548.3" height="106.4"/>
	<text transform="matrix(1.0045 0 0 1 56.9781 81.9474)"><tspan x="0" y="0" class="st1 st2 st3">Los machos dominantes </tspan><tspan x="0" y="52.8" class="st1 st2 st3">son reconocidos por: </tspan></text>
</g>
<g>
	<rect x="1889.9" y="649.6" class="st0" width="273" height="134.2"/>
	<text transform="matrix(1.0045 0 0 1 1889.9448 682.5587)"><tspan x="0" y="0" class="st1 st2 st3">Tener una </tspan><tspan x="0" y="52.8" class="st1 st4 st3">gran papada</tspan><tspan x="245.5" y="52.8" class="st1 st2 st3">.</tspan></text>
</g>
<g>
	<rect x="167.4" y="280.5" class="st0" width="484.5" height="159.5"/>
	<text transform="matrix(1.0045 0 0 1 167.3817 313.5204)"><tspan x="0" y="0" class="st1 st2 st3">La presencia de </tspan><tspan x="0" y="52.8" class="st1 st2 st3">protuberancias en su </tspan><tspan x="0" y="105.6" class="st1 st2 st3">rostro llamadas </tspan><tspan x="318" y="105.6" class="st1 st4 st3">bridas</tspan><tspan x="441.5" y="105.6" class="st1 st2 st3">.</tspan></text>
</g>
<g id="linea">
	<g>
		<g>
			<path class="st5" d="M1055.9,519.4c0,0-39.6-110-172-110H634.6"/>
			<g>
				<path class="st6" d="M1054.6,515.8c-2,0.7-3,2.8-2.3,4.8c0.7,2,2.8,3,4.8,2.3s3-2.8,2.3-4.8
					C1058.7,516.2,1056.6,515.2,1054.6,515.8z"/>
			</g>
		</g>
	</g>
</g>
<g id="linea_00000169522776705626150380000000616982086901078681_">
	<g>
		<g>
			<path class="st5" d="M1293,873.6h478c132.4,0,172-110,172-110"/>
		</g>
	</g>
</g>
<g>
	<path class="st6" d="M1296.6,874.9c0.7-2-0.3-4.1-2.3-4.8c-2-0.7-4.1,0.3-4.8,2.3c-0.7,2,0.3,4.1,2.3,4.8
		C1293.8,877.8,1295.9,876.8,1296.6,874.9z"/>
</g>
</svg>
