<?xml version="1.0" encoding="utf-8"?>
<!-- Generator: Adobe Illustrator 26.0.1, SVG Export Plug-In . SVG Version: 6.00 Build 0)  -->
<svg version="1.1" id="Capa_1" xmlns="http://www.w3.org/2000/svg" xmlns:xlink="http://www.w3.org/1999/xlink" x="0px" y="0px"
	 viewBox="0 0 368.5 87.6" style="enable-background:new 0 0 368.5 87.6;" xml:space="preserve">
<style type="text/css">
	.st0{fill:none;}
	.st1{fill:#F8CCB2;}
	.st2{fill:none;stroke:#F8CCB2;stroke-miterlimit:10;stroke-dasharray:6,6;}
	.st3{fill:#211915;}
	.st4{fill:#FFFFFF;}
</style>
<image style="overflow:visible;enable-background:new    ;" width="672" height="160" xlink:href="bosquesonido0.jpg"  transform="matrix(0.5484 0 0 0.5484 0 -0.1)">
</image>
<path class="st0" d="M79.2,68.5h209.3 M276.5,75.6l14.4-7.1l-14.4-7"/>
<circle class="st1" cx="10.2" cy="-31.4" r="10">
<animateTransform  accumulate="none" additive="replace" attributeName="transform" attributeType="XML" begin="space1.end" calcMode="linear" dur="2s" fill="remove" id="pause" restart="always" type="translate">
	</animateTransform>
<animateMotion  accumulate="none" additive="replace" begin="0; pause.end" calcMode="linear" dur="4s" fill="freeze" id="space1" path="M70.8 99.8h209.3M268.1" restart="always">
	</animateMotion>
</circle>
<circle class="st1" cx="11.4" cy="-30.8" r="10">
<animateTransform  accumulate="none" additive="replace" attributeName="transform" attributeType="XML" begin="space2.end" calcMode="linear" dur="2s" fill="remove" id="pause" restart="always" type="translate">
	</animateTransform>
<animateMotion  accumulate="none" additive="replace" begin="0; pause.end" calcMode="linear" dur="4s" fill="freeze" id="space2" keyPoints="0;0.5;0.65;0.8;1" keyTimes="0;0.30;0.36;0.66;1" path="M284 341.5h-225.6v-61h123.3" restart="always">
	</animateMotion>
</circle>
<g>
	<g>
		<line class="st2" x1="79.2" y1="68.5" x2="289.8" y2="68.5"/>
		<g>
			<polygon class="st1" points="286.5,72.5 285.8,71.8 289.4,68.5 285.8,65.1 286.5,64.4 290.9,68.5 			"/>
		</g>
	</g>
</g>
<g>
	<path class="st3" d="M68.3,68.5c0,3.5-2.8,6.3-6.3,6.3c-3.5,0-6.3-2.8-6.3-6.3c0-3.5,2.8-6.3,6.3-6.3C65.5,62.2,68.3,65,68.3,68.5z
		"/>
	<g>
		<path class="st4" d="M63.8,72.4c-0.1,0-0.2-0.1-0.3-0.2c-0.1-0.2,0-0.4,0.1-0.5c0.3-0.2,0.5-0.4,0.7-0.6c1.6-1.6,1.6-4.2,0-5.8
			c-0.2-0.2-0.5-0.4-0.7-0.6c-0.2-0.1-0.2-0.3-0.1-0.5c0.1-0.2,0.3-0.2,0.5-0.1c0.3,0.2,0.6,0.4,0.9,0.7c1.8,1.8,1.8,4.8,0,6.7
			c-0.3,0.3-0.5,0.5-0.9,0.7C63.9,72.4,63.9,72.4,63.8,72.4L63.8,72.4z"/>
		<path class="st4" d="M63.1,71.3c-0.1,0-0.2-0.1-0.3-0.2c-0.1-0.2,0-0.4,0.1-0.5c0.2-0.1,0.3-0.2,0.5-0.4c1.1-1.1,1.1-2.8,0-3.8
			c-0.1-0.1-0.3-0.3-0.5-0.4c-0.2-0.1-0.2-0.3-0.1-0.5c0.1-0.2,0.3-0.2,0.5-0.1c0.2,0.1,0.4,0.3,0.6,0.5c1.3,1.3,1.3,3.4,0,4.8
			c-0.2,0.2-0.4,0.3-0.6,0.5C63.2,71.3,63.2,71.3,63.1,71.3L63.1,71.3z"/>
		<path class="st4" d="M62.3,70c-0.1,0-0.2-0.1-0.3-0.2c-0.1-0.2,0-0.4,0.1-0.5c0.1-0.1,0.2-0.1,0.2-0.2c0.5-0.5,0.5-1.3,0-1.7
			c-0.1-0.1-0.1-0.1-0.2-0.2C62,67.2,62,67,62,66.9c0.1-0.2,0.3-0.2,0.5-0.1c0.1,0.1,0.2,0.2,0.3,0.3c0.7,0.7,0.7,1.9,0,2.7
			c-0.1,0.1-0.2,0.2-0.3,0.3C62.4,70,62.4,70,62.3,70L62.3,70z"/>
		<path class="st4" d="M61.1,70.7c-0.1,0-0.1,0-0.2-0.1l-1.1-1.1h-1.6c-0.2,0-0.3-0.1-0.3-0.3v-1.6c0-0.2,0.1-0.3,0.3-0.3h1.6
			l1.1-1.1c0.1-0.1,0.2-0.1,0.3-0.1c0.1,0,0.2,0.1,0.2,0.3v4c0,0.1-0.1,0.2-0.2,0.3C61.1,70.7,61.1,70.7,61.1,70.7L61.1,70.7z"/>
	</g>
</g>
</svg>
